<svg width="24" height="24" viewBox="0 0 24 24" fill="none" xmlns="http://www.w3.org/2000/svg">
<path fill-rule="evenodd" clip-rule="evenodd" d="M15.7084 9.0312V9.0288C15.9092 9.0288 16.1104 9.0328 16.3116 9.028C16.57 9.0216 16.7804 8.8 16.7804 8.5412C16.7804 8.156 16.7804 7.7704 16.7804 7.3852C16.7804 7.1088 16.5616 6.8892 16.286 6.8888C15.9016 6.8888 15.5172 6.8884 15.1328 6.8888C14.8576 6.8892 14.6384 7.1096 14.6384 7.386C14.638 7.768 14.6368 8.15 14.6396 8.532C14.64 8.5892 14.6508 8.6484 14.6688 8.7024C14.738 8.9056 14.9244 9.0304 15.1524 9.0316C15.3376 9.0316 15.5232 9.0312 15.7084 9.0312ZM12 9.5268C10.6464 9.526 9.546 10.6152 9.5272 11.9624C9.5076 13.3464 10.6152 14.4428 11.9432 14.4712C13.3248 14.5008 14.4424 13.3968 14.4716 12.054C14.5016 10.67 13.3848 9.526 12 9.5268ZM7.2184 10.8464V10.8792C7.2184 12.6852 7.218 14.4912 7.2184 16.2972C7.2184 16.5568 7.4432 16.7804 7.7032 16.7804C10.5672 16.7808 13.4308 16.7808 16.2948 16.7804C16.5572 16.7804 16.7808 16.5576 16.7808 16.2956C16.7812 14.492 16.7808 12.6876 16.7808 10.8844V10.8468H15.616C15.7804 11.3724 15.8308 11.9072 15.7664 12.4524C15.702 12.9976 15.526 13.5048 15.24 13.9736C14.954 14.4424 14.5824 14.8316 14.1284 15.1408C12.9508 15.9432 11.4 16.0136 10.15 15.312C9.5184 14.958 9.0224 14.464 8.676 13.8268C8.1604 12.8776 8.078 11.8808 8.3804 10.8464C7.9932 10.8464 7.6084 10.8464 7.2184 10.8464ZM16.882 18.102C16.9456 18.0916 17.0092 18.0824 17.072 18.0688C17.5704 17.9628 17.9776 17.5472 18.0752 17.046C18.0852 16.9912 18.0932 16.9368 18.102 16.8824V7.1176C18.0936 7.0644 18.086 7.0104 18.076 6.9572C17.9688 6.4104 17.5176 5.986 16.964 5.91C16.9408 5.9072 16.9188 5.902 16.896 5.898H7.1044C7.0456 5.9088 6.986 5.9168 6.928 5.93C6.3872 6.0532 5.9872 6.4884 5.91 7.0364C5.9068 7.0592 5.902 7.082 5.8984 7.1048V16.896C5.9096 16.9576 5.9184 17.0204 5.9324 17.082C6.052 17.6108 6.5032 18.0208 7.0404 18.09C7.066 18.0932 7.0924 18.0984 7.1184 18.102H16.882V18.102ZM12 24C5.3728 24 0 18.6272 0 12C0 5.3724 5.3728 0 12 0C18.6272 0 24 5.3724 24 12C24 18.6272 18.6272 24 12 24Z" fill="white"/>
</svg>
