<svg width="32" height="32" viewBox="0 0 32 32" fill="none" xmlns="http://www.w3.org/2000/svg">
<path fill-rule="evenodd" clip-rule="evenodd" d="M16 32C24.8366 32 32 24.8366 32 16C32 7.16344 24.8366 0 16 0C7.16344 0 0 7.16344 0 16C0 24.8366 7.16344 32 16 32ZM16 18.1L25.55 9.925C25.4 9.825 25.2 9.75 25 9.75H7.00001C6.80001 9.75 6.60001 9.825 6.45001 9.925L16 18.1ZM6 10.875L15.35 18.85C15.725 19.175 16.275 19.175 16.65 18.85L26 10.85V21.25C26 21.8 25.55 22.25 25 22.25H7C6.45 22.25 6 21.8 6 21.25V10.875Z" fill="#FDD32F"/>
</svg>
