<svg width="32" height="32" viewBox="0 0 32 32" fill="none" xmlns="http://www.w3.org/2000/svg">
<path fill-rule="evenodd" clip-rule="evenodd" d="M18.2224 9.75093C16.8256 10.2592 15.9429 11.5701 16.0432 13.0048L16.0768 13.5584L15.5179 13.4907C13.4843 13.2309 11.7072 12.3499 10.1984 10.8693L9.4608 10.1349L9.27093 10.6773C8.8688 11.8864 9.12587 13.1632 9.96374 14.0219C10.4107 14.4965 10.3099 14.5643 9.5392 14.2816C9.27094 14.1915 9.03627 14.1237 9.01387 14.1573C8.936 14.2368 9.20373 15.2645 9.416 15.6715C9.70667 16.2368 10.2987 16.7899 10.9472 17.1179L11.4949 17.3776L10.8469 17.3888C10.2213 17.3888 10.1989 17.4 10.2661 17.6379C10.4896 18.3723 11.3723 19.152 12.3557 19.4912L13.0485 19.728L12.4453 20.0896C11.5515 20.6101 10.5008 20.9035 9.45013 20.9253C8.94666 20.9365 8.53333 20.9819 8.53333 21.016C8.53333 21.1285 9.89707 21.7611 10.6901 22.0101C13.0704 22.7445 15.8981 22.4277 18.0213 21.1739C19.5301 20.2811 21.0384 18.5072 21.7429 16.7893C22.1232 15.8747 22.5029 14.2021 22.5029 13.4005C22.5029 12.8805 22.5365 12.8128 23.1621 12.1915C23.5312 11.8299 23.8773 11.4347 23.9445 11.3216C24.0565 11.1067 24.0448 11.1067 23.4752 11.2987C22.5253 11.6379 22.3909 11.5925 22.8608 11.0843C23.2069 10.7227 23.6208 10.0672 23.6208 9.8752C23.6208 9.8416 23.4533 9.8976 23.2629 9.99947C23.0619 10.1125 22.6149 10.2821 22.2795 10.3835L21.6763 10.576L21.1285 10.2027C20.8267 9.99947 20.4027 9.77333 20.1787 9.7056C19.6085 9.54773 18.7365 9.57013 18.2224 9.75093ZM16 32C7.16373 32 0 24.8363 0 16C0 7.1632 7.16373 0 16 0C24.8363 0 32 7.1632 32 16C32 24.8363 24.8363 32 16 32Z" fill="#FDD32F"/>
</svg>
