<svg width="25" height="24" viewBox="0 0 25 24" fill="none" xmlns="http://www.w3.org/2000/svg">
<path d="M9.68182 4.33013C7.59091 4.72937 6.12121 6.26488 5.27273 8.93666C4.84848 10.2572 4.63636 11.5624 4.63636 12.8522C4.63636 13.0058 4.63636 13.144 4.63636 13.2668C4.66667 13.3589 4.69697 13.5893 4.72727 13.9578H9.68182V24H0V14.7409C0 10.1958 0.893939 6.69482 2.68182 4.238C4.4697 1.78119 6.80303 0.368522 9.68182 0V4.33013ZM25 4.33013C23.3333 4.60653 22.0606 5.55854 21.1818 7.18618C20.3333 8.81382 19.9091 10.6871 19.9091 12.8061C19.9091 12.9904 19.9091 13.1747 19.9091 13.3589C19.9394 13.5432 19.9848 13.7428 20.0455 13.9578H25V24H15.2727V14.7409C15.2727 11.0864 16.0303 7.83109 17.5455 4.97505C19.0606 2.08829 21.5455 0.429942 25 0V4.33013Z" fill="#FDD32F"/>
</svg>
