<?xml version="1.0" encoding="UTF-8"?> <svg xmlns="http://www.w3.org/2000/svg" xmlns:xlink="http://www.w3.org/1999/xlink" width="702px" height="79px" viewBox="0 0 702 79" version="1.1"><!-- Generator: Sketch 63.1 (92452) - https://sketch.com/ --><title>illu--insightquestions</title><desc>Created with Sketch.</desc><g id="Blog" stroke="none" stroke-width="1" fill="none" fill-rule="evenodd"><g id="Post" transform="translate(-301.000000, -1309.000000)"><g id="content" transform="translate(240.000000, 177.000000)"><g id="illu--insightquestions" transform="translate(62.000000, 1133.000000)"><path d="M8,0 L152,0 C156.418278,-8.11624501e-16 160,3.581722 160,8 L160,59 C160,63.418278 156.418278,67 152,67 L38,67 L38,67 L28.7071068,76.2928932 C28.3165825,76.6834175 27.6834175,76.6834175 27.2928932,76.2928932 L18,67 L18,67 L8,67 C3.581722,67 5.41083001e-16,63.418278 0,59 L0,8 C-5.41083001e-16,3.581722 3.581722,8.11624501e-16 8,0 Z" id="Rectangle" stroke="#D8A564" stroke-width="2"></path><path d="M73.316,36.528 L73.316,36.352 C73.316,35.696 73.54,35.168 74.228,34.528 C75.38,33.456 75.7,32.768 75.7,31.76 C75.7,30.512 74.932,28.816 72.308,28.816 C69.652,28.8 68.804,30.624 68.724,31.968 L70.98,31.968 C71.06,31.2 71.364,30.576 72.276,30.576 C73.044,30.576 73.396,31.072 73.396,31.68 C73.396,32.24 73.188,32.72 72.532,33.312 C71.348,34.368 70.916,35.168 70.916,36.224 L70.916,36.528 L73.316,36.528 Z M73.316,40 L73.316,37.344 L70.916,37.344 L70.916,40 L73.316,40 Z M81.732,36.528 L81.732,36.352 C81.732,35.696 81.956,35.168 82.644,34.528 C83.796,33.456 84.116,32.768 84.116,31.76 C84.116,30.512 83.348,28.816 80.724,28.816 C78.068,28.8 77.22,30.624 77.14,31.968 L79.396,31.968 C79.476,31.2 79.78,30.576 80.692,30.576 C81.46,30.576 81.812,31.072 81.812,31.68 C81.812,32.24 81.604,32.72 80.948,33.312 C79.764,34.368 79.332,35.168 79.332,36.224 L79.332,36.528 L81.732,36.528 Z M81.732,40 L81.732,37.344 L79.332,37.344 L79.332,40 L81.732,40 Z M90.148,36.528 L90.148,36.352 C90.148,35.696 90.372,35.168 91.06,34.528 C92.212,33.456 92.532,32.768 92.532,31.76 C92.532,30.512 91.764,28.816 89.14,28.816 C86.484,28.8 85.636,30.624 85.556,31.968 L87.812,31.968 C87.892,31.2 88.196,30.576 89.108,30.576 C89.876,30.576 90.228,31.072 90.228,31.68 C90.228,32.24 90.02,32.72 89.364,33.312 C88.18,34.368 87.748,35.168 87.748,36.224 L87.748,36.528 L90.148,36.528 Z M90.148,40 L90.148,37.344 L87.748,37.344 L87.748,40 L90.148,40 Z" id="???" fill="#203A4B" fill-rule="nonzero"></path><path d="M188,0 L332,0 C336.418278,-8.11624501e-16 340,3.581722 340,8 L340,59 C340,63.418278 336.418278,67 332,67 L218,67 L218,67 L208.707107,76.2928932 C208.316582,76.6834175 207.683418,76.6834175 207.292893,76.2928932 L198,67 L198,67 L188,67 C183.581722,67 180,63.418278 180,59 L180,8 C180,3.581722 183.581722,8.11624501e-16 188,0 Z" id="Rectangle" stroke="#D8A564" stroke-width="2"></path><path d="M253.316,36.528 L253.316,36.352 C253.316,35.696 253.54,35.168 254.228,34.528 C255.38,33.456 255.7,32.768 255.7,31.76 C255.7,30.512 254.932,28.816 252.308,28.816 C249.652,28.8 248.804,30.624 248.724,31.968 L250.98,31.968 C251.06,31.2 251.364,30.576 252.276,30.576 C253.044,30.576 253.396,31.072 253.396,31.68 C253.396,32.24 253.188,32.72 252.532,33.312 C251.348,34.368 250.916,35.168 250.916,36.224 L250.916,36.528 L253.316,36.528 Z M253.316,40 L253.316,37.344 L250.916,37.344 L250.916,40 L253.316,40 Z M261.732,36.528 L261.732,36.352 C261.732,35.696 261.956,35.168 262.644,34.528 C263.796,33.456 264.116,32.768 264.116,31.76 C264.116,30.512 263.348,28.816 260.724,28.816 C258.068,28.8 257.22,30.624 257.14,31.968 L259.396,31.968 C259.476,31.2 259.78,30.576 260.692,30.576 C261.46,30.576 261.812,31.072 261.812,31.68 C261.812,32.24 261.604,32.72 260.948,33.312 C259.764,34.368 259.332,35.168 259.332,36.224 L259.332,36.528 L261.732,36.528 Z M261.732,40 L261.732,37.344 L259.332,37.344 L259.332,40 L261.732,40 Z M270.148,36.528 L270.148,36.352 C270.148,35.696 270.372,35.168 271.06,34.528 C272.212,33.456 272.532,32.768 272.532,31.76 C272.532,30.512 271.764,28.816 269.14,28.816 C266.484,28.8 265.636,30.624 265.556,31.968 L267.812,31.968 C267.892,31.2 268.196,30.576 269.108,30.576 C269.876,30.576 270.228,31.072 270.228,31.68 C270.228,32.24 270.02,32.72 269.364,33.312 C268.18,34.368 267.748,35.168 267.748,36.224 L267.748,36.528 L270.148,36.528 Z M270.148,40 L270.148,37.344 L267.748,37.344 L267.748,40 L270.148,40 Z" id="???" fill="#203A4B" fill-rule="nonzero"></path><path d="M368,0 L512,0 C516.418278,-8.11624501e-16 520,3.581722 520,8 L520,59 C520,63.418278 516.418278,67 512,67 L398,67 L398,67 L388.707107,76.2928932 C388.316582,76.6834175 387.683418,76.6834175 387.292893,76.2928932 L378,67 L378,67 L368,67 C363.581722,67 360,63.418278 360,59 L360,8 C360,3.581722 363.581722,8.11624501e-16 368,0 Z" id="Rectangle" stroke="#D8A564" stroke-width="2"></path><path d="M433.316,36.528 L433.316,36.352 C433.316,35.696 433.54,35.168 434.228,34.528 C435.38,33.456 435.7,32.768 435.7,31.76 C435.7,30.512 434.932,28.816 432.308,28.816 C429.652,28.8 428.804,30.624 428.724,31.968 L430.98,31.968 C431.06,31.2 431.364,30.576 432.276,30.576 C433.044,30.576 433.396,31.072 433.396,31.68 C433.396,32.24 433.188,32.72 432.532,33.312 C431.348,34.368 430.916,35.168 430.916,36.224 L430.916,36.528 L433.316,36.528 Z M433.316,40 L433.316,37.344 L430.916,37.344 L430.916,40 L433.316,40 Z M441.732,36.528 L441.732,36.352 C441.732,35.696 441.956,35.168 442.644,34.528 C443.796,33.456 444.116,32.768 444.116,31.76 C444.116,30.512 443.348,28.816 440.724,28.816 C438.068,28.8 437.22,30.624 437.14,31.968 L439.396,31.968 C439.476,31.2 439.78,30.576 440.692,30.576 C441.46,30.576 441.812,31.072 441.812,31.68 C441.812,32.24 441.604,32.72 440.948,33.312 C439.764,34.368 439.332,35.168 439.332,36.224 L439.332,36.528 L441.732,36.528 Z M441.732,40 L441.732,37.344 L439.332,37.344 L439.332,40 L441.732,40 Z M450.148,36.528 L450.148,36.352 C450.148,35.696 450.372,35.168 451.06,34.528 C452.212,33.456 452.532,32.768 452.532,31.76 C452.532,30.512 451.764,28.816 449.14,28.816 C446.484,28.8 445.636,30.624 445.556,31.968 L447.812,31.968 C447.892,31.2 448.196,30.576 449.108,30.576 C449.876,30.576 450.228,31.072 450.228,31.68 C450.228,32.24 450.02,32.72 449.364,33.312 C448.18,34.368 447.748,35.168 447.748,36.224 L447.748,36.528 L450.148,36.528 Z M450.148,40 L450.148,37.344 L447.748,37.344 L447.748,40 L450.148,40 Z" id="???" fill="#203A4B" fill-rule="nonzero"></path><path d="M548,0 L692,0 C696.418278,-8.11624501e-16 700,3.581722 700,8 L700,59 C700,63.418278 696.418278,67 692,67 L578,67 L578,67 L568.707107,76.2928932 C568.316582,76.6834175 567.683418,76.6834175 567.292893,76.2928932 L558,67 L558,67 L548,67 C543.581722,67 540,63.418278 540,59 L540,8 C540,3.581722 543.581722,8.11624501e-16 548,0 Z" id="Rectangle" stroke="#D8A564" stroke-width="2"></path><path d="M613.316,36.528 L613.316,36.352 C613.316,35.696 613.54,35.168 614.228,34.528 C615.38,33.456 615.7,32.768 615.7,31.76 C615.7,30.512 614.932,28.816 612.308,28.816 C609.652,28.8 608.804,30.624 608.724,31.968 L610.98,31.968 C611.06,31.2 611.364,30.576 612.276,30.576 C613.044,30.576 613.396,31.072 613.396,31.68 C613.396,32.24 613.188,32.72 612.532,33.312 C611.348,34.368 610.916,35.168 610.916,36.224 L610.916,36.528 L613.316,36.528 Z M613.316,40 L613.316,37.344 L610.916,37.344 L610.916,40 L613.316,40 Z M621.732,36.528 L621.732,36.352 C621.732,35.696 621.956,35.168 622.644,34.528 C623.796,33.456 624.116,32.768 624.116,31.76 C624.116,30.512 623.348,28.816 620.724,28.816 C618.068,28.8 617.22,30.624 617.14,31.968 L619.396,31.968 C619.476,31.2 619.78,30.576 620.692,30.576 C621.46,30.576 621.812,31.072 621.812,31.68 C621.812,32.24 621.604,32.72 620.948,33.312 C619.764,34.368 619.332,35.168 619.332,36.224 L619.332,36.528 L621.732,36.528 Z M621.732,40 L621.732,37.344 L619.332,37.344 L619.332,40 L621.732,40 Z M630.148,36.528 L630.148,36.352 C630.148,35.696 630.372,35.168 631.06,34.528 C632.212,33.456 632.532,32.768 632.532,31.76 C632.532,30.512 631.764,28.816 629.14,28.816 C626.484,28.8 625.636,30.624 625.556,31.968 L627.812,31.968 C627.892,31.2 628.196,30.576 629.108,30.576 C629.876,30.576 630.228,31.072 630.228,31.68 C630.228,32.24 630.02,32.72 629.364,33.312 C628.18,34.368 627.748,35.168 627.748,36.224 L627.748,36.528 L630.148,36.528 Z M630.148,40 L630.148,37.344 L627.748,37.344 L627.748,40 L630.148,40 Z" id="???" fill="#203A4B" fill-rule="nonzero"></path></g></g></g></g></svg> 