<?xml version="1.0" encoding="UTF-8"?> <svg xmlns="http://www.w3.org/2000/svg" xmlns:xlink="http://www.w3.org/1999/xlink" width="637px" height="378px" viewBox="0 0 637 378" version="1.1"><!-- Generator: Sketch 63.1 (92452) - https://sketch.com/ --><title>illu--researchproductgap</title><desc>Created with Sketch.</desc><g id="Blog" stroke="none" stroke-width="1" fill="none" fill-rule="evenodd"><g id="Post" transform="translate(-306.000000, -2108.000000)"><g id="illu--researchproductgap" transform="translate(302.000000, 2101.000000)"><path d="M12.627399,32 L141.372601,32 C145.790879,32 149.372601,35.581722 149.372601,40 C149.372601,41.1817553 149.110787,42.3488337 148.605979,43.417344 L94.7666218,157.377317 C94.2618138,158.445827 94,159.612906 94,160.794661 L94,177 C94,181.418278 90.418278,185 86,185 L68,185 C63.581722,185 60,181.418278 60,177 L60,160.794661 C60,159.612906 59.7381862,158.445827 59.2333782,157.377317 L5.3940208,43.417344 C3.50667381,39.4224596 5.2151705,34.6539688 9.21005495,32.7666218 C10.2785653,32.2618138 11.4456437,32 12.627399,32 Z" id="Rectangle" fill="#ECECEC"></path><rect id="Rectangle" fill="#ECECEC" x="487" y="271" width="154" height="86" rx="8"></rect><path d="M45.656,19 L45.656,14.584 L47.224,14.584 C49,14.584 49.304,15.16 49.304,16.36 L49.304,16.52 C49.304,17.688 49.336,18.52 49.528,19 L51.8,19 C51.64,18.488 51.64,17.64 51.64,16.904 L51.64,16.36 C51.64,14.376 50.808,13.816 50.264,13.608 C51.064,13.272 51.864,12.472 51.864,11 C51.864,9.288 50.568,7.976 48.168,7.976 L43.32,7.976 L43.32,19 L45.656,19 Z M47.656,12.68 L45.656,12.68 L45.656,9.864 L47.704,9.864 C48.872,9.864 49.464,10.376 49.464,11.272 C49.464,12.184 48.952,12.68 47.656,12.68 Z M57.064,19.192 C59.656,19.192 60.568,17.528 60.856,16.52 L58.568,16.52 C58.344,17.016 58.072,17.4 57.112,17.4 C55.976,17.4 55.448,16.392 55.448,15.352 L60.92,15.352 C60.952,15.112 60.952,14.936 60.952,14.648 C60.952,12.584 59.976,10.52 57.144,10.52 C54.472,10.52 53.144,12.376 53.144,14.984 C53.144,17.16 54.328,19.192 57.064,19.192 Z M58.648,13.944 L55.496,13.944 C55.592,12.92 56.04,12.168 57.128,12.168 C58.248,12.168 58.632,12.984 58.648,13.944 Z M65.688,19.192 C68.2,19.192 69.256,17.944 69.256,16.568 C69.256,15.3912258 68.8813902,14.4691863 66.3485447,13.8308834 L66.088,13.768 C64.744,13.448 64.488,13.256 64.488,12.84 C64.488,12.472 64.744,12.136 65.496,12.136 C66.568,12.136 66.776,12.712 66.856,13.016 L69.032,13.016 C68.968,11.896 68.104,10.52 65.592,10.52 C63.096,10.52 62.248,11.816 62.248,13.032 C62.248,14.2 62.68,15.032 65.384,15.704 C66.568,15.992 66.92,16.2 66.92,16.728 C66.92,17.24 66.616,17.544 65.768,17.544 C64.92,17.544 64.376,17.176 64.2,16.504 L61.944,16.504 C62.136,17.976 63.16,19.192 65.688,19.192 Z M74.2,19.192 C76.792,19.192 77.704,17.528 77.992,16.52 L75.704,16.52 C75.48,17.016 75.208,17.4 74.248,17.4 C73.112,17.4 72.584,16.392 72.584,15.352 L78.056,15.352 C78.088,15.112 78.088,14.936 78.088,14.648 C78.088,12.584 77.112,10.52 74.28,10.52 C71.608,10.52 70.28,12.376 70.28,14.984 C70.28,17.16 71.464,19.192 74.2,19.192 Z M75.784,13.944 L72.632,13.944 C72.728,12.92 73.176,12.168 74.264,12.168 C75.384,12.168 75.768,12.984 75.784,13.944 Z M81.992,19.192 C83.464,19.192 84.024,18.648 84.328,18.184 C84.328,18.392 84.376,18.84 84.44,19 L86.632,19 C86.584,18.808 86.52,17.656 86.52,16.856 L86.52,13.384 C86.52,11.4 85.304,10.536 83.096,10.52 C80.568,10.52 79.656,11.704 79.544,13.176 L81.72,13.176 C81.816,12.568 82.04,12.168 83,12.168 C84.072,12.168 84.28,12.744 84.28,13.336 L84.28,13.832 L83.096,13.832 C80.664,13.832 79.16,14.712 79.16,16.6 C79.16,17.88 79.992,19.192 81.992,19.192 Z M82.648,17.56 C81.816,17.56 81.448,17.048 81.448,16.456 C81.448,15.656 81.96,15.224 83.352,15.224 L84.28,15.224 L84.28,15.448 C84.28,16.536 84.104,17.56 82.648,17.56 Z M90.888,19 L90.888,15.384 C90.888,13.112 91.88,12.664 93.544,12.712 L93.544,10.52 C92.136,10.536 91.256,11.224 90.888,12.168 C90.888,11.72 90.856,10.904 90.824,10.712 L88.568,10.712 C88.584,11.416 88.584,12.136 88.584,12.968 L88.584,19 L90.888,19 Z M98.344,19.192 C100.808,19.192 101.784,17.704 102.056,16.328 L99.816,16.328 C99.608,16.952 99.192,17.416 98.392,17.416 C97.4,17.416 96.76,16.616 96.76,14.84 C96.76,13.24 97.352,12.328 98.408,12.328 C99.304,12.328 99.688,12.792 99.832,13.464 L102.056,13.464 C102.024,12.536 101.24,10.52 98.456,10.52 C95.928,10.52 94.44,12.472 94.44,14.92 C94.44,17.416 95.768,19.192 98.344,19.192 Z M105.816,19 L105.816,14.6 C105.816,13.336 106.056,12.376 107.336,12.376 C108.296,12.376 108.68,12.952 108.68,14.024 L108.68,19 L110.952,19 L110.952,13.688 C110.952,11.448 109.72,10.52 108.184,10.52 C106.84,10.52 106.168,11.16 105.816,11.704 L105.816,7.32 L103.512,7.32 L103.512,19 L105.816,19 Z" id="Research" fill="#203A4B" fill-rule="nonzero"></path><path d="M537.968,384 L537.968,379.888 L540.096,379.888 C542.272,379.888 544.08,378.784 544.08,376.384 C544.08,374.288 542.496,372.976 540.144,372.976 L535.584,372.976 L535.584,384 L537.968,384 Z M539.792,377.984 L537.968,377.984 L537.968,374.864 L539.84,374.864 C540.848,374.864 541.68,375.296 541.68,376.432 C541.68,377.552 540.896,377.984 539.792,377.984 Z M548.048,384 L548.048,380.384 C548.048,378.112 549.04,377.664 550.704,377.712 L550.704,375.52 C549.296,375.536 548.416,376.224 548.048,377.168 C548.048,376.72 548.016,375.904 547.984,375.712 L545.728,375.712 C545.744,376.416 545.744,377.136 545.744,377.968 L545.744,384 L548.048,384 Z M555.632,384.192 C558.256,384.192 559.76,382.352 559.76,379.84 C559.76,377.248 558.176,375.52 555.744,375.52 C553.12,375.52 551.568,377.328 551.568,379.888 C551.568,382.352 553.072,384.192 555.632,384.192 Z M555.68,382.4 C554.576,382.4 553.888,381.456 553.888,379.856 C553.888,378.112 554.592,377.328 555.648,377.328 C556.8,377.328 557.44,378.144 557.44,379.872 C557.44,381.456 556.816,382.4 555.68,382.4 Z M564.288,384.192 C565.52,384.192 566.24,383.792 566.64,383.136 C566.656,383.328 566.704,383.744 566.752,384 L568.944,384 C568.933333,383.498667 568.929778,382.990222 568.928593,382.484148 L568.928,372.32 L566.64,372.32 L566.64,376.32 C566.464,375.952 565.824,375.52 564.624,375.52 C562.272,375.52 560.864,377.376 560.864,379.92 C560.864,382.512 562.192,384.192 564.288,384.192 Z M564.976,382.352 C563.84,382.352 563.216,381.488 563.216,379.872 C563.216,378.304 563.824,377.36 565.024,377.36 C566.528,377.36 566.736,378.432 566.736,379.856 C566.736,381.04 566.544,382.352 564.976,382.352 Z M573.68,384.192 C574.752,384.192 575.472,383.872 575.968,383.04 C575.984,383.328 576,383.776 576.032,384 L578.272,384 C578.2592,383.4112 578.25664,382.73024 578.256128,382.08 L578.256,375.712 L575.968,375.712 L575.968,380.128 C575.968,381.76 575.536,382.32 574.496,382.32 C573.504,382.32 573.216,381.568 573.216,380.656 L573.216,375.712 L570.928,375.712 L570.928,381.12 C570.928,383.168 572,384.192 573.68,384.192 Z M583.776,384.192 C586.24,384.192 587.216,382.704 587.488,381.328 L585.248,381.328 C585.04,381.952 584.624,382.416 583.824,382.416 C582.832,382.416 582.192,381.616 582.192,379.84 C582.192,378.24 582.784,377.328 583.84,377.328 C584.736,377.328 585.12,377.792 585.264,378.464 L587.488,378.464 C587.456,377.536 586.672,375.52 583.888,375.52 C581.36,375.52 579.872,377.472 579.872,379.92 C579.872,382.416 581.2,384.192 583.776,384.192 Z M593.104,383.952 L593.104,382.384 C592.944,382.4 592.72,382.4 592.592,382.4 C591.904,382.4 591.712,382.16 591.712,381.536 L591.712,377.44 L593.344,377.44 L593.344,375.712 L591.712,375.712 L591.712,373.472 L589.424,373.472 L589.424,375.712 L588.144,375.712 L588.144,377.44 L589.424,377.44 L589.424,381.792 C589.424,383.248 589.952,384.112 591.568,384.112 C592.032,384.112 592.656,384.112 593.104,383.952 Z" id="Product" fill="#203A4B" fill-rule="nonzero"></path><line x1="329" y1="238.25" x2="61" y2="218.25" id="Line-3" stroke="#203A4B" stroke-width="2" stroke-linecap="square"></line><line x1="503.068449" y1="251.781228" x2="372" y2="242" id="Line-3" stroke="#203A4B" stroke-width="2" stroke-linecap="square"></line><circle id="Oval" fill="#D8A564" cx="76.5" cy="166.5" r="11.5"></circle><circle id="Oval" fill="#D8A564" cx="85.5" cy="143.5" r="11.5"></circle><circle id="Oval" fill="#D8A564" cx="62.5" cy="131.5" r="11.5"></circle><circle id="Oval" fill="#D8A564" cx="95.5" cy="119.5" r="11.5"></circle><circle id="Oval" fill="#D8A564" cx="49.5" cy="107.5" r="11.5"></circle><circle id="Oval" fill="#D8A564" cx="74.5" cy="105.5" r="11.5"></circle><circle id="Oval" fill="#D8A564" cx="107.5" cy="96.5" r="11.5"></circle><circle id="Oval" fill="#D8A564" cx="85.5" cy="82.5" r="11.5"></circle><circle id="Oval" fill="#D8A564" cx="58.5" cy="83.5" r="11.5"></circle><circle id="Oval" fill="#D8A564" cx="35.5" cy="74.5" r="11.5"></circle><circle id="Oval" fill="#D8A564" cx="55.5" cy="58.5" r="11.5"></circle><circle id="Oval" fill="#D8A564" cx="23.5" cy="49.5" r="11.5"></circle><circle id="Oval" fill="#D8A564" cx="119.5" cy="72.5" r="11.5"></circle><circle id="Oval" fill="#D8A564" cx="98.5" cy="60.5" r="11.5"></circle><circle id="Oval" fill="#D8A564" cx="123.5" cy="47.5" r="11.5"></circle><circle id="Oval" fill="#D8A564" cx="77.5" cy="46.5" r="11.5"></circle><circle id="Oval" fill="#D8A564" cx="76.5" cy="206.5" r="11.5"></circle><circle id="Oval" fill="#D8A564" cx="139.5" cy="211.5" r="11.5"></circle><circle id="Oval" fill="#D8A564" cx="266.5" cy="221.5" r="11.5"></circle><circle id="Oval" fill="#D8A564" cx="330.5" cy="226.5" r="11.5"></circle><circle id="Oval" fill="#D8A564" cx="353.5" cy="282.5" r="11.5"></circle><circle id="Oval" fill="#D8A564" cx="353.5" cy="338.5" r="11.5"></circle><circle id="Oval" fill="#D8A564" cx="203.5" cy="216.5" r="11.5"></circle></g></g></g></svg> 