<?xml version="1.0" encoding="UTF-8"?> <svg xmlns="http://www.w3.org/2000/svg" xmlns:xlink="http://www.w3.org/1999/xlink" width="640px" height="347px" viewBox="0 0 640 347" version="1.1"><!-- Generator: Sketch 63.1 (92452) - https://sketch.com/ --><title>illu--condensinglearning</title><desc>Created with Sketch.</desc><g id="Blog" stroke="none" stroke-width="1" fill="none" fill-rule="evenodd"><g id="Post" transform="translate(-302.000000, -3712.000000)"><g id="illu--condensinglearning" transform="translate(302.000000, 3712.000000)"><g id="left"><circle id="Oval" fill="#ECECEC" cx="54.5" cy="54.5" r="54.5"></circle><circle id="Oval" fill="#ECECEC" cx="54.5" cy="173.5" r="54.5"></circle><circle id="Oval" fill="#ECECEC" cx="585.5" cy="173.5" r="54.5"></circle><circle id="Oval" fill="#ECECEC" cx="54.5" cy="292.5" r="54.5"></circle><circle id="Oval" fill="#D8A564" cx="38.5" cy="38.5" r="17.5"></circle><circle id="Oval" fill="#D8A564" cx="76.5" cy="50.5" r="17.5"></circle><circle id="Oval" fill="#D8A564" cx="45.5" cy="76.5" r="17.5"></circle><circle id="Oval" fill="#D8A564" cx="73.5" cy="177.5" r="17.5"></circle><circle id="Oval" fill="#D8A564" cx="44.5" cy="152.5" r="17.5"></circle><circle id="Oval" fill="#D8A564" cx="38.5" cy="190.5" r="17.5"></circle><circle id="Oval" fill="#D8A564" cx="53.5" cy="274.5" r="17.5"></circle><circle id="Oval" fill="#D8A564" cx="77.5" cy="304.5" r="17.5"></circle><circle id="Oval" fill="#D8A564" cx="38.5" cy="309.5" r="17.5"></circle></g><g id="Group" transform="translate(113.500000, 0.000000)"><rect id="Rectangle" fill="#ECECEC" x="152.5" y="0" width="108" height="347" rx="54"></rect><circle id="Oval" fill="#D8A564" cx="206" cy="173.5" r="17.5"></circle><circle id="Oval" fill="#D8A564" cx="472.5" cy="174" r="36"></circle><circle id="Oval" fill="#D8A564" cx="206" cy="292.5" r="17.5"></circle><circle id="Oval" fill="#D8A564" cx="206" cy="54.5" r="17.5"></circle><path id="Line-4" d="M-0.187563143,71.8182229 L0.247106998,72.0653299 L138.858,150.864 L140.834571,147.38715 L146.43467,155.747107 L136.386645,155.211212 L138.363,151.733 L-0.247106998,72.9346701 L-0.681777139,72.6875631 L-0.187563143,71.8182229 Z" fill="#203A4B" fill-rule="nonzero"></path><path id="Line-4" d="M146.43467,188.252893 L140.834571,196.61285 L138.858,193.135 L0.247106998,271.93467 L-0.187563143,272.181777 L-0.681777139,271.312437 L-0.247106998,271.06533 L138.363,192.266 L136.386645,188.788788 L146.43467,188.252893 Z" fill="#203A4B" fill-rule="nonzero"></path><path id="Line-4" d="M137.5,167.5 L146.5,172 L137.5,176.5 L137.5,172.5 L0,172.5 L0,171.5 L137.5,171.5 L137.5,167.5 Z" fill="#203A4B" fill-rule="nonzero"></path><path id="Line-4" d="M403.5,167.5 L412.5,172 L403.5,176.5 L403.5,172.5 L266,172.5 L266,171.5 L403.5,171.5 L403.5,167.5 Z" fill="#203A4B" fill-rule="nonzero"></path></g></g></g></g></svg> 