<?xml version="1.0" encoding="UTF-8"?> <svg xmlns="http://www.w3.org/2000/svg" xmlns:xlink="http://www.w3.org/1999/xlink" width="640px" height="253px" viewBox="0 0 640 253" version="1.1"><!-- Generator: Sketch 63.1 (92452) - https://sketch.com/ --><title>illu--blockage</title><desc>Created with Sketch.</desc><g id="Blog" stroke="none" stroke-width="1" fill="none" fill-rule="evenodd"><g id="Post" transform="translate(-302.000000, -3478.000000)"><g id="illu--blockage" transform="translate(302.000000, 3469.000000)"><path d="M8,38 L323.455583,38 C325.111005,38 326.725661,38.5135447 328.076934,39.4698303 L453.923066,128.53017 C455.274339,129.486455 456.888995,130 458.544417,130 L632,130 C636.418278,130 640,133.581722 640,138 L640,162 C640,166.418278 636.418278,170 632,170 L458.544417,170 C456.888995,170 455.274339,170.513545 453.923066,171.46983 L328.076934,260.53017 C326.725661,261.486455 325.111005,262 323.455583,262 L8,262 C3.581722,262 5.41083001e-16,258.418278 0,254 L0,230 C-5.41083001e-16,225.581722 3.581722,222 8,222 L303.577795,222 C305.157195,222 306.701256,221.532496 308.015396,220.656402 L373.007698,177.328201 C374.845813,176.102791 375.342508,173.619314 374.117099,171.781199 C373.375236,170.668405 372.12631,170 370.788897,170 L8,170 C3.581722,170 5.41083001e-16,166.418278 0,162 L0,138 C-5.41083001e-16,133.581722 3.581722,130 8,130 L370.788897,130 C372.998036,130 374.788897,128.209139 374.788897,126 C374.788897,124.662587 374.120493,123.413662 373.007698,122.671799 L308.015396,79.3435976 C306.701256,78.4675042 305.157195,78 303.577795,78 L8,78 C3.581722,78 5.41083001e-16,74.418278 0,70 L0,46 C-5.41083001e-16,41.581722 3.581722,38 8,38 Z" id="Path-3" fill="#ECECEC"></path><circle id="Oval" fill="#D8A564" cx="421.5" cy="131.5" r="17.5"></circle><circle id="Oval" fill="#D8A564" cx="421.5" cy="168.5" r="17.5"></circle><circle id="Oval" fill="#D8A564" cx="373.5" cy="202.5" r="17.5"></circle><circle id="Oval" fill="#D8A564" cx="373.5" cy="98.5" r="17.5"></circle><circle id="Oval" fill="#D8A564" cx="322.5" cy="237.5" r="17.5"></circle><circle id="Oval" fill="#D8A564" cx="322.5" cy="62.5" r="17.5"></circle><circle id="Oval" fill="#D8A564" cx="263.5" cy="58.5" r="17.5"></circle><circle id="Oval" fill="#D8A564" cx="204.5" cy="58.5" r="17.5"></circle><circle id="Oval" fill="#D8A564" cx="145.5" cy="58.5" r="17.5"></circle><circle id="Oval" fill="#D8A564" cx="86.5" cy="58.5" r="17.5"></circle><circle id="Oval" fill="#D8A564" cx="27.5" cy="58.5" r="17.5"></circle><circle id="Oval" fill="#D8A564" cx="263.5" cy="241.5" r="17.5"></circle><circle id="Oval" fill="#D8A564" cx="204.5" cy="241.5" r="17.5"></circle><circle id="Oval" fill="#D8A564" cx="145.5" cy="241.5" r="17.5"></circle><circle id="Oval" fill="#D8A564" cx="86.5" cy="241.5" r="17.5"></circle><circle id="Oval" fill="#D8A564" cx="27.5" cy="241.5" r="17.5"></circle><circle id="Oval" fill="#D8A564" cx="389.5" cy="149.5" r="17.5"></circle><circle id="Oval" fill="#D8A564" cx="330.5" cy="149.5" r="17.5"></circle><circle id="Oval" fill="#D8A564" cx="271.5" cy="149.5" r="17.5"></circle><circle id="Oval" fill="#D8A564" cx="212.5" cy="149.5" r="17.5"></circle><circle id="Oval" fill="#D8A564" cx="153.5" cy="149.5" r="17.5"></circle><circle id="Oval" fill="#D8A564" cx="94.5" cy="149.5" r="17.5"></circle><circle id="Oval" fill="#D8A564" cx="35.5" cy="149.5" r="17.5"></circle><path d="M5.584,21 C8.96,21 11.008,18.568 11.008,15.352 C11.008,12.088 8.896,9.976 5.696,9.976 L1.312,9.976 L1.312,21 L5.584,21 Z M5.488,19.08 L3.696,19.08 L3.696,11.896 L5.504,11.896 C7.664,11.896 8.544,13.544 8.544,15.352 C8.544,17.496 7.6,19.08 5.488,19.08 Z M16.24,21.192 C18.832,21.192 19.744,19.528 20.032,18.52 L17.744,18.52 C17.52,19.016 17.248,19.4 16.288,19.4 C15.152,19.4 14.624,18.392 14.624,17.352 L20.096,17.352 C20.128,17.112 20.128,16.936 20.128,16.648 C20.128,14.584 19.152,12.52 16.32,12.52 C13.648,12.52 12.32,14.376 12.32,16.984 C12.32,19.16 13.504,21.192 16.24,21.192 Z M17.824,15.944 L14.672,15.944 C14.768,14.92 15.216,14.168 16.304,14.168 C17.424,14.168 17.808,14.984 17.824,15.944 Z M24.864,21.192 C27.376,21.192 28.432,19.944 28.432,18.568 C28.432,17.352 28.032,16.408 25.264,15.768 C23.92,15.448 23.664,15.256 23.664,14.84 C23.664,14.472 23.92,14.136 24.672,14.136 C25.744,14.136 25.952,14.712 26.032,15.016 L28.208,15.016 C28.144,13.896 27.28,12.52 24.768,12.52 C22.272,12.52 21.424,13.816 21.424,15.032 C21.424,16.2 21.856,17.032 24.56,17.704 C25.744,17.992 26.096,18.2 26.096,18.728 C26.096,19.24 25.792,19.544 24.944,19.544 C24.096,19.544 23.552,19.176 23.376,18.504 L21.12,18.504 C21.312,19.976 22.336,21.192 24.864,21.192 Z M32.24,11.368 L32.24,9.32 L29.936,9.32 L29.936,11.368 L32.24,11.368 Z M32.24,21 L32.24,12.712 L29.936,12.712 L29.936,21 L32.24,21 Z M37.712,24.328 C40.848,24.328 41.824,22.648 41.824,19.992 L41.824,15.096 C41.824,14.296 41.84,13.464 41.84,12.712 L39.68,12.712 C39.664,12.856 39.6,13.352 39.584,13.576 C39.456,13.192 38.864,12.52 37.44,12.52 C35.376,12.52 33.824,14.296 33.824,16.888 C33.824,19.112 35.072,20.904 37.248,20.904 C38.464,20.904 39.152,20.456 39.584,19.736 L39.584,20.136 C39.584,21.752 39.296,22.664 37.808,22.664 C36.928,22.664 36.512,22.28 36.352,21.704 L34.016,21.704 C34.096,22.648 34.688,24.328 37.712,24.328 Z M37.904,19.048 C36.896,19.048 36.176,18.216 36.176,16.792 C36.176,15.128 36.96,14.36 37.952,14.36 C39.408,14.36 39.648,15.32 39.648,16.712 C39.648,18.104 39.28,19.048 37.904,19.048 Z M46.176,21 L46.176,16.392 C46.176,14.92 46.72,14.376 47.696,14.376 C48.72,14.376 49.024,15.048 49.024,15.992 L49.024,21 L51.312,21 L51.312,15.736 C51.312,13.656 50.24,12.52 48.576,12.52 C47.12,12.52 46.448,13.256 46.176,13.768 C46.16,13.512 46.128,12.936 46.08,12.712 L43.856,12.712 C43.8688,13.2112 43.87136,13.80256 43.871872,14.379584 L43.872,21 L46.176,21 Z" id="Design" fill="#203A4B" fill-rule="nonzero"></path><path d="M5.584,206 C8.96,206 11.008,203.568 11.008,200.352 C11.008,197.088 8.896,194.976 5.696,194.976 L1.312,194.976 L1.312,206 L5.584,206 Z M5.488,204.08 L3.696,204.08 L3.696,196.896 L5.504,196.896 C7.664,196.896 8.544,198.544 8.544,200.352 C8.544,202.496 7.6,204.08 5.488,204.08 Z M16.24,206.192 C18.832,206.192 19.744,204.528 20.032,203.52 L17.744,203.52 C17.52,204.016 17.248,204.4 16.288,204.4 C15.152,204.4 14.624,203.392 14.624,202.352 L20.096,202.352 C20.128,202.112 20.128,201.936 20.128,201.648 C20.128,199.584 19.152,197.52 16.32,197.52 C13.648,197.52 12.32,199.376 12.32,201.984 C12.32,204.16 13.504,206.192 16.24,206.192 Z M17.824,200.944 L14.672,200.944 C14.768,199.92 15.216,199.168 16.304,199.168 C17.424,199.168 17.808,199.984 17.824,200.944 Z M25.968,206 L28.896,197.712 L26.608,197.712 C25.888,200.112 25.088,202.608 24.848,203.968 L24.832,203.968 C24.672,202.976 24.016,200.528 23.232,197.712 L20.752,197.712 L23.568,206 L25.968,206 Z M33.456,206.192 C36.048,206.192 36.96,204.528 37.248,203.52 L34.96,203.52 C34.736,204.016 34.464,204.4 33.504,204.4 C32.368,204.4 31.84,203.392 31.84,202.352 L37.312,202.352 C37.344,202.112 37.344,201.936 37.344,201.648 C37.344,199.584 36.368,197.52 33.536,197.52 C30.864,197.52 29.536,199.376 29.536,201.984 C29.536,204.16 30.72,206.192 33.456,206.192 Z M35.04,200.944 L31.888,200.944 C31.984,199.92 32.432,199.168 33.52,199.168 C34.64,199.168 35.024,199.984 35.04,200.944 Z M41.2,206 L41.2,194.32 L38.896,194.32 L38.896,206 L41.2,206 Z M46.832,206.192 C49.456,206.192 50.96,204.352 50.96,201.84 C50.96,199.248 49.376,197.52 46.944,197.52 C44.32,197.52 42.768,199.328 42.768,201.888 C42.768,204.352 44.272,206.192 46.832,206.192 Z M46.88,204.4 C45.776,204.4 45.088,203.456 45.088,201.856 C45.088,200.112 45.792,199.328 46.848,199.328 C48,199.328 48.64,200.144 48.64,201.872 C48.64,203.456 48.016,204.4 46.88,204.4 Z M54.816,209.168 L54.816,205.264 C55.136,205.744 55.744,206.192 56.912,206.192 C58.912,206.192 60.512,204.576 60.512,201.648 C60.512,199.088 59.088,197.52 57.216,197.52 C55.904,197.52 55.168,198.144 54.816,198.752 C54.816,198.448 54.768,197.936 54.736,197.712 L52.512,197.712 C52.528,198.384 52.528,199.04 52.528,199.712 L52.528,209.168 L54.816,209.168 Z M56.384,204.368 C55.152,204.368 54.72,203.456 54.72,201.872 C54.72,200.208 55.184,199.36 56.48,199.36 C57.584,199.36 58.192,200.224 58.192,201.744 C58.192,203.424 57.6,204.368 56.384,204.368 Z M64.368,206 L64.368,201.376 C64.368,199.952 64.816,199.376 65.744,199.376 C66.72,199.376 66.928,200.08 66.928,200.928 L66.928,206 L69.184,206 L69.184,201.264 C69.184,200 69.568,199.36 70.528,199.36 C71.472,199.36 71.744,200.096 71.744,200.848 L71.744,206 L73.984,206 L73.984,200.56 C73.984,198.416 72.8,197.52 71.36,197.52 C70,197.52 69.296,198.112 68.8,198.784 C68.512,198.144 67.856,197.52 66.672,197.52 C65.456,197.52 64.784,198.096 64.368,198.704 C64.352,198.384 64.304,197.92 64.272,197.712 L62.08,197.712 C62.096,198.432 62.096,199.136 62.096,199.856 L62.096,206 L64.368,206 Z M79.472,206.192 C82.064,206.192 82.976,204.528 83.264,203.52 L80.976,203.52 C80.752,204.016 80.48,204.4 79.52,204.4 C78.384,204.4 77.856,203.392 77.856,202.352 L83.328,202.352 C83.36,202.112 83.36,201.936 83.36,201.648 C83.36,199.584 82.384,197.52 79.552,197.52 C76.88,197.52 75.552,199.376 75.552,201.984 C75.552,204.16 76.736,206.192 79.472,206.192 Z M81.056,200.944 L77.904,200.944 C78,199.92 78.448,199.168 79.536,199.168 C80.656,199.168 81.04,199.984 81.056,200.944 Z M87.232,206 L87.232,201.392 C87.232,199.92 87.776,199.376 88.752,199.376 C89.776,199.376 90.08,200.048 90.08,200.992 L90.08,206 L92.368,206 L92.368,200.736 C92.368,198.656 91.296,197.52 89.632,197.52 C88.176,197.52 87.504,198.256 87.232,198.768 C87.216,198.512 87.184,197.936 87.136,197.712 L84.912,197.712 C84.928,198.336 84.928,199.104 84.928,199.808 L84.928,206 L87.232,206 Z M98.56,205.952 L98.56,204.384 C98.4,204.4 98.176,204.4 98.048,204.4 C97.36,204.4 97.168,204.16 97.168,203.536 L97.168,199.44 L98.8,199.44 L98.8,197.712 L97.168,197.712 L97.168,195.472 L94.88,195.472 L94.88,197.712 L93.6,197.712 L93.6,199.44 L94.88,199.44 L94.88,203.792 C94.88,205.248 95.408,206.112 97.024,206.112 C97.488,206.112 98.112,206.112 98.56,205.952 Z" id="Development" fill="#203A4B" fill-rule="nonzero"></path><path d="M3.696,115 L3.696,110.888 L5.824,110.888 C8,110.888 9.808,109.784 9.808,107.384 C9.808,105.288 8.224,103.976 5.872,103.976 L1.312,103.976 L1.312,115 L3.696,115 Z M5.52,108.984 L3.696,108.984 L3.696,105.864 L5.568,105.864 C6.576,105.864 7.408,106.296 7.408,107.432 C7.408,108.552 6.624,108.984 5.52,108.984 Z M13.776,115 L13.776,111.384 C13.776,109.112 14.768,108.664 16.432,108.712 L16.432,106.52 C15.024,106.536 14.144,107.224 13.776,108.168 C13.776,107.72 13.744,106.904 13.712,106.712 L11.456,106.712 C11.472,107.416 11.472,108.136 11.472,108.968 L11.472,115 L13.776,115 Z M21.36,115.192 C23.984,115.192 25.488,113.352 25.488,110.84 C25.488,108.248 23.904,106.52 21.472,106.52 C18.848,106.52 17.296,108.328 17.296,110.888 C17.296,113.352 18.8,115.192 21.36,115.192 Z M21.408,113.4 C20.304,113.4 19.616,112.456 19.616,110.856 C19.616,109.112 20.32,108.328 21.376,108.328 C22.528,108.328 23.168,109.144 23.168,110.872 C23.168,112.456 22.544,113.4 21.408,113.4 Z M30.016,115.192 C31.248,115.192 31.968,114.792 32.368,114.136 C32.384,114.328 32.432,114.744 32.48,115 L34.672,115 C34.6613333,114.498667 34.6577778,113.990222 34.6565926,113.484148 L34.656,103.32 L32.368,103.32 L32.368,107.32 C32.192,106.952 31.552,106.52 30.352,106.52 C28,106.52 26.592,108.376 26.592,110.92 C26.592,113.512 27.92,115.192 30.016,115.192 Z M30.704,113.352 C29.568,113.352 28.944,112.488 28.944,110.872 C28.944,109.304 29.552,108.36 30.752,108.36 C32.256,108.36 32.464,109.432 32.464,110.856 C32.464,112.04 32.272,113.352 30.704,113.352 Z M39.408,115.192 C40.48,115.192 41.2,114.872 41.696,114.04 C41.712,114.328 41.728,114.776 41.76,115 L44,115 C43.9872,114.4112 43.98464,113.73024 43.984128,113.08 L43.984,106.712 L41.696,106.712 L41.696,111.128 C41.696,112.76 41.264,113.32 40.224,113.32 C39.232,113.32 38.944,112.568 38.944,111.656 L38.944,106.712 L36.656,106.712 L36.656,112.12 C36.656,114.168 37.728,115.192 39.408,115.192 Z M49.504,115.192 C51.968,115.192 52.944,113.704 53.216,112.328 L50.976,112.328 C50.768,112.952 50.352,113.416 49.552,113.416 C48.56,113.416 47.92,112.616 47.92,110.84 C47.92,109.24 48.512,108.328 49.568,108.328 C50.464,108.328 50.848,108.792 50.992,109.464 L53.216,109.464 C53.184,108.536 52.4,106.52 49.616,106.52 C47.088,106.52 45.6,108.472 45.6,110.92 C45.6,113.416 46.928,115.192 49.504,115.192 Z M58.832,114.952 L58.832,113.384 C58.672,113.4 58.448,113.4 58.32,113.4 C57.632,113.4 57.44,113.16 57.44,112.536 L57.44,108.44 L59.072,108.44 L59.072,106.712 L57.44,106.712 L57.44,104.472 L55.152,104.472 L55.152,106.712 L53.872,106.712 L53.872,108.44 L55.152,108.44 L55.152,112.792 C55.152,114.248 55.68,115.112 57.296,115.112 C57.76,115.112 58.384,115.112 58.832,114.952 Z" id="Product" fill="#203A4B" fill-rule="nonzero"></path></g></g></g></svg> 