<?xml version="1.0" encoding="UTF-8"?>
<svg width="92px" height="92px" viewBox="0 0 92 92" version="1.1" xmlns="http://www.w3.org/2000/svg" xmlns:xlink="http://www.w3.org/1999/xlink">
    <!-- Generator: Sketch 55.2 (78181) - https://sketchapp.com -->
    <title>chosen--icon--transparent</title>
    <desc>Created with Sketch.</desc>
    <g id="Page-1" stroke="none" stroke-width="1" fill="none" fill-rule="evenodd">
        <g id="CaseStudy_Chosen" transform="translate(-749.000000, -2877.000000)">
            <g id="Values" transform="translate(60.000000, 2700.000000)">
                <g id="1" transform="translate(690.000000, 178.000000)">
                    <g id="chosen--icon--transparent">
                        <circle id="Oval" stroke="#D8A564" stroke-width="2" cx="45" cy="45" r="45"></circle>
                        <path d="M59.5384615,70.2197802 L59.5384615,68.1428571 L61.3186813,68.1428571 L61.3186813,72 L57.4615385,72 L57.4615385,70.2197802 L59.5384615,70.2197802 Z M32.8114286,70.2197802 L38.2885714,70.2197802 L38.2885714,72 L32.8114286,72 L32.8114286,70.2197802 Z M24.5927473,70.2197802 L30.0698901,70.2197802 L30.0698901,72 L24.5927473,72 L24.5927473,70.2197802 Z M49.2428571,70.2197802 L54.72,70.2197802 L54.72,72 L49.2428571,72 L49.2428571,70.2197802 Z M41.0301099,70.2197802 L46.5072527,70.2197802 L46.5072527,72 L41.0301099,72 L41.0301099,70.2197802 Z M19.7802198,68.1428571 L19.7802198,70.2197802 L21.8571429,70.2197802 L21.8571429,72 L18,72 L18,68.1428571 L19.7802198,68.1428571 Z M18,35.28 L19.7802198,35.28 L19.7802198,40.7571429 L18,40.7571429 L18,35.28 Z M18,43.4927473 L19.7802198,43.4927473 L19.7802198,48.9698901 L18,48.9698901 L18,43.4927473 Z M18,51.7114286 L19.7802198,51.7114286 L19.7802198,57.1885714 L18,57.1885714 L18,51.7114286 Z M18,59.9301099 L19.7802198,59.9301099 L19.7802198,65.4072527 L18,65.4072527 L18,59.9301099 Z M18,32.5384615 L18,28.6813187 L21.8571429,28.6813187 L21.8571429,30.4615385 L19.7802198,30.4615385 L19.7802198,32.5384615 L18,32.5384615 Z M32.8114286,28.6813187 L38.2885714,28.6813187 L38.2885714,30.4615385 L32.8114286,30.4615385 L32.8114286,28.6813187 Z M41.0301099,28.6813187 L46.5072527,28.6813187 L46.5072527,30.4615385 L41.0301099,30.4615385 L41.0301099,28.6813187 Z M49.2428571,28.6813187 L54.72,28.6813187 L54.72,30.4615385 L49.2428571,30.4615385 L49.2428571,28.6813187 Z M59.5384615,32.5384615 L59.5384615,30.4615385 L57.4615385,30.4615385 L57.4615385,28.6813187 L61.3186813,28.6813187 L61.3186813,32.5384615 L59.5384615,32.5384615 Z M59.5384615,51.7114286 L61.3186813,51.7114286 L61.3186813,57.1885714 L59.5384615,57.1885714 L59.5384615,51.7114286 Z M59.5384615,43.4927473 L61.3186813,43.4927473 L61.3186813,48.9698901 L59.5384615,48.9698901 L59.5384615,43.4927473 Z M59.5384615,35.28 L61.3186813,35.28 L61.3186813,40.7571429 L59.5384615,40.7571429 L59.5384615,35.28 Z M72,18 L72,61.3186813 L61.3186813,61.3186813 L61.3186813,65.4072527 L59.5384615,65.4072527 L59.5384615,61.3186813 L28.6813187,61.3186813 L28.6813187,30.4615385 L24.5927473,30.4615385 L24.5927473,28.6813187 L28.6813187,28.6813187 L28.6813187,18 L72,18 Z M70.2197802,59.5384615 L70.2197802,19.7802198 L30.4615385,19.7802198 L30.4615385,59.5384615 L70.2197802,59.5384615 Z" id="Combined-Shape" fill="#000000" fill-rule="nonzero"></path>
                    </g>
                </g>
            </g>
        </g>
    </g>
</svg>