<?xml version="1.0" encoding="UTF-8"?>
<svg width="92px" height="92px" viewBox="0 0 92 92" version="1.1" xmlns="http://www.w3.org/2000/svg" xmlns:xlink="http://www.w3.org/1999/xlink">
    <!-- Generator: Sketch 55.2 (78181) - https://sketchapp.com -->
    <title>chosen--icon--powerful</title>
    <desc>Created with Sketch.</desc>
    <g id="Page-1" stroke="none" stroke-width="1" fill="none" fill-rule="evenodd">
        <g id="CaseStudy_Chosen" transform="translate(-749.000000, -2877.000000)">
            <g id="Values" transform="translate(60.000000, 2700.000000)">
                <g id="1" transform="translate(690.000000, 178.000000)">
                    <g id="chosen--icon--powerful">
                        <circle id="Oval" stroke="#D8A564" stroke-width="2" cx="45" cy="45" r="45"></circle>
                        <path d="M31.9426426,46.0317012 L42.6548449,46.0317012 C43.4949417,46.0317012 44.0924016,46.8487763 43.8376813,47.6493263 L37.1784883,68.5782182 L61.1737886,38.5840929 L48.8611852,38.5840929 C47.9776689,38.5840929 47.3770131,37.6871804 47.7134118,36.8702123 L55.6965726,17.4825361 L41.0783754,17.4825361 L31.9426426,46.0317012 Z M30.2421645,48.5142373 C29.4012088,48.5142373 28.8036479,47.6956073 29.0599509,46.8946609 L38.9900952,15.8629597 C39.1546098,15.3488514 39.6325197,15 40.1723088,15 L57.5500615,15 C58.4335777,15 59.0342335,15.8969125 58.6978349,16.7138806 L50.714674,36.1015568 L63.7564017,36.1015568 C64.7972127,36.1015568 65.3758587,37.305502 64.7256692,38.1182388 L34.9352361,75.3562802 C34.0754366,76.4310295 32.3658177,75.5160692 32.7831322,74.2045092 L40.9573097,48.5142373 L30.2421645,48.5142373 Z" id="Shape" fill="#000000" fill-rule="nonzero"></path>
                    </g>
                </g>
            </g>
        </g>
    </g>
</svg>