<?xml version="1.0" encoding="UTF-8"?>
<svg width="986px" height="986px" viewBox="0 0 986 986" version="1.1" xmlns="http://www.w3.org/2000/svg" xmlns:xlink="http://www.w3.org/1999/xlink">
    <title>REVOLUTIONINPROGRESS•REVOLUTIONINPROGRESS•REVOLUTIONINPROGRESS•REVOLUTIONINPROGRESS•</title>
    <g id="Page-1" stroke="none" stroke-width="1" fill="none" fill-rule="evenodd">
        <g id="Artboard" transform="translate(-107.000000, -107.000000)" fill="#FDD32F" fill-rule="nonzero">
            <g id="Group" transform="translate(107.122105, 107.122893)">
                <path d="M486.196718,952.658561 L485.224915,982.367526 L480.058138,982.198516 C477.073879,982.100899 475.029356,981.900254 473.4163,980.777358 C471.411115,979.374102 470.293008,976.751375 470.373142,974.30161 C470.450362,971.940928 471.273125,969.961344 473.065597,968.325601 C474.830553,966.797001 477.864803,966.794016 480.154637,966.8634 L481.494703,966.906948 L472.6562,952.21564 L468.647494,952.084512 L476.439488,964.690501 C473.40049,964.903215 471.01941,965.449572 468.972179,968.057936 C467.53021,969.883499 466.829413,972.223784 466.801106,974.452299 C466.67872,978.193758 468.389807,981.772247 471.009826,983.463148 C472.667424,984.587502 475.052249,985.289755 480.219026,985.458764 L488.815473,985.739961 L489.893636,952.77949 L486.196718,952.658561 Z M440.813877,949.799228 L440.500671,953.037361 L455.05009,954.444644 L453.917399,966.155152 L439.456695,964.75645 L439.143489,967.994583 L453.604192,969.393285 L452.501535,980.793287 L437.952115,979.386004 L437.638909,982.624137 L455.825683,984.383241 L459.000651,951.558332 L440.813877,949.799228 Z M417.109749,946.369467 L398.826036,976.782067 L402.651724,977.411703 L418.050333,951.356875 L424.242676,980.965167 L428.068364,981.594803 L420.58365,946.941206 L417.109749,946.369467 Z M383.212362,938.627639 C373.788136,936.267874 364.728544,941.625584 362.379604,951.00658 C360.030663,960.387576 365.539714,969.393181 374.920709,971.742121 C383.955862,974.004465 393.307106,969.13325 395.775117,959.27672 L395.785942,959.23349 C398.069935,950.111876 392.679819,940.998229 383.212362,938.627639 Z M382.378935,941.772634 C389.857793,943.645291 394.048828,950.942649 392.165345,958.464738 L392.154521,958.507968 C390.303512,965.900366 383.232995,970.469785 375.710906,968.586303 C368.102357,966.681171 364.095136,959.200135 365.924496,951.894198 C367.753855,944.588262 374.813616,939.878326 382.378935,941.772634 Z M341.735463,927.364757 L340.717251,930.454554 L352.653179,934.387924 L343.349783,962.619357 L346.86284,963.777051 L357.184449,932.455821 L341.735463,927.364757 Z M324.356914,920.095208 C321.709045,919.035204 319.085719,918.993095 316.809739,919.762083 C312.804074,920.894711 310.941154,924.229224 309.558147,927.80386 L301.790305,947.207772 L305.182886,948.565902 L312.950728,929.16199 C313.911357,926.762359 314.623547,924.983322 316.883166,923.535738 C318.530304,922.419003 320.95508,922.237617 323.147847,923.115433 C325.381986,924.009812 326.995196,925.855701 327.458078,927.817127 C328.052173,930.355116 327.422849,932.094738 326.553045,934.274474 L318.670467,953.965297 L322.104422,955.33999 L329.872264,935.936078 C331.213831,932.584869 332.356849,929.010167 330.1732,925.111791 C328.94911,922.653622 326.508307,920.956461 324.356914,920.095208 Z M295.935101,908.51591 L283.166031,935.358374 L275.801457,931.855015 L274.403943,934.792796 L292.433064,943.369323 L293.830578,940.431542 L286.506248,936.947328 L299.275318,910.104865 L295.935101,908.51591 Z M278.133773,899.713107 L262.687751,928.850291 L265.916466,930.561877 L281.362488,901.424693 L278.133773,899.713107 Z M255.402973,885.676823 C247.118662,880.601912 236.870041,882.999208 231.818409,891.245517 C226.766777,899.491826 229.324636,909.734283 237.570946,914.785915 C245.513244,919.651311 255.894363,917.805543 261.202068,909.141218 L261.225348,909.103216 C266.137303,901.084916 263.725285,890.775013 255.402973,885.676823 Z M253.665575,888.427647 C260.239821,892.454985 262.052008,900.672782 258.001391,907.28503 L257.978112,907.323031 C253.997333,913.821275 245.882591,916.062428 239.270343,912.011811 C232.582092,907.914635 231.000306,899.576669 234.934526,893.154429 C238.868746,886.732188 247.015325,884.353751 253.665575,888.427647 Z M229.59502,869.849339 L213.164971,892.230154 L213.933278,858.274291 L211.066139,856.155289 L191.465371,882.676318 L194.332509,884.79532 L210.66596,862.620189 L209.850895,896.264418 L212.86139,898.48937 L232.462159,871.968341 L229.59502,869.849339 Z M186.387206,835.825608 L164.380982,860.38739 L167.102693,862.825918 L189.108917,838.264136 L186.387206,835.825608 Z M175.7367,825.762078 L156.132794,845.422552 L161.990253,811.966894 L159.473741,809.441459 L136.113474,832.719196 L138.629986,835.24463 L158.107509,815.773007 L152.250608,848.913543 L154.892945,851.565249 L178.253212,828.287513 L175.7367,825.762078 Z M138.382799,785.786551 L128.251294,793.881759 L124.940883,789.738635 C122.270299,786.396283 120.461575,784.989297 117.77545,784.340411 C115.305048,783.747334 111.970724,784.643152 109.533592,786.590453 C107.131277,788.509935 105.563518,791.473903 105.603615,794.237001 C105.664704,796.812195 106.61002,798.852011 109.503153,802.472892 L114.927777,809.262045 L140.691742,788.676293 L138.382799,785.786551 Z M122.427121,791.804208 L125.709714,795.912516 L115.160415,804.341546 L111.933459,800.302871 C110.180888,798.109452 109.367495,796.591708 109.173796,794.635863 C108.986922,792.90274 109.983454,790.794494 111.828711,789.320109 C113.639152,787.873543 115.91534,787.366841 117.536674,787.896769 C119.401549,788.517321 120.702369,789.645605 122.427121,791.804208 Z M120.593224,762.828137 L96.2174348,779.839543 L93.2589294,775.600276 C91.5501376,773.151733 90.4865734,771.394131 90.420002,769.429846 C90.3431639,766.983627 91.7741801,764.517648 93.7841777,763.114908 C95.7210844,761.763177 97.799202,761.236753 100.182597,761.692859 C102.463708,762.191085 104.283006,764.619424 105.598588,766.494897 L106.366142,767.59423 L112.839899,751.718332 L110.544507,748.429246 L105.11423,762.218308 C103.124116,759.91175 101.260749,758.331905 97.9458329,758.254168 C95.6202906,758.192443 93.3263229,759.032538 91.5245567,760.344302 C88.4547422,762.486668 86.6133334,765.999874 86.82796,769.110755 C86.9200358,771.111585 87.7856353,773.442098 90.7441406,777.681366 L95.6664815,784.73463 L122.710085,765.861406 L120.593224,762.828137 Z M97.7074318,726.395237 C92.7979593,718.011824 82.6308131,715.289618 74.2858564,720.17657 C65.9408997,725.063522 63.3631673,735.300996 68.2501192,743.645952 C72.956907,751.683261 82.9806337,754.954256 91.7486066,749.819578 L91.7870626,749.797058 C99.9012832,745.045229 102.639425,734.817106 97.7074318,726.395237 Z M94.8776217,728.000779 C98.7736709,734.653671 96.4938395,742.7542 89.8024918,746.672769 L89.7640357,746.69529 C83.188056,750.546298 74.9759785,748.693302 71.0574088,742.001955 C67.093798,735.233695 69.6334711,727.135931 76.1325387,723.329964 C82.6316064,719.523997 90.9365314,721.270975 94.8776217,728.000779 Z M77.8914118,689.001712 C75.079583,682.986259 69.0164798,678.539757 62.1969831,678.579053 C59.924694,678.558947 57.5558835,679.174277 55.801009,679.945373 L64.5573083,698.678059 L67.3026157,697.394808 L60.3579645,682.53785 C62.9260063,681.927779 65.8662158,682.324382 68.502784,683.65001 C71.0801088,684.954137 73.4722795,687.230291 74.9442436,690.37932 C78.0013998,696.919611 75.6749805,704.992504 68.0850129,708.540315 C60.6161618,712.031512 52.9491548,708.679082 49.8919986,702.138791 C48.6464905,699.474228 48.3190242,696.774087 48.7454817,694.213469 C48.9894145,692.525261 49.5510657,690.885314 50.4089344,689.352872 L48.6350289,685.557888 C44.844534,690.182905 44.0763874,697.379829 46.9070876,703.435654 C50.9455532,712.075298 60.6887124,716.080642 69.6513337,711.891205 C78.4928385,707.758383 81.9676201,697.722101 77.8914118,689.001712 Z M65.0525609,661.748355 L37.2054195,672.145649 L35.3971945,667.302668 C34.3527887,664.505429 33.7609834,662.538172 34.1862181,660.619312 C34.7216585,658.231175 36.7222691,656.199817 39.0185101,655.342469 C41.2312515,654.516297 43.3749927,654.524578 45.5694242,655.560472 C47.7376941,656.653704 48.9017904,659.644104 49.7123741,661.815096 L50.0864896,662.817092 L60.3137644,649.056405 L58.9108312,645.298919 L50.2143452,657.298806 C48.8621024,654.568934 47.4514329,652.574427 44.2605642,651.672723 C42.0238385,651.03318 39.5928631,651.274854 37.5209594,652.096011 C34.0139731,653.405415 31.3548499,656.348622 30.7871446,659.414786 C30.377498,661.375395 30.6347602,663.84812 32.4429852,668.691102 L35.4514975,676.74882 L66.3463771,665.213592 L65.0525609,661.748355 Z M50.4619869,618.673066 L47.3469089,619.611091 L51.5615985,633.607607 L40.2961107,636.999918 L36.1071204,623.088747 L32.9920424,624.026773 L37.1810327,637.937943 L26.214251,641.240307 L21.9995614,627.243792 L18.8844833,628.181817 L24.1528454,645.677461 L55.730349,636.16871 L50.4619869,618.673066 Z M46.266603,600.138603 C44.86344,594.150843 39.7727679,591.178506 34.5226309,592.408816 C28.6216504,593.791643 28.0479208,598.961041 27.5881519,602.272842 C27.0781475,607.518851 26.86583,610.909982 22.9506016,611.781699 C19.6096053,612.564623 16.8198885,610.426252 16.0674678,607.215425 C15.0710187,602.963248 17.9944284,601.179645 19.9856167,600.301082 L19.1518532,596.743138 C13.1993287,598.687312 12.0642529,603.805166 12.9996949,607.797005 C14.1486617,612.700026 18.4243951,616.687235 24.0880921,615.268468 C30.1626307,613.844969 30.4997817,607.861338 30.670723,605.074943 C31.0111958,601.058741 31.1042173,596.963209 35.6167318,595.905753 C39.1746759,595.071989 42.4565772,597.552745 43.2395015,600.893741 C43.7072225,602.889661 43.4942002,607.059086 38.2792982,608.830406 L39.1232296,612.43174 C45.1903186,610.781125 47.5274161,605.518908 46.266603,600.138603 Z M40.5391604,572.438561 C39.5094594,566.375406 34.6126069,563.093552 29.2963624,563.996406 C23.3210793,565.011184 22.4283552,570.135136 21.7643978,573.412112 C20.9305327,578.616474 20.5086397,581.987951 16.5469466,582.615559 C13.1638819,583.190102 10.511929,580.883092 9.95977058,577.631835 C9.22853369,573.326116 12.2567763,571.726958 14.2985454,570.973378 L13.6866941,567.370633 C7.62520661,568.942488 6.17540515,573.980236 6.86187244,578.022339 C7.70503334,582.987097 11.7256689,587.231413 17.4663492,586.166072 C23.6173759,585.121448 24.3243938,579.170175 24.667544,576.399712 L24.7025997,576.160381 L24.7025997,576.160381 L24.8064243,575.44266 C25.3385091,571.780351 25.9680417,568.268306 30.1718291,567.55438 C33.7745733,566.942529 36.8965654,569.621744 37.4711086,573.004809 C37.8143423,575.02586 37.3435528,579.174093 32.0289757,580.619101 L32.6482886,584.265781 C38.8059432,582.994016 41.4643989,577.886613 40.5391604,572.438561 Z M22.5788265,529.093638 C22.3855653,526.382052 20.0997834,524.400419 17.4326491,524.590512 C14.7655147,524.780605 12.7394293,527.069555 12.926354,529.692237 L12.9295222,529.736689 C13.1291199,532.53718 15.500638,534.468025 18.1233202,534.2811 C20.7460023,534.094175 22.7720877,531.805225 22.5788265,529.093638 Z M33.0661092,488.821356 L3.35213724,488.017072 L3.49201274,482.849425 C3.5728029,479.864663 3.76191682,477.819041 4.87570069,476.199679 C6.26762906,474.186615 8.88400994,473.053738 11.3341875,473.120058 C13.6952678,473.183967 15.6794595,473.995556 17.3252824,475.778776 C18.9253508,477.605339 18.8830802,480.81405 18.8203774,483.130582 L18.7914376,484.19975 L33.4326795,475.278556 L33.5412036,471.269175 L20.9793467,479.132119 C20.7495019,476.094368 20.189729,473.716406 17.5698642,471.683915 C15.7362,470.252261 13.3920013,469.564671 11.1633613,469.548928 C7.42127188,469.447639 3.85248712,471.178875 2.17638511,473.808387 C1.06139542,475.472297 0.372599389,477.861044 0.23272389,483.028692 L0,491.626588 L32.9660259,492.518897 L33.0661092,488.821356 Z M35.6680157,443.434694 L32.4281506,443.139945 L31.1037962,457.697147 L19.3870238,456.631203 L20.703303,442.162764 L17.4634379,441.868015 L16.1471588,456.336453 L4.74105844,455.298773 L6.06541288,440.741571 L2.82554781,440.446822 L1.17010475,458.643324 L34.0125726,461.631197 L35.6680157,443.434694 Z M38.9634246,419.703048 L8.44715837,401.592889 L7.83932697,405.422102 L33.9814566,420.672029 L4.40892217,427.032947 L3.80109077,430.86216 L38.4114857,423.18015 L38.9634246,419.703048 Z M46.5072352,385.775409 C48.8127657,376.337768 43.4030446,367.309137 34.0086961,365.014182 C24.6143476,362.719227 15.6405725,368.279976 13.3456178,377.674324 C11.1352698,386.722337 16.060181,396.045414 25.9307408,398.456703 L25.9740327,398.467278 C35.1086297,400.698778 44.1911289,395.256341 46.5072352,385.775409 Z M43.3575002,384.960081 C41.527882,392.449585 34.2547462,396.682515 26.7219506,394.842321 L26.6786587,394.831745 C19.2757389,393.023278 14.6657346,385.979155 16.5059286,378.44636 C18.3672743,370.82698 25.8251423,366.776805 33.1414782,368.56412 C40.4578141,370.351435 45.2082701,377.383994 43.3575002,384.960081 Z M57.5328285,344.223925 L54.437225,343.223504 L50.5725856,355.181863 L22.2880986,346.041031 L21.1506338,349.56069 L52.5307244,359.701942 L57.5328285,344.223925 Z M64.7068894,326.789268 C65.751627,324.135339 65.7786278,321.511814 64.9965453,319.2403 C63.8408674,315.241225 60.495682,313.397539 56.9131407,312.03514 L37.4648159,304.379173 L36.1262459,307.77952 L55.5745707,315.435487 C57.979694,316.38228 59.7628026,317.084213 61.2233763,319.335458 C62.3495785,320.976138 62.5449248,323.399829 61.6797515,325.597614 C60.7982541,327.836867 58.9616859,329.460681 57.0029584,329.934851 C54.4684322,330.543552 52.725215,329.924257 50.5405058,329.06702 L30.8046139,321.297971 L29.4497199,324.739786 L48.8980447,332.395753 C52.2569238,333.717999 55.83815,334.840411 59.7238854,332.634349 C62.1749639,331.396122 63.8580402,328.945586 64.7068894,326.789268 Z M76.1129743,298.32631 L49.1979506,285.710903 L52.6591493,278.326421 L49.7134271,276.945725 L41.2401099,295.023581 L44.1858322,296.404278 L47.6281173,289.060149 L74.543141,301.675556 L76.1129743,298.32631 Z M84.8171327,280.464811 L55.5918146,265.186202 L53.8987797,268.424684 L83.1240977,283.703292 L84.8171327,280.464811 Z M98.7257754,257.649567 C103.753371,249.336456 101.297681,239.101669 93.022704,234.097136 C84.7477267,229.092603 74.5200201,231.708818 69.5154869,239.983795 C64.6954527,247.953704 66.6003792,258.324131 75.2948254,263.58235 L75.3329589,263.605413 C83.379135,268.471572 93.6751175,266.000811 98.7257754,257.649567 Z M95.9650896,255.92788 C91.9753005,262.524982 83.7679699,264.383994 77.1327346,260.371142 L77.0946011,260.34808 C70.5737665,256.404415 68.2863836,248.302583 72.2992351,241.667348 C76.3582113,234.955845 84.6870225,233.326546 91.1315901,237.224086 C97.5761576,241.121626 100.001003,249.254512 95.9650896,255.92788 Z M114.399668,231.759872 L91.9254105,215.457875 L125.885106,216.032296 L127.987703,213.153106 L101.355195,193.704081 L99.2525975,196.583271 L121.520624,212.789845 L87.8722897,212.166887 L85.6645626,215.190037 L112.297071,234.639062 L114.399668,231.759872 Z M148.181236,188.352417 L123.494735,166.486193 L121.071721,169.221724 L145.758222,191.087948 L148.181236,188.352417 Z M158.184666,177.64421 L138.413134,158.152317 L171.90153,163.81961 L174.412627,161.288791 L151.002549,138.061149 L148.491453,140.591968 L168.07342,159.958553 L134.900143,154.290027 L132.263492,156.947387 L155.673569,180.175029 L158.184666,177.64421 Z M197.946414,140.064314 L189.79363,129.979083 L193.917831,126.645126 C197.244918,123.955548 198.641578,122.13884 199.275154,119.449062 C199.85415,116.975322 198.939354,113.646155 196.978203,111.220154 C195.045069,108.828811 192.07222,107.27796 189.309395,107.333794 C186.73459,107.40955 184.700192,108.36647 181.095849,111.28018 L174.337704,116.743386 L195.069871,142.389679 L197.946414,140.064314 Z M191.837974,124.143171 L187.74843,127.449111 L179.259448,116.947993 L183.279677,113.698086 C185.463078,111.93305 186.976165,111.111026 188.930874,110.906189 C190.662905,110.709447 192.776793,111.693955 194.261664,113.530784 C195.718519,115.332956 196.238177,117.60622 195.717494,119.230546 C195.107574,121.098926 193.986717,122.406151 191.837974,124.143171 Z M220.800579,122.146504 L203.651212,97.8675793 L207.873633,94.8850807 C210.312446,93.1624306 212.063988,92.0889161 214.027864,92.0112064 C216.473608,91.9204971 218.947663,93.3375057 220.361778,95.339516 C221.724472,97.2687259 222.262672,99.3438247 221.82009,101.729768 C221.334808,104.013667 218.916826,105.846708 217.048844,107.172904 L215.953881,107.94668 L231.866236,114.330301 L235.142253,112.016293 L221.322617,106.664301 C223.617852,104.661139 225.187105,102.788843 225.246041,99.473539 C225.294577,97.1476841 224.441486,94.8585174 223.119526,93.0642192 C220.959786,90.0066035 217.436194,88.1851477 214.326579,88.4174126 C212.326304,88.5208335 210.000737,89.3996355 205.778315,92.3821341 L198.753079,97.3443948 L217.779363,124.280534 L220.800579,122.146504 Z M257.115182,99.0441484 C265.47043,94.0868943 268.134546,83.9043725 263.200032,75.5874519 C258.265517,67.2705312 248.013494,64.7512875 239.696574,69.6858019 C231.686268,74.4383987 228.472553,84.4806364 233.657204,93.2191521 L233.679943,93.2574789 C238.47802,101.344439 248.721608,104.024142 257.115182,99.0441484 Z M255.493511,96.2235506 C248.862971,100.157518 240.749558,97.9239708 236.792851,91.2551036 L236.770111,91.2167767 C232.881623,84.66289 234.687705,76.4403674 241.356572,72.48366 C248.102093,68.4814732 256.214223,70.9748739 260.057232,77.4521071 C263.900241,83.9293402 262.200705,92.2441036 255.493511,96.2235506 Z M294.383948,79.0202033 C300.38309,76.1737412 304.794565,70.0851041 304.715953,63.2659472 C304.722959,60.9935799 304.093982,58.6283563 303.312783,56.8779564 L284.63089,65.7421068 L285.929946,68.4799705 L300.74662,61.4497822 C301.371486,64.0142642 300.99184,66.9567113 299.681435,69.6008782 C298.392188,72.1856786 296.129863,74.5909318 292.989373,76.0810261 C286.466815,79.1758372 278.380644,76.8959979 274.789134,69.3266101 C271.254937,61.8780104 274.56311,54.1918035 281.085667,51.0969924 C283.743006,49.8361434 286.441214,49.493116 289.004248,49.904804 C290.693834,50.139 292.336991,50.6911873 293.874354,51.540207 L297.659048,49.7444524 C293.012255,45.9806844 285.811022,45.2540418 279.771617,48.1196077 C271.155399,52.207815 267.206293,61.9739035 271.44733,70.9122232 C275.631056,79.7297548 285.687204,83.1466181 294.383948,79.0202033 Z M321.566741,66.0236082 L311.008917,38.2369325 L315.841382,36.4007891 C318.632547,35.340258 320.596356,34.7371098 322.517638,35.1512638 C324.908825,35.6729135 326.951695,37.6617679 327.82228,39.9530231 C328.661207,42.1609598 328.665298,44.3047131 327.642085,46.5050861 C326.60295,48.5959926 323.804447,49.7686221 321.664902,50.5874631 L320.411654,51.0639537 L334.231133,61.2116463 L337.98046,59.7870523 L325.930586,51.1599616 C328.652609,49.7919874 330.638942,48.3698313 331.522217,45.1738121 C332.148841,42.9334328 331.893142,40.5038926 331.060042,38.4367622 C329.730421,34.9373907 326.771917,32.2952969 323.702529,31.7452956 C321.739588,31.3469704 319.268388,31.6184982 314.435923,33.4546416 L306.3957,36.5096043 L318.109029,67.3374005 L321.566741,66.0236082 Z M364.541316,51.1907844 L363.585345,48.0811669 L349.613364,52.3764912 L346.156152,41.130751 L360.042937,36.8616176 L359.086966,33.7520001 L345.20018,38.0211335 L341.834637,27.0735758 L355.806617,22.7782514 L354.850645,19.6686338 L337.38567,25.0377893 L347.076341,56.5599399 L364.541316,51.1907844 Z M383.075296,46.8813278 C389.05488,45.4437207 391.997864,40.3360233 390.737353,35.0930553 C389.320581,29.2001326 384.147966,28.656169 380.833573,28.2154715 C375.584715,27.7356732 372.192418,27.5428796 371.298179,23.6327339 C370.496036,20.2962997 372.618313,17.49432 375.824756,16.7234292 C380.071127,15.7025199 381.871528,18.6156142 382.761538,20.6017123 L386.314624,19.747482 C384.336218,13.8062473 379.211915,12.7006502 375.225526,13.6590549 C370.329201,14.8362259 366.36667,19.1348401 367.818015,24.7902764 C369.276457,30.8565203 375.261931,31.1592222 378.049263,31.3141213 C378.209987,31.3268152 378.370836,31.3391125 378.531611,31.351313 L379.253939,31.4065736 L379.253939,31.4065736 L379.732964,31.4456861 C383.155192,31.7378779 386.315036,32.3318042 387.246772,36.2072675 C388.101002,39.7603532 385.639179,43.0564802 382.302745,43.8586233 C380.30955,44.3378256 376.138969,44.1488073 374.337659,38.944188 L370.741243,39.8088357 C372.426754,45.8663228 377.702337,48.1730907 383.075296,46.8813278 Z M410.74208,40.9953793 C416.799224,39.9308877 420.052911,35.0152752 419.119553,29.7043015 C418.070489,23.7349426 412.941496,22.8716489 409.660762,22.2265152 C404.451698,21.4225413 401.077856,21.0200104 400.427514,17.0619856 C399.833559,13.682275 402.125306,11.0171216 405.37334,10.4463073 C409.67479,9.69036395 411.291307,12.7093761 412.056596,14.7467853 L415.655768,14.1142613 C414.049141,8.06189752 409.003153,6.64104093 404.965057,7.35070202 C400.005223,8.22235097 395.784058,12.2672863 396.882338,18.001756 C397.962257,24.1466843 403.91749,24.8195252 406.689878,25.1467649 C410.680603,25.7123717 414.764437,26.0353757 415.566663,30.6001796 C416.199187,34.1993518 413.537939,37.3366734 410.158229,37.9306289 C408.139181,38.2854594 403.988313,37.8384922 402.512819,32.5322982 L398.869754,33.1725359 C400.176849,39.322788 405.29943,41.9518791 410.74208,40.9953793 Z M453.963069,22.7910831 C456.673515,22.5824257 458.642135,20.2854268 458.436898,17.619415 C458.231661,14.9534032 455.931242,12.9403496 453.309663,13.1421658 L453.26523,13.1455864 C450.465917,13.361085 448.548572,15.7435304 448.750388,18.3651087 C448.952205,20.986687 451.252624,22.9997405 453.963069,22.7910831 Z M494.29988,33.0497653 L494.9366,3.33173051 L500.104954,3.44246431 C503.090123,3.50642263 505.136779,3.68399863 506.762395,4.78863349 C508.783277,6.16918842 509.930889,8.7791396 509.878386,11.2296522 C509.827792,13.5910553 509.027404,15.5797919 507.253493,17.2356439 C505.505886,18.7840502 502.471863,18.8212518 500.181392,18.7776937 L498.84092,18.7492602 L507.844532,33.3399643 L511.854462,33.4258784 L503.920808,20.9085591 C506.957215,20.6615886 509.331982,20.0884156 511.349668,17.4571316 C512.77096,15.6154237 513.44532,13.2673851 513.448496,11.0386917 C513.528682,7.29609062 511.77735,3.73712474 509.138429,2.07587674 C507.468258,0.97028728 505.075665,0.294971938 499.907311,0.184238136 L491.308239,0 L490.601834,32.9705334 L494.29988,33.0497653 Z M539.71697,35.3954037 L539.993248,32.1539112 L525.428734,30.9125534 L526.427876,19.1898956 L540.903582,20.4236841 L541.17986,17.1821916 L526.704153,15.9484031 L527.676803,4.53657338 L542.241317,5.77793113 L542.517595,2.53643864 L524.311952,0.984741441 L521.511328,33.8437065 L539.71697,35.3954037 Z M563.452947,38.5541656 L581.38738,7.93429488 L577.554736,7.34848629 L562.455342,33.5778503 L555.924527,4.04237116 L552.091883,3.45656257 L559.97273,38.0222245 L563.452947,38.5541656 Z M597.432003,45.9048266 C606.882754,48.1560135 615.880107,42.6944299 618.120968,33.2870315 C620.361828,23.879633 614.749535,14.9380038 605.342137,12.6971435 C596.281555,10.5388956 586.986971,15.5173716 584.632519,25.4016428 L584.622192,25.4449949 C582.443291,34.592281 587.9379,43.6433133 597.432003,45.9048266 Z M598.229193,42.7504523 C590.729285,40.96396 586.454575,33.7153015 588.251394,26.1720419 L588.26172,26.1286898 C590.027559,18.7154864 597.045039,14.0650255 604.588299,15.8618444 C612.218262,17.6793163 616.311284,25.1137555 614.566098,32.4402548 C612.820912,39.766754 605.815805,44.5575977 598.229193,42.7504523 Z M639.035351,56.6879784 L640.01786,53.5866433 L628.03736,49.7911979 L637.01453,21.4543418 L633.488355,20.3372426 L623.528675,51.7754338 L639.035351,56.6879784 Z M656.504929,63.7594086 C659.164835,64.7888347 661.788472,64.8007161 664.055442,64.0055562 C668.04779,62.8268515 669.872168,59.4710968 671.213898,55.8807637 L678.757661,36.3886417 L675.349657,35.0696896 L667.576654,55.1516379 C666.74693,57.2680274 665.994432,58.8822689 663.938541,60.2329983 C662.304378,61.3686367 659.881853,61.5779471 657.679118,60.7254536 C655.434823,59.8568754 653.800452,58.0296954 653.315002,56.073733 C652.691705,53.5427567 653.300944,51.7959996 654.145576,49.6063866 L661.800762,29.8260506 L658.351196,28.4910137 L650.807434,47.9831356 C649.504566,51.3495789 648.402811,54.9372139 650.63123,58.8101716 C651.883561,61.2540737 654.343756,62.923 656.504929,63.7594086 Z M685.049447,75.0074886 L697.509393,48.0201441 L704.913716,51.4386898 L706.277399,48.4850524 L688.150966,40.1161536 L686.787284,43.069791 L694.151147,46.4696561 L681.691202,73.4570007 L685.049447,75.0074886 Z M702.950469,83.6045344 L718.061058,54.291991 L714.812911,52.6175744 L699.702323,81.9301179 L702.950469,83.6045344 Z M725.850077,97.3842608 C734.191967,102.363959 744.41246,99.8494424 749.369316,91.5458175 C754.326171,83.2421926 751.651173,73.0297028 743.347548,68.0728475 C735.350047,63.2987334 724.990748,65.2632759 719.782624,73.9878219 L719.759781,74.0260875 C714.939982,82.1001191 717.469921,92.3817202 725.850077,97.3842608 Z M727.555856,94.6137181 C720.935915,90.6619395 719.029728,82.465437 723.00435,75.8072309 L723.027192,75.7689653 C726.933286,69.2255558 735.021828,66.8916116 741.680034,70.8662328 C748.414771,74.8865394 750.091948,83.2058417 746.23154,89.6727201 C742.371132,96.1395985 734.252328,98.611182 727.555856,94.6137181 Z M751.838481,112.91692 L768.011846,90.3499169 L767.631402,124.312339 L770.522554,126.398457 L789.819145,99.6552966 L786.927993,97.5691786 L770.848871,119.929408 L771.27963,86.2780652 L768.24392,84.0876414 L748.947329,110.830802 L751.838481,112.91692 Z M795.426515,146.443359 L817.15201,121.632919 L814.402745,119.225499 L792.67725,144.035939 L795.426515,146.443359 Z M806.192156,156.386413 L825.571405,136.504459 L820.094463,170.024513 L822.639508,172.52119 L845.733774,148.979526 L843.188729,146.482849 L823.933709,166.174528 L829.413674,132.969582 L826.741377,130.348071 L803.647111,153.889735 L806.192156,156.386413 Z M843.997039,195.933355 L854.035681,187.723273 L857.393069,191.828423 C860.101549,195.14014 861.926181,196.526432 864.619523,197.144681 C867.09652,197.709581 870.420424,196.775843 872.835218,194.800909 C875.215515,192.854189 876.749411,189.872557 876.677845,187.110094 C876.587429,184.535763 875.61894,182.506847 872.684752,178.919154 L867.183151,172.192228 L841.655332,193.0701 L843.997039,195.933355 Z M859.88314,189.734352 L856.553966,185.663699 L867.006573,177.115057 L870.279321,181.116716 C872.056761,183.29003 872.887389,184.798411 873.103353,186.751922 C873.309955,188.482805 872.3375,190.602264 870.509157,192.097572 C868.71531,193.564665 866.445042,194.09726 864.817777,193.585834 C862.945954,192.986564 861.632367,191.873169 859.88314,189.734352 Z M862.042805,218.682544 L886.223315,201.394689 L889.229899,205.599995 C890.96646,208.028922 892.049968,209.7743 892.138901,211.737699 C892.243588,214.182886 890.840743,216.664999 888.846848,218.090534 C886.925458,219.464231 884.853469,220.014284 882.465035,219.585346 C880.086934,219.094237 878.184526,216.509966 876.836748,214.624829 L876.214696,213.754765 L869.922128,229.703347 L872.254822,232.966084 L877.527739,219.116085 C879.543988,221.399832 881.425222,222.958359 884.740809,222.998345 C887.066903,223.033586 889.351157,222.167426 891.13787,220.835232 C894.183091,218.658051 895.984378,215.124106 895.734344,212.01587 C895.619492,210.016218 894.727412,207.695712 891.720829,203.490405 L886.718496,196.493646 L859.891543,215.673575 L862.042805,218.682544 Z M885.348899,254.85996 C890.353747,263.186786 900.551305,265.792757 908.839934,260.810867 C917.128562,255.828977 919.589267,245.562746 914.607377,237.274117 C909.809151,229.29106 899.748739,226.134698 891.039949,231.369126 L891.001753,231.392084 C882.942302,236.236227 880.321092,246.494939 885.348899,254.85996 Z M888.160197,253.222221 C884.18846,246.614236 886.375676,238.488211 893.021858,234.493515 L893.060054,234.470557 C899.591646,230.544736 907.824341,232.303871 911.819036,238.950052 C915.859648,245.672627 913.412575,253.798853 906.957376,257.678758 C900.502176,261.558664 892.177851,259.9066 888.160197,253.222221 Z M905.59202,292.021171 C908.472998,298.003814 914.58695,302.380136 921.405541,302.262238 C923.677911,302.256152 926.039472,301.613559 927.785342,300.822287 L918.813705,282.191774 L916.083371,283.506583 L923.198807,298.282507 C920.637968,298.922138 917.693382,298.559451 915.04171,297.264301 C912.449524,295.989968 910.031277,293.741538 908.523114,290.609685 C905.390775,284.105066 907.623989,276.005894 915.172559,272.370834 C922.600673,268.79378 930.305812,272.057615 933.438151,278.562234 C934.714289,281.212264 935.072856,283.908451 934.675941,286.473815 C934.451484,288.164722 933.908772,289.811033 933.068624,291.353262 L934.886154,295.127547 C938.623088,290.459147 939.308229,283.253847 936.407915,277.231052 C932.270135,268.638531 922.481456,264.745756 913.567719,269.03822 C904.774437,273.272678 901.415568,283.348345 905.59202,292.021171 Z M918.74588,319.132924 L946.471464,308.415696 L948.33533,313.237536 C949.411873,316.022565 950.02629,317.982878 949.623176,319.906506 C949.115268,322.30065 947.138178,324.354908 944.851961,325.238637 C942.648878,326.090231 940.505184,326.106633 938.298971,325.096074 C936.118258,324.027879 934.919808,321.05108 934.084282,318.889566 L933.698654,317.891943 L923.630494,331.769473 L925.076597,335.510556 L933.634343,323.411336 C935.017927,326.125457 936.451467,328.10359 939.652507,328.968496 C941.896448,329.582243 944.324479,329.312596 946.386791,328.467638 C949.878469,327.117942 952.503529,324.144313 953.035893,321.071817 C953.422939,319.106621 953.137223,316.637021 951.273357,311.815181 L948.17227,303.792635 L917.412252,315.682814 L918.74588,319.132924 Z M933.827624,362.026514 L936.931681,361.05264 L932.555917,347.105642 L943.781549,343.583686 L948.130632,357.445641 L951.234689,356.471767 L946.885607,342.609812 L957.813589,339.181241 L962.189353,353.128238 L965.29341,352.154364 L959.823706,334.720617 L928.357919,344.592767 L933.827624,362.026514 Z M938.238086,380.517446 C939.710069,386.48866 944.834613,389.402212 950.070243,388.11156 C955.954917,386.66091 956.469114,381.485251 956.890737,378.168378 C957.340331,372.916846 957.513606,369.523497 961.418543,368.606777 C964.750307,367.785453 967.56445,369.891576 968.353774,373.093531 C969.399095,377.333959 966.496407,379.151088 964.515462,380.052509 L965.390118,383.600622 C971.319873,381.58807 972.395973,376.457491 971.41465,372.476682 C970.209331,367.58721 965.887992,363.649474 960.240999,365.133331 C954.183245,366.626647 953.914982,372.613763 953.776121,375.40194 L953.758728,375.643199 L953.758728,375.643199 L953.6906,376.607128 L953.6906,376.607128 L953.654244,377.08637 C953.381745,380.510222 952.806007,383.673431 948.935968,384.627446 C945.387855,385.502103 942.07762,383.059283 941.256296,379.727519 C940.765635,377.737114 940.930657,373.565514 946.124828,371.734293 L945.239505,368.14291 C939.191814,369.863242 936.915435,375.152008 938.238086,380.517446 Z M944.283636,408.149891 C945.382866,414.200827 950.317067,417.426255 955.622598,416.462437 C961.585839,415.379138 962.419688,410.245276 963.045986,406.960894 C963.820057,401.747303 964.203222,398.371206 968.15745,397.698164 C971.533697,397.084826 974.211957,399.361243 974.801399,402.605948 C975.582012,406.902989 972.572325,408.536802 970.53934,409.31377 L971.192506,412.909253 C977.235551,411.267924 978.627431,406.213866 977.89461,402.179909 C976.994516,397.225157 972.925426,393.027272 967.197353,394.158439 C961.058722,395.2736 960.420064,401.232596 960.108738,404.006815 C959.566039,408.000721 959.266474,412.086341 954.706348,412.914746 C951.110864,413.567912 947.958324,410.92471 947.344986,407.548463 C946.978576,405.531485 947.401718,401.378121 952.699358,399.872204 L952.038227,396.232873 C945.895576,397.575236 943.295922,402.712818 944.283636,408.149891 Z M962.735739,451.268071 C962.959782,453.977288 965.267921,455.932835 967.932724,455.712465 C970.597528,455.492095 972.597488,453.180284 972.380791,450.559893 L972.377118,450.51548 C972.14573,447.717436 969.752437,445.813648 967.132047,446.030345 C964.511656,446.247043 962.511696,448.558854 962.735739,451.268071 Z M952.706054,491.668656 L982.427207,492.137773 L982.345622,497.306669 C982.298499,500.292153 982.132468,502.339777 981.037018,503.971597 C979.667881,506.000232 977.064444,507.162544 974.613674,507.123862 C972.252023,507.086585 970.258804,506.297425 968.592975,504.53288 C966.972408,502.724479 966.978488,499.515496 967.015061,497.198404 L967.031941,496.128977 L952.492244,505.214729 L952.428945,509.225079 L964.901324,501.220961 C965.165414,504.255927 965.75197,506.627424 968.394591,508.63024 C970.244285,510.041122 972.596089,510.702231 974.824765,510.692838 C978.567758,510.751917 982.116791,508.980542 983.763131,506.332295 C984.859284,504.655915 985.521096,502.259552 985.602682,497.090655 L985.738423,488.490682 L952.76443,487.970221 L952.706054,491.668656 Z M950.617532,537.085249 L953.86054,537.343121 L955.019197,522.771794 L966.747338,523.704371 L965.595746,538.186848 L968.838755,538.44472 L969.990347,523.962243 L981.407514,524.870093 L980.248857,539.44142 L983.491866,539.699291 L984.940187,521.485133 L952.065852,518.871091 L950.617532,537.085249 Z M947.592299,560.870729 L978.314808,578.628764 L978.878565,574.792814 L952.562795,559.844521 L982.060225,553.143949 L982.623982,549.308 L948.104216,557.387511 L947.592299,560.870729 Z M940.43767,594.877955 C938.240933,604.34151 943.754229,613.30727 953.174373,615.493929 C962.594518,617.680589 971.503686,612.016908 973.690345,602.596763 C975.796391,593.523905 970.764484,584.25814 960.86682,581.960635 L960.82341,581.950559 C951.66373,579.82436 942.644483,585.370989 940.43767,594.877955 Z M943.596582,595.65697 C945.339863,588.146901 952.56379,583.830527 960.11727,585.583886 L960.160681,585.593963 C967.583928,587.317091 972.274715,594.307679 970.521357,601.861159 C968.747845,609.50146 961.337094,613.637218 954.000669,611.934244 C946.664243,610.231269 941.833146,603.253861 943.596582,595.65697 Z M929.891225,636.553592 L932.998192,637.518144 L936.72427,625.515889 L965.112582,634.32899 L966.209265,630.796411 L934.713986,621.018758 L929.891225,636.553592 Z M922.921501,654.057281 C921.907431,656.723079 921.91068,659.34674 922.718899,661.609087 C923.920607,665.594572 927.286827,667.399567 930.884838,668.720571 L950.420139,676.151802 L951.719416,672.736248 L932.184115,665.305017 C929.768236,664.386016 927.977153,663.704688 926.490721,661.470432 C925.345677,659.842846 925.1224,657.421568 925.962177,655.213954 C926.817798,652.964687 928.635523,651.319807 930.588653,650.823085 C933.115993,650.185203 934.866235,650.784358 937.060682,651.61635 L956.884835,659.15734 L958.199957,655.700133 L938.664656,648.268902 C935.290755,646.98547 931.696826,645.904421 927.836784,648.155138 C925.400144,649.421541 923.745433,651.89132 922.921501,654.057281 Z M911.838803,682.661862 L938.897324,694.966473 L935.521396,702.390325 L938.482823,703.737007 L946.74739,685.562768 L943.785962,684.216086 L940.428482,691.599371 L913.369962,679.29476 L911.838803,682.661862 Z M903.339718,700.621693 L932.738574,715.563659 L934.394305,712.305948 L904.995449,697.363982 L903.339718,700.621693 Z M889.698239,723.585032 C884.766235,731.955209 887.339045,742.161184 895.670827,747.070564 C904.002608,751.979945 914.199664,749.246701 919.109044,740.91492 C923.837434,732.890301 921.813796,722.542383 913.059666,717.38414 L913.021271,717.361516 C904.919861,712.587879 894.652868,715.17646 889.698239,723.585032 Z M892.478473,725.274971 C896.392403,718.632583 904.577892,716.679644 911.258676,720.616198 L911.297071,720.638822 C917.862668,724.507504 920.242741,732.582594 916.306187,739.263377 C912.324385,746.020951 904.014791,747.745584 897.525984,743.922149 C891.037177,740.098715 888.519295,731.994149 892.478473,725.274971 Z M874.319669,749.653868 L896.977965,765.699086 L863.013932,765.511113 L860.944231,768.414042 L887.796317,787.558769 L889.866017,784.655841 L867.415026,768.703693 L901.06827,768.943742 L903.241455,765.895667 L876.389369,746.75094 L874.319669,749.653868 Z M841.037614,793.439634 L865.971212,815.023674 L868.362957,812.260762 L843.429359,790.676722 L841.037614,793.439634 Z M831.155214,804.262442 L851.146949,823.52842 L817.596319,818.24201 L815.114142,820.801198 L838.786636,843.76134 L841.268813,841.202151 L821.468055,822.05932 L854.703599,827.350543 L857.309885,824.663395 L833.637391,801.703254 L831.155214,804.262442 Z M791.824104,842.291304 L800.091203,852.283044 L796.005234,855.663748 C792.70899,858.391038 791.333108,860.223532 790.730202,862.92035 C790.179412,865.400523 791.132059,868.719058 793.120708,871.122569 C795.080948,873.491744 798.071264,875.008642 800.833275,874.92135 C803.40705,874.816279 805.430419,873.836255 809.00135,870.881691 L815.696845,865.341882 L794.673981,839.933335 L791.824104,842.291304 Z M798.113447,858.141857 L802.16508,854.789563 L810.773091,865.193333 L806.790129,868.488809 C804.626969,870.278593 803.123341,871.117795 801.171091,871.344877 C799.441412,871.561329 797.316451,870.600957 795.81076,868.781155 C794.333477,866.99569 793.787966,864.72849 794.29012,863.09834 C794.878724,861.223136 795.984623,859.903232 798.113447,858.141857 Z M769.180437,860.464493 L786.606161,884.545838 L782.418101,887.576398 C779.999136,889.326808 778.259977,890.420271 776.297117,890.52042 C773.852569,890.639075 771.362482,889.250434 769.925578,887.264716 C768.540925,885.351206 767.979044,883.282394 768.394329,880.891548 C768.871843,878.51068 771.445203,876.593538 773.322609,875.235011 L774.189104,874.607999 L758.204832,868.406653 L754.955475,870.75795 L768.835374,875.951652 C766.563183,877.980915 765.015431,879.871023 764.994388,883.186784 C764.972437,885.513042 765.851634,887.792309 767.194014,889.571382 C769.388558,892.604115 772.932737,894.385182 776.039494,894.117393 C778.038457,893.991118 780.353828,893.085795 784.541888,890.055235 L791.509953,885.013008 L772.177066,858.296075 L769.180437,860.464493 Z M733.132592,883.980361 C724.834682,889.033006 722.287391,899.24538 727.316859,907.505225 C732.346327,915.765071 742.626537,918.166703 750.886383,913.137235 C758.841718,908.293185 761.94018,898.21479 756.655762,889.536243 L756.632584,889.498179 C751.74218,881.466716 741.468565,878.904538 733.132592,883.980361 Z M734.786469,886.782196 C741.371507,882.772527 749.509975,884.912982 753.54282,891.536084 L753.565998,891.574148 C757.529311,898.083059 755.817544,906.325732 749.194442,910.358577 C742.495212,914.437777 734.35505,912.037472 730.438091,905.604689 C726.521132,899.171906 728.125303,890.838218 734.786469,886.782196 Z M696.088049,904.434475 C690.121954,907.349568 685.780615,913.488409 685.937446,920.306216 C685.956507,922.578514 686.612575,924.936367 687.413802,926.67769 L705.992783,917.599817 L704.662405,914.877036 L689.927351,922.076728 C689.273108,919.519583 689.618975,916.572974 690.898963,913.913949 C692.158474,911.31453 694.393058,908.883483 697.516249,907.357461 C704.002876,904.188031 712.114668,906.374962 715.792772,913.902652 C719.412182,921.31022 716.192397,929.03387 709.70577,932.2033 C707.063071,933.494549 704.368975,933.868506 701.801387,933.486246 C700.109226,933.271447 698.459842,932.738146 696.912841,931.906817 L693.148996,933.745869 C697.838658,937.456085 705.047752,938.100072 711.053888,935.165415 C719.622642,930.978637 723.459459,921.16789 719.116167,912.278809 C714.831567,903.50985 704.736885,900.208569 696.088049,904.434475 Z M669.058334,917.741907 L679.93517,945.405266 L675.124151,947.296889 C672.345373,948.389465 670.388634,949.015169 668.462714,948.623148 C666.065683,948.129046 664.000065,946.163828 663.103175,943.882742 C662.238898,941.684604 662.210142,939.541039 663.20797,937.329039 C664.263579,935.142206 667.233422,933.92662 669.390085,933.078651 L670.385469,932.687281 L656.450146,922.699265 L652.717459,924.166904 L664.865797,932.654779 C662.159695,934.053982 660.189856,935.498899 659.343413,938.704869 C658.742608,940.95231 659.026244,943.378748 659.883073,945.436156 C661.25287,948.919997 664.241577,951.527876 667.317091,952.042524 C669.284485,952.418238 671.752396,952.118294 676.563415,950.226671 L684.567956,947.0794 L672.500701,916.388417 L669.058334,917.741907 Z M626.257641,933.069398 L627.249448,936.167772 L641.170909,931.71143 L644.75772,942.916508 L630.921147,947.345677 L631.912955,950.444051 L645.749528,946.014882 L649.241235,956.922856 L635.319774,961.379198 L636.311582,964.477571 L653.713408,958.907144 L643.659466,927.498971 L626.257641,933.069398 Z M607.789079,937.587412 C601.826426,939.093702 598.942387,944.234912 600.263119,949.463035 C601.747579,955.339272 606.926108,955.823703 610.245351,956.226249 C615.49938,956.645642 618.89367,956.799404 619.832826,960.699006 C620.673292,964.025993 618.583384,966.852198 615.38602,967.659919 C611.151673,968.729603 609.317884,965.83741 608.405088,963.86168 L604.862063,964.756722 C606.908675,970.674808 612.045356,971.721391 616.020457,970.717198 C620.902919,969.483786 624.815744,965.139879 623.299445,959.50151 C621.771325,953.452443 615.782765,953.218607 612.993835,953.095778 C612.832976,953.084934 612.671997,953.074488 612.511092,953.064137 L612.028794,953.033072 C608.335864,952.792479 604.785015,952.442853 603.740654,948.308747 C602.845612,944.765722 605.269359,941.441497 608.596346,940.60103 C610.583897,940.098934 614.756377,940.239969 616.617432,945.423525 L620.203664,944.517568 C618.448591,938.479869 613.146824,936.233934 607.789079,937.587412 Z M580.180727,943.795337 C574.136251,944.929549 570.939417,949.882324 571.933906,955.182191 C573.05168,961.139066 578.190279,961.943206 581.478229,962.550497 C586.69621,963.294399 590.074466,963.658029 590.770369,967.608298 C591.403226,970.980941 589.142338,973.672323 585.901097,974.280523 C581.608643,975.085978 579.957448,972.085791 579.168735,970.057335 L575.57709,970.731287 C577.253346,976.764737 582.315369,978.12736 586.34502,977.371219 C591.294483,976.44248 595.468762,972.349177 594.304482,966.627743 C593.153833,960.495665 587.191242,959.891485 584.415268,959.59621 L583.93541,959.53474 C583.855433,959.524593 583.775472,959.514472 583.695555,959.504339 L583.216789,959.443121 L583.216789,959.443121 L582.740346,959.379899 C579.337209,958.915487 576.211339,958.162958 575.476238,954.245436 C574.802287,950.653791 577.42721,947.486014 580.799852,946.853157 C582.814678,946.475087 586.97042,946.874198 588.506954,952.163039 L592.1424,951.480869 C590.764529,945.346085 585.611996,942.776191 580.180727,943.795337 Z M537.165738,962.493 C534.457837,962.732417 532.515422,965.051619 532.750914,967.715128 C532.986406,970.378638 535.309532,972.365445 537.92865,972.133878 L537.973042,972.129953 C540.769727,971.882686 542.6599,969.478626 542.428333,966.859508 C542.196766,964.24039 539.87364,962.253584 537.165738,962.493 Z" id="REVOLUTIONINPROGRESS•REVOLUTIONINPROGRESS•REVOLUTIONINPROGRESS•REVOLUTIONINPROGRESS•"></path>
            </g>
        </g>
    </g>
</svg>