<?xml version="1.0" encoding="UTF-8"?>
<svg width="30px" height="30px" viewBox="0 0 30 30" version="1.1" xmlns="http://www.w3.org/2000/svg" xmlns:xlink="http://www.w3.org/1999/xlink">
    <!-- Generator: Sketch 49.3 (51167) - http://www.bohemiancoding.com/sketch -->
    <title>icon_dribble</title>
    <desc>Created with Sketch.</desc>
    <defs></defs>
    <g id="Page-1" stroke="none" stroke-width="1" fill="none" fill-rule="evenodd">
        <g id="Home" transform="translate(-1140.000000, -3508.000000)" fill="#203A4B" fill-rule="nonzero">
            <g id="Footer" transform="translate(60.000000, 3507.000000)">
                <g id="Social" transform="translate(1080.000000, 0.000000)">
                    <g id="icon_dribble" transform="translate(0.000000, 1.000000)">
                        <path d="M15,30 C6.71572836,30 0,23.2842716 0,15 C0,6.71572836 6.71572836,0 15,0 C23.2842716,0 30,6.71572836 30,15 C30,23.2842716 23.2842716,30 15,30 Z M15,28.2 C22.2901591,28.2 28.2,22.2901591 28.2,15 C28.2,7.70984094 22.2901591,1.8 15,1.8 C7.70984094,1.8 1.8,7.70984094 1.8,15 C1.8,22.2901591 7.70984094,28.2 15,28.2 Z" id="Oval-1"></path>
                        <path d="M22.6419097,13.1339482 C22.5396726,12.63286 22.3860013,12.1393449 22.1872069,11.6679182 C21.9918835,11.2050111 21.7495436,10.7594592 21.4680759,10.3429375 C21.1888171,9.92988684 20.8685371,9.54176437 20.5157559,9.18929869 C20.1632902,8.83620191 19.7748522,8.51560645 19.3621171,8.2369787 C18.9455955,7.95456439 18.4994124,7.71317115 18.0371365,7.51721664 C17.5657097,7.31873775 17.0725101,7.16475095 16.5711064,7.06314491 C16.0577119,6.95775231 15.5288556,6.90410937 15.0006304,6.90410937 C14.4717741,6.90410937 13.9435489,6.95775231 13.4295233,7.06314491 C12.9284351,7.16475095 12.43492,7.3190533 11.9638088,7.51721664 C11.5015328,7.71317115 11.0553498,7.95487993 10.638197,8.2369787 C10.2251464,8.51560645 9.83702391,8.83588637 9.48455823,9.18929869 C9.131777,9.54176437 8.81181263,9.93020238 8.53286933,10.3429375 C8.25108611,10.7594592 8.00906178,11.2050111 7.81373836,11.6679182 C7.61399729,12.1393449 7.46095714,12.63286 7.35840445,13.1339482 C7.2533274,13.6467116 7.2,14.1755679 7.2,14.7041087 C7.2,15.2335961 7.2533274,15.7624524 7.35840445,16.2755313 C7.46095714,16.7766195 7.61431284,17.2701346 7.81342282,17.7412458 C8.00874624,18.2035218 8.25108611,18.6503359 8.53255379,19.0668576 C8.81149708,19.4799082 9.13146146,19.8673996 9.48424269,20.2204964 C9.83670837,20.5729621 10.2251464,20.8929264 10.6378815,21.1721853 C11.0550342,21.4539685 11.5012173,21.6959928 11.9634932,21.8913162 C12.4342889,22.0910573 12.9281196,22.2431508 13.4292077,22.3460191 C13.9432333,22.4520428 14.4714585,22.5050546 15.0003148,22.5050546 C15.5285401,22.5050546 16.0573963,22.4520428 16.5707909,22.3460191 C17.0725101,22.2431508 17.5653941,22.0907418 18.0368209,21.8913162 C18.4990968,21.6959928 18.9452799,21.4536529 19.3618016,21.1721853 C19.7748522,20.8929264 20.1629747,20.5732776 20.5154404,20.2204964 C20.8679061,19.8673996 21.1885015,19.4795927 21.4677604,19.0668576 C21.7495436,18.6503359 21.9915679,18.2035218 22.1868913,17.7412458 C22.3860013,17.2704501 22.539357,16.7766195 22.6415941,16.2755313 C22.7469868,15.7621368 22.7999986,15.2332805 22.7999986,14.7041087 C22.8003141,14.1755679 22.7473023,13.6467116 22.6419097,13.1339482 Z M21.6592972,14.6381594 C21.5630555,14.6173333 19.3087897,14.1320225 17.0198138,14.4198011 C16.9731129,14.3058887 16.9254654,14.1910297 16.8762401,14.0758552 C16.7377151,13.7498954 16.5884615,13.4267756 16.4332125,13.1096511 C19.064241,12.0361612 20.1323667,10.49156 20.144673,10.4732583 C21.0790068,11.6073332 21.644151,13.0569548 21.6592972,14.6381594 Z M19.3999827,9.70490203 C19.3832587,9.73077686 18.4347253,11.1747186 15.9204491,12.1172567 C14.781641,10.0248664 13.5304982,8.36288184 13.4304699,8.23098331 C13.9340825,8.10886673 14.4591522,8.04291747 15.0003148,8.04291747 C16.6872276,8.04291747 18.2261489,8.67148653 19.3999827,9.70490203 Z M13.4045951,8.23634761 C13.4045951,8.2369787 13.4033329,8.23760979 13.4033329,8.23760979 C13.4033329,8.23760979 13.3960753,8.23950307 13.383769,8.24202745 C13.3903955,8.24013417 13.3979686,8.23887198 13.4045951,8.23634761 Z M12.15787,8.6793752 C12.2465386,8.79833631 13.4787486,10.4685251 14.6317563,12.5176855 C11.4330592,13.3674528 8.65719474,13.3343204 8.48111967,13.3311649 C8.91404977,11.2678049 10.3002465,9.55691062 12.15787,8.6793752 Z M8.3388081,14.7041087 C8.3388081,14.6331107 8.34196357,14.5636904 8.34448794,14.493639 C8.46187132,14.4961634 11.7536547,14.570948 15.1833319,13.5444745 C15.3742377,13.9180818 15.5569393,14.2976845 15.7238635,14.6769716 C15.6358259,14.7015843 15.5481039,14.7280902 15.4613286,14.7564894 C11.8663049,15.9183324 10.0427604,19.1533174 10.0427604,19.1533174 C10.0427604,19.1533174 10.0452847,19.1552107 10.0452847,19.1564728 C8.98473223,17.9760126 8.3388081,16.4156341 8.3388081,14.7041087 Z M15.0003148,21.3662465 C13.3881867,21.3662465 11.9095348,20.7932137 10.7571581,19.8396315 C10.8445646,19.9106295 10.9064117,19.9560682 10.9064117,19.9560682 C10.9064117,19.9560682 12.1834293,17.1710529 16.1337587,15.7946381 C16.1485894,15.7889583 16.16342,15.7848562 16.1782507,15.7804385 C17.11574,18.2161436 17.5026003,20.2561532 17.6013664,20.8383368 C16.8017711,21.1784962 15.9229734,21.3662465 15.0003148,21.3662465 Z M18.7228195,20.2299628 C18.6549769,19.8276407 18.2999869,17.8725133 17.426238,15.4715183 C19.5763733,15.1275724 21.4403078,15.7173292 21.5775706,15.7624524 C21.2809567,17.6184981 20.2185109,19.2195822 18.7228195,20.2299628 Z" id="Shape"></path>
                    </g>
                </g>
            </g>
        </g>
    </g>
</svg>