<?xml version="1.0" encoding="UTF-8"?>
<svg width="30px" height="30px" viewBox="0 0 30 30" version="1.1" xmlns="http://www.w3.org/2000/svg" xmlns:xlink="http://www.w3.org/1999/xlink">
    <!-- Generator: Sketch 49.3 (51167) - http://www.bohemiancoding.com/sketch -->
    <title>icon_linkedin</title>
    <desc>Created with Sketch.</desc>
    <defs></defs>
    <g id="Page-1" stroke="none" stroke-width="1" fill="none" fill-rule="evenodd">
        <g id="Home" transform="translate(-1266.000000, -3508.000000)" fill="#203A4B" fill-rule="nonzero">
            <g id="Footer" transform="translate(60.000000, 3507.000000)">
                <g id="Social" transform="translate(1080.000000, 0.000000)">
                    <g id="icon_linkedin" transform="translate(126.000000, 1.000000)">
                        <path d="M15,30 C6.71572836,30 0,23.2842716 0,15 C0,6.71572836 6.71572836,0 15,0 C23.2842716,0 30,6.71572836 30,15 C30,23.2842716 23.2842716,30 15,30 Z M15,28.2 C22.2901591,28.2 28.2,22.2901591 28.2,15 C28.2,7.70984094 22.2901591,1.8 15,1.8 C7.70984094,1.8 1.8,7.70984094 1.8,15 C1.8,22.2901591 7.70984094,28.2 15,28.2 Z M8.4,12.0708287 L8.4,20.79491 L11.2260511,20.79491 L11.2260511,12.0708287 L8.4,12.0708287 Z M9.99881772,7.8 C9.03204348,7.8 8.4,8.45151666 8.4,9.30690732 C8.4,10.1445799 9.01336266,10.8148568 9.96213336,10.8148568 L9.98019336,10.8148568 C10.965592,10.8148568 11.5792933,10.1445799 11.5792933,9.30690732 C11.5609511,8.45151666 10.965592,7.8 9.99881772,7.8 Z M18.3461528,12.0708287 C16.8457056,12.0708287 16.1739301,12.9175919 15.7988465,13.5116116 L15.7988465,12.2759186 L12.9724568,12.2759186 C13.0097056,13.0945414 12.9724568,21 12.9724568,21 L15.7988465,21 L15.7988465,16.1277532 C15.7988465,15.8670192 15.8171887,15.6069221 15.8919119,15.420245 C16.0961592,14.899356 16.5612041,14.360054 17.3419604,14.360054 C18.3650029,14.360054 18.7739489,15.1600321 18.7739489,16.33238 L18.7739489,20.9997684 L21.5998871,20.9997684 L21.6,15.9976468 C21.6,13.3179863 20.2058246,12.0708287 18.3461528,12.0708287 Z" id="Oval-1"></path>
                    </g>
                </g>
            </g>
        </g>
    </g>
</svg>