<?xml version="1.0" encoding="UTF-8"?>
<svg width="30px" height="30px" viewBox="0 0 30 30" version="1.1" xmlns="http://www.w3.org/2000/svg" xmlns:xlink="http://www.w3.org/1999/xlink">
    <!-- Generator: Sketch 49.3 (51167) - http://www.bohemiancoding.com/sketch -->
    <title>icon_tumblr</title>
    <desc>Created with Sketch.</desc>
    <defs></defs>
    <g id="Page-1" stroke="none" stroke-width="1" fill="none" fill-rule="evenodd">
        <g id="Home" transform="translate(-1308.000000, -3508.000000)" fill="#203A4B" fill-rule="nonzero">
            <g id="Footer" transform="translate(60.000000, 3507.000000)">
                <g id="Social" transform="translate(1080.000000, 0.000000)">
                    <g id="icon_tumblr" transform="translate(168.000000, 1.000000)">
                        <path d="M15,30 C6.71572836,30 0,23.2842716 0,15 C0,6.71572836 6.71572836,0 15,0 C23.2842716,0 30,6.71572836 30,15 C30,23.2842716 23.2842716,30 15,30 Z M15,28.2 C22.2901591,28.2 28.2,22.2901591 28.2,15 C28.2,7.70984094 22.2901591,1.8 15,1.8 C7.70984094,1.8 1.8,7.70984094 1.8,15 C1.8,22.2901591 7.70984094,28.2 15,28.2 Z M12.0727273,14.0571432 L12.0727273,17.7465838 C12.1732819,20.7633441 13.8896385,21.3922018 15.8909093,21.6 C17.0543607,21.5440929 18.4796704,21.1277101 19.2,20.575155 L19.2,18.4844718 C18.2730544,19.3545938 15.78554,20.2081163 15.3393943,17.7465838 L15.2969698,14.0161491 L19.2,14.0571432 L19.2,11.5565223 L15.2969698,11.5565223 L15.381818,8.4 L13.8121214,8.4409941 C13.9201684,11.1335871 12.4392166,11.4940272 10.8,11.5975156 L10.8,14.0571432 L12.0727273,14.0571432 Z" id="Oval-1"></path>
                    </g>
                </g>
            </g>
        </g>
    </g>
</svg>