<svg width="24" height="24" viewBox="0 0 24 24" fill="none" xmlns="http://www.w3.org/2000/svg">
<path fill-rule="evenodd" clip-rule="evenodd" d="M13.6668 7.3132C12.6192 7.6944 11.9572 8.6776 12.0324 9.7536L12.0576 10.1688L11.6384 10.118C10.1132 9.9232 8.7804 9.2624 7.6488 8.152L7.0956 7.6012L6.9532 8.008C6.6516 8.9148 6.8444 9.8724 7.4728 10.5164C7.808 10.8724 7.7324 10.9232 7.1544 10.7112C6.9532 10.6436 6.7772 10.5928 6.7604 10.618C6.702 10.6776 6.9028 11.4484 7.062 11.7536C7.28 12.1776 7.724 12.5924 8.2104 12.8384L8.6212 13.0332L8.1352 13.0416C7.666 13.0416 7.6492 13.05 7.6996 13.2284C7.8672 13.7792 8.5292 14.364 9.2668 14.6184L9.7864 14.796L9.334 15.0672C8.6636 15.4576 7.8756 15.6776 7.0876 15.694C6.71 15.7024 6.4 15.7364 6.4 15.762C6.4 15.8464 7.4228 16.3208 8.0176 16.5076C9.8028 17.0584 11.9236 16.8208 13.516 15.8804C14.6476 15.2108 15.7788 13.8804 16.3072 12.592C16.5924 11.906 16.8772 10.6516 16.8772 10.0504C16.8772 9.6604 16.9024 9.6096 17.3716 9.1436C17.6484 8.8724 17.908 8.576 17.9584 8.4912C18.0424 8.33 18.0336 8.33 17.6064 8.474C16.894 8.7284 16.7932 8.6944 17.1456 8.3132C17.4052 8.042 17.7156 7.5504 17.7156 7.4064C17.7156 7.3812 17.59 7.4232 17.4472 7.4996C17.2964 7.5844 16.9612 7.7116 16.7096 7.7876L16.2572 7.932L15.8464 7.652C15.62 7.4996 15.302 7.33 15.134 7.2792C14.7064 7.1608 14.0524 7.1776 13.6668 7.3132ZM12 24C5.3728 24 0 18.6272 0 12C0 5.3724 5.3728 0 12 0C18.6272 0 24 5.3724 24 12C24 18.6272 18.6272 24 12 24Z" fill="white"/>
</svg>
