<?xml version="1.0" encoding="UTF-8"?>
<svg width="30px" height="30px" viewBox="0 0 30 30" version="1.1" xmlns="http://www.w3.org/2000/svg" xmlns:xlink="http://www.w3.org/1999/xlink">
    <!-- Generator: Sketch 49.3 (51167) - http://www.bohemiancoding.com/sketch -->
    <title>icon_twitter</title>
    <desc>Created with Sketch.</desc>
    <defs></defs>
    <g id="Page-1" stroke="none" stroke-width="1" fill="none" fill-rule="evenodd">
        <g id="Home" transform="translate(-1182.000000, -3508.000000)" fill="#203A4B" fill-rule="nonzero">
            <g id="Footer" transform="translate(60.000000, 3507.000000)">
                <g id="Social" transform="translate(1080.000000, 0.000000)">
                    <g id="icon_twitter" transform="translate(42.000000, 1.000000)">
                        <path d="M15,30 C6.71572836,30 0,23.2842716 0,15 C0,6.71572836 6.71572836,0 15,0 C23.2842716,0 30,6.71572836 30,15 C30,23.2842716 23.2842716,30 15,30 Z M15,28.2 C22.2901591,28.2 28.2,22.2901591 28.2,15 C28.2,7.70984094 22.2901591,1.8 15,1.8 C7.70984094,1.8 1.8,7.70984094 1.8,15 C1.8,22.2901591 7.70984094,28.2 15,28.2 Z M15.4093532,12.9325785 L15.4379664,13.4256607 L14.96108,13.3652833 C13.2252135,13.1338365 11.7087148,12.3489302 10.4211215,11.0306902 L9.79163142,10.3766017 L9.62949006,10.8596209 C9.28613184,11.9363513 9.50549958,13.0734591 10.2208292,13.8382396 C10.6023383,14.2608814 10.5164987,14.3212588 9.85839552,14.0696863 C9.62949006,13.9891831 9.42919776,13.9288057 9.41012226,13.9589944 C9.34335822,14.0294347 9.57226368,14.9451587 9.75348048,15.3074231 C10.0014614,15.8105682 10.506961,16.3036503 11.0601492,16.5954745 L11.5274979,16.8269212 L10.9743097,16.8369841 C10.4401969,16.8369841 10.4211215,16.847047 10.4783479,17.0583679 C10.6691024,17.7124565 11.4225829,18.4067966 12.261903,18.7086836 L12.8532421,18.9200046 L12.3382048,19.2420174 C11.5751866,19.7049109 10.6786401,19.9665463 9.7820937,19.9866721 C9.35289594,19.996735 9,20.0369866 9,20.0671753 C9,20.1678043 10.1636028,20.7313268 10.8407815,20.9527106 C12.8723176,21.6067991 15.2853628,21.3250379 17.0975311,20.2080559 C18.3851243,19.4130867 19.6727177,17.8332113 20.2735945,16.3036503 C20.5978772,15.4885553 20.92216,13.999246 20.92216,13.28478 C20.92216,12.8218866 20.9507732,12.7615092 21.4848859,12.2080496 C21.799631,11.8860368 22.0953005,11.5338353 22.1525269,11.4332062 C22.2479042,11.2420111 22.2383665,11.2420111 21.7519424,11.4130804 C20.9412355,11.7149675 20.8267827,11.6747159 21.2273673,11.2218853 C21.5230369,10.8998725 21.8759328,10.3162243 21.8759328,10.1451549 C21.8759328,10.1149662 21.7328669,10.1652808 21.5707255,10.2558468 C21.3990464,10.3564759 21.0175373,10.5074194 20.7314054,10.5979855 L20.2163681,10.7690548 L19.7490194,10.436979 C19.4915008,10.2558468 19.1290672,10.0545888 18.9383126,9.9942114 C18.4518884,9.8533308 17.7079457,9.8734566 17.2692101,10.034463 C16.0769942,10.4872936 15.3235136,11.6545901 15.4093532,12.9325785 C15.4093532,12.9325785 15.3235136,11.6545901 15.4093532,12.9325785 Z" id="Oval-1"></path>
                    </g>
                </g>
            </g>
        </g>
    </g>
</svg>