<?xml version="1.0" encoding="UTF-8"?>
<svg width="30px" height="30px" viewBox="0 0 30 30" version="1.1" xmlns="http://www.w3.org/2000/svg" xmlns:xlink="http://www.w3.org/1999/xlink">
    <!-- Generator: Sketch 49.3 (51167) - http://www.bohemiancoding.com/sketch -->
    <title>icon_instagram</title>
    <desc>Created with Sketch.</desc>
    <defs></defs>
    <g id="Page-1" stroke="none" stroke-width="1" fill="none" fill-rule="evenodd">
        <g id="Home" transform="translate(-1224.000000, -3508.000000)" fill="#203A4B" fill-rule="nonzero">
            <g id="Footer" transform="translate(60.000000, 3507.000000)">
                <g id="Social" transform="translate(1080.000000, 0.000000)">
                    <g id="icon_instagram" transform="translate(84.000000, 1.000000)">
                        <path d="M15,0 C23.2842716,0 30,6.71572836 30,15 C30,23.2842716 23.2842716,30 15,30 C6.71572836,30 0,23.2842716 0,15 C0,6.71572836 6.71572836,0 15,0 Z M15,1.8 C7.70984094,1.8 1.8,7.70984094 1.8,15 C1.8,22.2901591 7.70984094,28.2 15,28.2 C22.2901591,28.2 28.2,22.2901591 28.2,15 C28.2,7.70984094 22.2901591,1.8 15,1.8 Z M21.5707877,20.7057995 C21.465435,21.2726556 21.0249889,21.7427698 20.485975,21.8623672 C20.418127,21.8777356 20.3493368,21.8877841 20.280735,21.9 L9.719265,21.9 C9.6911835,21.8952713 9.66291354,21.8895574 9.63483204,21.8860109 C9.05416698,21.8079869 8.5660389,21.3445717 8.43675096,20.7467818 C8.42167362,20.6770331 8.41206186,20.6062993 8.4,20.5361565 L8.4,9.46443462 C8.4043347,9.43862364 8.4094233,9.4130097 8.4128157,9.38719872 C8.4961179,8.76773556 8.92883682,8.27535696 9.51364812,8.13605652 C9.57659592,8.12108226 9.64086294,8.11201884 9.70475304,8.1 L20.295247,8.1 C20.3197475,8.10453168 20.3440597,8.1102456 20.3689373,8.1135951 C20.9680721,8.19930324 21.4560116,8.67926898 21.5715416,9.297747 C21.5828495,9.35803824 21.5907652,9.41872356 21.6,9.4792119 L21.6,20.5207881 C21.5903882,20.5822616 21.5820957,20.6445231 21.5707877,20.7057995 Z M9.8281986,19.8593575 C9.8281986,20.1531296 10.0715087,20.4057224 10.3525122,20.4057224 C13.4501464,20.4059195 16.5475921,20.4059195 19.6452262,20.4057224 C19.9288682,20.4057224 20.1708591,20.1535237 20.1708591,19.8575842 C20.1710476,17.8177298 20.1708591,15.7780725 20.1708591,13.7384152 L20.1708591,13.6960537 L18.9107726,13.6960537 C19.0886849,14.290494 19.1433401,14.8951799 19.0736075,15.5114906 C19.0034981,16.1279983 18.8135239,16.7017504 18.504062,17.2315648 C18.1944117,17.7619703 17.7929782,18.2013478 17.3014577,18.5510765 C16.0274247,19.4582039 14.3500735,19.5380011 12.9982039,18.7447573 C12.3148246,18.3441947 11.7782607,17.7856139 11.4041548,17.0658623 C10.8461057,15.9918504 10.7569611,14.8646402 11.0843273,13.6950685 C10.6663088,13.6954626 10.2499864,13.6954626 9.82801008,13.6954626 L9.82801008,13.7327013 C9.82801008,15.77492 9.82782162,17.8171388 9.8281986,19.8593575 Z M14.9386542,17.7948743 C16.4331929,17.8283695 17.6420166,16.5799857 17.6734905,15.0616705 C17.7057182,13.4958709 16.4976485,12.2025643 15.0000943,12.2035494 C13.5360871,12.2025643 12.3459215,13.4340034 12.3253787,14.9576385 C12.3042705,16.5222559 13.5023515,17.7625614 14.9386542,17.7948743 Z M20.1706706,11.0889492 C20.1708591,10.6533152 20.1708591,10.2174843 20.1706706,9.7818504 C20.1706706,9.46936038 19.9341452,9.22070814 19.6356145,9.22051116 C19.220046,9.22031412 18.8044775,9.22011708 18.3887206,9.22051116 C18.0909436,9.22090518 17.8536644,9.47014848 17.8534759,9.7826385 C17.8532875,10.2145288 17.8521566,10.6464192 17.8549837,11.0785066 C17.8553606,11.1429355 17.8670455,11.2099258 17.886646,11.2710052 C17.9612787,11.5009394 18.1627493,11.6420131 18.4094519,11.6431953 C18.6099802,11.6435894 18.8105084,11.6429983 19.0112252,11.6429983 C19.2283385,11.6404369 19.4462057,11.6447716 19.6635075,11.6392547 C19.9430032,11.6319646 20.1706706,11.3815391 20.1706706,11.0889492 Z" id="Oval-1"></path>
                    </g>
                </g>
            </g>
        </g>
    </g>
</svg>