<svg width="32" height="32" viewBox="0 0 32 32" fill="none" xmlns="http://www.w3.org/2000/svg">
<path fill-rule="evenodd" clip-rule="evenodd" d="M32 16C32 24.8366 24.8366 32 16 32C7.16344 32 0 24.8366 0 16C0 7.16344 7.16344 0 16 0C24.8366 0 32 7.16344 32 16ZM16.0417 5.95172C18.7057 5.95297 21.206 6.98997 23.0865 8.87247C24.966 10.7547 26.0012 13.2567 26 15.9172C25.9977 21.4077 21.5305 25.8755 16.042 25.8755H16.0378C14.371 25.8747 12.7335 25.4565 11.2788 24.6637L6 26.0482L7.4125 20.8877C6.54125 19.3782 6.0825 17.665 6.0835 15.9095C6.08525 10.4187 10.5532 5.95172 16.0417 5.95172ZM16.0387 24.1935H16.042C20.6038 24.1935 24.317 20.4805 24.3185 15.9165C24.319 13.7047 23.459 11.6255 21.8962 10.061C20.3333 8.49622 18.2555 7.63397 16.0445 7.63347C11.479 7.63347 7.76575 11.3462 7.76425 15.9095C7.76325 17.474 8.201 18.9967 9.02975 20.3142L9.2265 20.6282L8.39075 23.6822L11.5232 22.8605L11.8255 23.04C13.0965 23.794 14.553 24.193 16.0387 24.1935ZM18.8815 17.185C19.1098 17.2687 20.333 17.87 20.582 17.9947C20.6309 18.0193 20.6767 18.0414 20.7191 18.062C20.8919 18.1456 21.0089 18.2023 21.0592 18.286C21.122 18.39 21.122 18.888 20.9147 19.469C20.707 20.0502 19.713 20.5807 19.235 20.652C18.806 20.716 18.2635 20.7432 17.6675 20.5535C17.3062 20.4385 16.8425 20.2852 16.249 20.0292C13.9189 19.0231 12.3435 16.7655 12.0431 16.335C12.0217 16.3044 12.0068 16.283 11.9985 16.272L11.9975 16.2706C11.8692 16.0998 10.9825 14.9194 10.9825 13.6982C10.9825 12.5522 11.545 11.9517 11.8041 11.675C11.8221 11.6559 11.8385 11.6383 11.8532 11.6222C12.0812 11.373 12.351 11.3107 12.5168 11.3107C12.6825 11.3107 12.8482 11.3127 12.9937 11.3197C13.0116 11.3206 13.0301 11.3205 13.0493 11.3203C13.1941 11.3194 13.3749 11.3182 13.5535 11.7467C13.6194 11.9053 13.7148 12.1376 13.8161 12.3846C14.0332 12.9133 14.2779 13.5094 14.3205 13.5945C14.383 13.719 14.4243 13.8642 14.3413 14.0302C14.3287 14.0553 14.3171 14.0789 14.306 14.1014C14.2438 14.2283 14.198 14.3217 14.0925 14.4452C14.0519 14.4927 14.01 14.5438 13.968 14.595C13.8814 14.7005 13.7947 14.8061 13.7192 14.8812C13.5945 15.0055 13.465 15.1397 13.61 15.3887C13.755 15.6377 14.2545 16.4532 14.9945 17.1125C15.7888 17.8217 16.4794 18.1213 16.8298 18.2734C16.8984 18.3032 16.954 18.3273 16.9947 18.3477C17.2437 18.4725 17.3888 18.4515 17.5338 18.2855C17.6793 18.1195 18.156 17.5587 18.322 17.3097C18.488 17.0607 18.6532 17.102 18.8815 17.185Z" fill="#FDD32F"/>
</svg>
