<svg width="32" height="32" viewBox="0 0 32 32" fill="none" xmlns="http://www.w3.org/2000/svg">
<path fill-rule="evenodd" clip-rule="evenodd" d="M16 32C7.16373 32 0 24.8363 0 16C0 7.1632 7.16373 0 16 0C24.8363 0 32 7.1632 32 16C32 24.8363 24.8363 32 16 32ZM16.0356 11.5911C13.6148 11.5911 11.6622 13.5438 11.6622 15.9645C11.6622 18.3852 13.6148 20.3378 16.0356 20.3378C18.4563 20.3378 20.4089 18.3852 20.4089 15.9645C20.4089 13.5438 18.4563 11.5911 16.0356 11.5911ZM16 18.8444C14.435 18.8444 13.1556 17.5688 13.1556 16C13.1556 14.4312 14.4312 13.1556 16 13.1556C17.5688 13.1556 18.8444 14.4312 18.8444 16C18.8444 17.5688 17.565 18.8444 16 18.8444ZM21.6178 11.4134C21.6178 11.9866 21.1561 12.4444 20.5867 12.4444C20.0133 12.4444 19.5556 11.9828 19.5556 11.4134C19.5556 10.8439 20.0172 10.3822 20.5867 10.3822C21.1561 10.3822 21.6178 10.8439 21.6178 11.4134ZM24.4733 12.4811C24.4087 11.114 24.0965 9.90295 23.0951 8.90521C22.0976 7.90743 20.8868 7.59515 19.52 7.52665C18.1112 7.44667 13.8888 7.44667 12.4801 7.52665C11.117 7.59133 9.90625 7.90365 8.90492 8.90142C7.90354 9.8992 7.59516 11.1102 7.52664 12.4773C7.44668 13.8864 7.44668 18.1098 7.52664 19.5189C7.59138 20.8861 7.90354 22.097 8.90492 23.0948C9.90625 24.0926 11.1132 24.4048 12.4801 24.4734C13.8888 24.5533 18.1112 24.5533 19.52 24.4734C20.8868 24.4087 22.0976 24.0963 23.0951 23.0948C24.0926 22.097 24.4049 20.886 24.4733 19.5189C24.5533 18.1098 24.5533 13.8902 24.4733 12.4811ZM22.687 20.994C22.3901 21.7402 21.8151 22.3152 21.0651 22.616C19.9419 23.0615 17.2767 22.9586 16.0355 22.9586C14.7942 22.9586 12.1253 23.0576 11.0059 22.616C10.2596 22.319 9.68468 21.7441 9.38394 20.994C8.93853 19.8708 9.04137 17.2057 9.04137 15.9644C9.04137 14.7232 8.94235 12.0542 9.38397 10.9349C9.681 10.1886 10.2559 9.61367 11.0059 9.31292C12.1291 8.86744 14.7943 8.97025 16.0355 8.97025C17.2767 8.97025 19.9457 8.87127 21.0651 9.31292C21.8113 9.60981 22.3863 10.1848 22.687 10.9349C23.1325 12.058 23.0298 14.7232 23.0298 15.9644C23.0298 17.2057 23.1325 19.8746 22.687 20.994Z" fill="#FDD32F"/>
</svg>
