<?xml version="1.0" encoding="UTF-8"?>
<svg width="92px" height="92px" viewBox="0 0 92 92" version="1.1" xmlns="http://www.w3.org/2000/svg" xmlns:xlink="http://www.w3.org/1999/xlink">
    <!-- Generator: Sketch 55.2 (78181) - https://sketchapp.com -->
    <title>lenny--icon--trust</title>
    <desc>Created with Sketch.</desc>
    <g id="Page-1" stroke="none" stroke-width="1" fill="none" fill-rule="evenodd">
        <g id="CaseStudy_Liquid" transform="translate(-749.000000, -2877.000000)">
            <g id="Values" transform="translate(60.000000, 2700.000000)">
                <g id="1" transform="translate(690.000000, 178.000000)">
                    <g id="lenny--icon--trust">
                        <circle id="Oval" stroke="#D8A564" stroke-width="2" cx="45" cy="45" r="45"></circle>
                        <path d="M44.9971661,76.4 C42.4668408,76.4 40.1791136,74.9908 39.0156857,72.7184 L38.9922084,72.721 C38.3061512,71.3716 37.5966166,70.5942 36.8244761,70.3446 C36.0627699,70.1002 35.0297711,70.3082 33.6837424,70.9946 L33.6628737,70.9764 C31.3881895,72.1334 28.7065664,71.928 26.6562203,70.4408 C24.6110914,68.9536 23.5885269,66.4706 23.9850315,63.9538 L23.9641628,63.9382 C24.4310992,60.9794 23.6354814,59.8796 20.6825656,59.4168 L20.6773485,59.3908 C18.1548489,58.9852 16.10972,57.2458 15.3297537,54.8382 C14.5497874,52.4358 15.1810645,49.8254 16.9809866,48.021 L16.9731609,47.9976 C19.0887215,45.8786 19.0887215,44.5214 16.9731609,42.4024 L16.9809866,42.379 C15.1810645,40.572 14.5471789,37.9616 15.3297537,35.5592 C16.10972,33.1568 18.1574575,31.4148 20.6773485,31.0092 L20.6825656,30.9858 C23.6354814,30.5178 24.4337077,29.418 23.9667714,26.4618 L23.9876401,26.4488 C23.5911355,23.9294 24.6137,21.4464 26.6588289,19.9592 C28.7039578,18.472 31.3881895,18.2666 33.6654823,19.421 L33.6837424,19.408 C35.0271626,20.0944 36.0549442,20.305 36.8270847,20.0554 C37.5966166,19.8058 38.3061512,19.0284 38.994817,17.679 L39.0182943,17.6816 C40.1791136,15.4092 42.4668408,14 44.9971661,14 C47.5274914,14 49.8178271,15.4092 50.9786465,17.6816 L51.0047323,17.679 C51.6907896,19.0284 52.3977155,19.8032 53.1698561,20.0554 C53.939388,20.3076 54.964561,20.0944 56.3131984,19.408 L56.3314584,19.4236 C58.6087512,18.2666 61.292983,18.472 63.3381119,19.9618 C65.3806322,21.4464 66.4058053,23.9294 66.0119093,26.4514 L66.0327779,26.4644 C65.563233,29.4206 66.3614594,30.5204 69.3143751,30.9884 L69.3222009,31.0118 C71.8420919,31.4174 73.8898294,33.1568 74.6697956,35.5618 C75.4523705,37.9642 74.8210934,40.572 73.0185627,42.3816 L73.028997,42.405 C70.9108278,44.5214 70.9108278,45.8812 73.028997,48.0002 L73.0185627,48.0236 C74.8184849,49.8306 75.4523705,52.441 74.6697956,54.8434 C73.8898294,57.2458 71.8420919,58.9878 69.3195923,59.3934 L69.3143751,59.4194 C66.3614594,59.8848 65.563233,60.9846 66.0327779,63.9408 L66.0119093,63.9538 C66.4031967,66.4758 65.3832408,68.9588 63.3355033,70.4434 C61.2955915,71.9306 58.6087512,72.136 56.3314584,70.9816 L56.3131984,70.9972 C54.9671696,70.3082 53.939388,70.0976 53.1698561,70.3472 C52.3977155,70.5994 51.6907896,71.3768 51.0047323,72.7236 L50.9786465,72.721 C49.8178271,74.9908 47.5274914,76.4 44.9971661,76.4 Z M41.3294986,71.5172 C42.0416418,72.9238 43.4476679,73.8 44.9971661,73.8 C46.5492729,73.8 47.9526904,72.9264 48.6648335,71.5172 L48.6909194,71.5198 C49.7030495,69.536 50.9056062,68.3426 52.3664125,67.872 C53.8220018,67.4014 55.4941033,67.6588 57.4766263,68.6676 L57.4948864,68.652 C58.8956953,69.3696 60.5469283,69.2552 61.799048,68.34 C63.0563849,67.4274 63.6824448,65.8934 63.4294123,64.3308 L63.4528895,64.3178 C62.774658,59.9888 64.5511029,57.5474 68.8761332,56.8532 L68.8813504,56.8272 C70.4438915,56.5854 71.7090541,55.5168 72.1890334,54.0426 C72.6716212,52.5632 72.272508,50.9512 71.153426,49.8384 L71.1612517,49.8124 C68.0700811,46.7106 68.0700811,43.692 71.1638603,40.5902 L71.153426,40.5668 C72.2751166,39.4514 72.6716212,37.842 72.1890334,36.3626 C71.7090541,34.8858 70.4412829,33.8172 68.8813504,33.5754 L68.8761332,33.552 C64.5511029,32.8552 62.774658,30.4138 63.4528895,26.0848 L63.4294123,26.0744 C63.6824448,24.5118 63.0563849,22.9778 61.8016566,22.0652 C60.5495368,21.1526 58.9035211,21.033 57.4948864,21.7532 L57.4792349,21.7376 C55.4888862,22.7464 53.8193932,23.0064 52.363804,22.5306 C50.9056062,22.0574 49.7030495,20.864 48.6909194,18.8828 L48.6674421,18.8828 C47.9526904,17.4736 46.5492729,16.6 44.9971661,16.6 C43.4476679,16.6 42.0416418,17.4736 41.3294986,18.8828 L41.3060214,18.8828 C40.2912827,20.8614 39.088726,22.0548 37.6305282,22.528 C36.1723304,23.0012 34.5028374,22.7412 32.5177059,21.735 L32.4994458,21.748 C31.0986368,21.0304 29.4526211,21.15 28.1952842,22.06 C26.9379472,22.9752 26.314496,24.5092 26.5675285,26.0718 L26.5440512,26.0848 C27.2196742,30.4138 25.4458379,32.8552 21.118199,33.5494 L21.1129818,33.5728 C19.5556579,33.8172 18.2878866,34.8832 17.8079074,36.36 C17.3253196,37.8394 17.7244327,39.4514 18.8461233,40.5642 L18.835689,40.5876 C21.9242511,43.6894 21.9242511,46.708 18.835689,49.8124 L18.8461233,49.8358 C17.7244327,50.9486 17.3279281,52.558 17.8079074,54.0374 C18.2878866,55.5142 19.5530493,56.5828 21.1129818,56.8246 L21.118199,56.8506 C25.4432293,57.5448 27.2196742,59.9862 26.5440512,64.3152 L26.5649199,64.3308 C26.3118874,65.8908 26.9353387,67.4248 28.1926756,68.3374 C29.4500125,69.25 31.0960283,69.3696 32.4994458,68.6494 L32.5177059,68.665 C34.5002288,67.6588 36.1697218,67.4092 37.6279196,67.8694 C39.0861174,68.3426 40.2886741,69.536 41.3034128,71.5172 L41.3294986,71.5172 Z M41.4152223,53.6 L34.2,44.9245315 L36.1682533,43.2916525 L42.4006286,50.7865417 L55.0317467,35.6 L57,37.2303237 L43.386035,53.6 L41.4152223,53.6 Z" id="Combined-Shape" fill="#000000" fill-rule="nonzero"></path>
                    </g>
                </g>
            </g>
        </g>
    </g>
</svg>