<?xml version="1.0" encoding="UTF-8"?>
<svg width="92px" height="92px" viewBox="0 0 92 92" version="1.1" xmlns="http://www.w3.org/2000/svg" xmlns:xlink="http://www.w3.org/1999/xlink">
    <!-- Generator: Sketch 55.2 (78181) - https://sketchapp.com -->
    <title>lenny--icon--fun</title>
    <desc>Created with Sketch.</desc>
    <g id="Page-1" stroke="none" stroke-width="1" fill="none" fill-rule="evenodd">
        <g id="CaseStudy_Liquid" transform="translate(-399.000000, -2877.000000)">
            <g id="Values" transform="translate(60.000000, 2700.000000)">
                <g id="1" transform="translate(340.000000, 178.000000)">
                    <g id="lenny--icon--fun">
                        <circle id="Oval" stroke="#D8A564" stroke-width="2" cx="45" cy="45" r="45"></circle>
                        <path d="M56.0057092,21.0753961 C60.7799469,23.5593445 63.9167047,29.0985271 63.9983693,35.1860851 C64.0381547,38.1792392 63.3492405,41.0970101 62.0063117,43.6230843 C61.8778819,43.8640147 61.641264,44 61.3969682,44 C61.2811022,44 61.1638402,43.9696989 61.0556521,43.9046625 C60.7199199,43.7051189 60.600564,43.2542982 60.7897187,42.8988149 C62.0118956,40.5996292 62.6386888,37.9397868 62.6023934,35.2067785 C62.5291047,29.669074 59.6980655,24.6427923 55.3907818,22.4019916 C55.0445798,22.2224023 54.9014923,21.7789721 55.0718013,21.4124031 C55.2414124,21.0465732 55.6609032,20.8965459 56.0057092,21.0753961 Z M52.001888,16 C61.7922426,16 69.8481431,24.66955 69.9978539,35.41985 C70.1366102,45.23635 63.5310786,53.6304 54.7784752,55.030375 L55.2721557,55.95185 C55.6007891,56.5652 55.5818014,57.286575 55.2210349,57.88325 C54.8237536,58.5401 54.0708179,58.94755 53.2550768,58.94755 L53.1966531,58.94755 C53.2485041,59.629775 53.7173544,61.522025 57.0978969,63.4643 C64.2635659,67.58085 60.945829,73.57225 60.9115051,73.632425 C60.7771305,73.867325 60.52956,73.999275 60.2754168,73.999275 C60.1534573,73.999275 60.0293069,73.968825 59.9153807,73.9043 C59.5655687,73.7071 59.4428789,73.264125 59.6415195,72.916125 C59.7503337,72.723275 62.2567112,68.103575 56.3668701,64.71855 C52.371418,62.422475 51.7959444,59.960375 51.7411722,58.946825 L51.4775351,58.946825 C50.661794,58.946825 49.908128,58.53865 49.5108467,57.882525 C49.1500802,57.28585 49.1310925,56.564475 49.459726,55.951125 L49.9263854,55.081125 C48.521295,54.886825 47.173898,54.4946 45.8878459,53.96245 C43.4676433,58.6097 39.2947292,61.7533 34.5098267,62.552975 L34.8954232,63.272175 C35.2006872,63.84275 35.18316,64.513375 34.847954,65.068 C34.4806148,65.674825 33.783912,66.05255 33.0309763,66.05255 L32.8980624,66.05255 C32.9338469,66.50785 33.2055172,67.717875 34.9750255,68.95835 C36.5415115,70.056725 37.4624154,71.5234 37.6369562,73.200325 C37.6778528,73.59835 37.3864645,73.954325 36.9855318,73.996375 C36.9599714,73.99855 36.9351413,74 36.9095809,74 C36.5400509,74 36.2231022,73.72305 36.1843965,73.349675 C36.0522129,72.083825 35.362813,71.005025 34.1329937,70.143725 C31.8245265,68.524075 31.4761751,66.785525 31.4403906,66.05255 C30.6911064,66.048925 29.9995156,65.673375 29.6336371,65.068725 C29.2977007,64.5141 29.2809039,63.84275 29.5861678,63.2729 L29.946204,62.60155 C22.1627041,61.461125 16.1246128,54.1379 16.001923,45.42485 C15.9318145,40.4905 17.7816555,35.7374 21.0745623,32.384275 C23.9796817,29.427725 27.7713811,27.774725 31.7514969,27.7305 C32.8637384,27.715275 34.2045628,27.889275 35.488424,28.1945 C36.4567971,25.56855 37.9378384,23.1746 39.8658211,21.212025 C43.1178313,17.90095 47.3615842,16.050025 51.817123,16.000725 C51.8784679,16 51.9405431,16 52.001888,16 Z M33.3026466,61.247975 C38.0137892,60.8137 42.1888942,57.86875 44.5645486,53.346925 C38.5191544,50.214925 34.2921983,43.5094 34.1841145,35.8215 C34.153442,33.682025 34.4484818,31.575175 35.0312584,29.575625 C33.8971079,29.311725 32.7322851,29.150775 31.7675634,29.179775 C28.1781562,29.218925 24.7523354,30.716775 22.1203469,33.39565 C19.0961892,36.474725 17.3982498,40.85155 17.4625159,45.403825 C17.580824,53.7754 23.5926246,60.74555 31.1497326,61.27335 C31.3965728,61.29075 31.6178526,61.430675 31.7376212,61.645275 C31.8573899,61.859875 31.8595808,62.12015 31.7434636,62.336925 L30.8758714,63.95295 C30.8101447,64.076925 30.8130659,64.200175 30.8860955,64.32125 C30.9678888,64.45755 31.1599567,64.60255 31.4506147,64.60255 L33.0317066,64.60255 C33.3223646,64.60255 33.5137023,64.45755 33.5962258,64.32125 C33.6692554,64.200175 33.6729069,64.076925 33.6064499,63.95295 L32.7257124,62.3101 C32.6103255,62.096225 32.6110558,61.839575 32.727173,61.6257 C32.8440204,61.41255 33.0594579,61.27045 33.3026466,61.247975 Z M53.5705648,53.72175 C62.0975066,52.933675 68.6730961,44.903575 68.5387215,35.437975 C68.3977743,25.480825 60.9947589,17.44855 52.0011577,17.44855 C51.9449249,17.44855 51.8894223,17.44855 51.8331895,17.449275 C47.7683593,17.494225 43.8897547,19.189275 40.9108753,22.22195 C37.4908969,25.704125 35.5709475,30.652975 35.6439771,35.800475 C35.7776214,45.268975 42.5803331,53.152625 51.1313746,53.748575 C51.3782148,53.765975 51.5994946,53.9059 51.7192633,54.1205 C51.8390319,54.3351 51.8412228,54.595375 51.7251056,54.81215 L50.7494295,56.6319 C50.6362336,56.842875 50.6946573,57.02195 50.7633052,57.13505 C50.8684679,57.309775 51.1116566,57.4961 51.4775351,57.4961 L53.2565374,57.4961 C53.6224159,57.4961 53.8656046,57.309775 53.9707673,57.13505 C54.0394152,57.02195 54.0978389,56.842875 53.984643,56.6319 L52.9936306,54.783875 C52.8782438,54.57 52.8789741,54.31335 52.9950912,54.099475 C53.1112084,53.88705 53.3273761,53.744225 53.5705648,53.72175 Z" id="Combined-Shape" fill="#000000" fill-rule="nonzero"></path>
                    </g>
                </g>
            </g>
        </g>
    </g>
</svg>