<?xml version="1.0" encoding="UTF-8"?>
<svg width="92px" height="92px" viewBox="0 0 92 92" version="1.1" xmlns="http://www.w3.org/2000/svg" xmlns:xlink="http://www.w3.org/1999/xlink">
    <!-- Generator: Sketch 55.2 (78181) - https://sketchapp.com -->
    <title>lenny--icon--flexible</title>
    <desc>Created with Sketch.</desc>
    <g id="Page-1" stroke="none" stroke-width="1" fill="none" fill-rule="evenodd">
        <g id="CaseStudy_Liquid" transform="translate(-1091.000000, -2877.000000)">
            <g id="Values" transform="translate(60.000000, 2700.000000)">
                <g id="1" transform="translate(1032.000000, 178.000000)">
                    <g id="lenny--icon--flexible">
                        <circle id="Oval" stroke="#D8A564" stroke-width="2" cx="45" cy="45" r="45"></circle>
                        <path d="M66.5955882,63.3380282 C66.9816176,62.8873239 67.7536765,62.8873239 68.2169118,63.3380282 L72,67.0187793 L68.2169118,70.6995305 C67.9852941,70.9248826 67.6764706,71 67.3676471,71 C67.0588235,71 66.75,70.9248826 66.5183824,70.6995305 C66.0551471,70.2488263 66.0551471,69.57277 66.5183824,69.1220657 L67.5220588,68.1455399 L52.1580882,68.1455399 C51.5404412,68.1455399 51,67.6197183 51,67.0187793 C51,66.4178404 51.5404412,65.8920188 52.1580882,65.8920188 L67.5992647,65.8920188 L66.5955882,64.915493 C66.1323529,64.4647887 66.1323529,63.7887324 66.5955882,63.3380282 Z M57.1940299,50.1455399 C56.5572139,50.1455399 56,49.6197183 56,49.0187793 C56,48.4178404 56.5572139,47.8920188 57.1940299,47.8920188 L67.4626866,47.8920188 L66.4278607,46.915493 C65.9502488,46.4647887 65.9502488,45.7887324 66.4278607,45.3380282 C66.9054726,44.8873239 67.6218905,44.8873239 68.0995025,45.3380282 L72,49.0187793 L68.0995025,52.6995305 C67.8606965,52.9248826 67.5422886,53 67.2238806,53 C66.9054726,53 66.5870647,52.9248826 66.3482587,52.6995305 C65.8706468,52.2488263 65.8706468,51.57277 66.3482587,51.1220657 L67.3034826,50.1455399 L57.1940299,50.1455399 Z M51.9254054,43.4555256 C51.9254054,43.4555256 51.8475676,43.4555256 51.8475676,43.4555256 L51.8475676,54.3989218 C51.8475676,61.902965 45.7762162,68 38.3037838,68 L20.1675676,68 C19.5448649,68 19,67.4528302 19,66.8274933 C19,66.2021563 19.5448649,65.6549865 20.1675676,65.6549865 L38.4594595,65.6549865 C44.6086486,65.6549865 49.6681081,60.6522911 49.6681081,54.3989218 L49.6681081,43.4555256 L48.6562162,44.4716981 C48.1891892,44.9407008 47.4886486,44.9407008 47.0216216,44.4716981 C46.5545946,44.0026954 46.5545946,43.2991914 47.0216216,42.8301887 L50.8356757,39 L54.6497297,42.8301887 C55.1167568,43.2991914 55.1167568,44.0026954 54.6497297,44.4716981 C54.4162162,44.7061995 54.1048649,44.7843666 53.7935135,44.7843666 C53.4821622,44.7843666 53.1708108,44.7061995 52.9372973,44.4716981 L51.9254054,43.4555256 Z M35,50 C25.6774194,50 18,42.4009217 18,33 C18,23.5990783 25.5990783,16 35,16 C44.4009217,16 52,23.5990783 52,33 C52,33.6267281 51.4516129,34.1751152 50.8248848,34.1751152 C50.1981567,34.1751152 49.6497696,33.6267281 49.6497696,33 C49.6497696,24.9308756 43.0691244,18.3502304 35,18.3502304 C26.9308756,18.3502304 20.3502304,24.9308756 20.3502304,33 C20.3502304,41.0691244 26.9308756,47.6497696 35,47.6497696 L44.3225806,47.6497696 C44.9493088,47.6497696 45.4976959,48.1981567 45.4976959,48.8248848 C45.4976959,49.4516129 44.9493088,50 44.3225806,50 L35,50 Z" fill="#000000" fill-rule="nonzero"></path>
                    </g>
                </g>
            </g>
        </g>
    </g>
</svg>