<?xml version="1.0" encoding="UTF-8"?>
<svg width="92px" height="92px" viewBox="0 0 92 92" version="1.1" xmlns="http://www.w3.org/2000/svg" xmlns:xlink="http://www.w3.org/1999/xlink">
    <!-- Generator: Sketch 52.2 (67145) - http://www.bohemiancoding.com/sketch -->
    <title>liquid--icon--personalised</title>
    <desc>Created with Sketch.</desc>
    <g id="Page-1" stroke="none" stroke-width="1" fill="none" fill-rule="evenodd">
        <g id="CaseStudy_Liquid" transform="translate(-749.000000, -4591.000000)">
            <g id="Values" transform="translate(60.000000, 4414.000000)">
                <g id="1" transform="translate(690.000000, 178.000000)">
                    <g id="liquid--icon--personalised">
                        <circle id="Oval" stroke="#D8A564" stroke-width="2" cx="45" cy="45" r="45"></circle>
                        <g id="Group" transform="translate(20.000000, 20.000000)">
                            <path d="M39.8837891,49.4994011 L37.3574219,49.4994011 C36.9482422,49.4994011 36.5800781,49.2498894 36.428711,48.8700066 L35.4248047,46.3514519 L32.9179688,47.4232292 C32.5429688,47.5828972 32.1064454,47.5003776 31.8173829,47.2108269 L30.029297,45.4232292 C29.7402345,45.1341667 29.6562501,44.6976433 29.8173829,44.3216667 L30.8867188,41.8319206 L28.3691407,40.8226433 C27.9902344,40.6707878 27.741211,40.303112 27.741211,39.8944206 L27.741211,37.356823 C27.741211,36.9481316 27.9902344,36.5804558 28.3691407,36.4286003 L30.8867188,35.419323 L29.8173829,32.9295769 C29.6562501,32.5536003 29.7402345,32.1170769 30.029297,31.8280144 L31.8173829,30.0404167 C32.1064454,29.7508659 32.5429688,29.6673698 32.9179688,29.8280144 L35.4248047,30.8997917 L36.428711,28.381237 C36.5800782,28.0013542 36.9482423,27.7518425 37.3574219,27.7518425 L39.8837891,27.7518425 C40.2929688,27.7518425 40.6611329,28.0013542 40.8125,28.3817253 L41.8154297,30.8988151 L44.3105469,29.8285026 C44.6855469,29.6673698 45.1230469,29.7508659 45.4121094,30.0404167 L47.2001953,31.8280144 C47.4892578,32.1165886 47.5732422,32.5516472 47.4130859,32.9271355 L46.3476562,35.4261589 L48.8691406,36.4276237 C49.25,36.5785027 49.5,36.947155 49.5,37.356823 L49.5,39.8944207 C49.5,40.3040887 49.25,40.672741 48.8691406,40.8236199 L46.3476562,41.8250847 L47.4130859,44.3241081 C47.5732422,44.6995964 47.4892578,45.134655 47.2001953,45.4232292 L45.4121094,47.2108269 C45.1230469,47.5003777 44.6855469,47.5843621 44.3105469,47.422741 L41.8154297,46.3524285 L40.8125,48.8695183 C40.6611328,49.2498894 40.2929688,49.4994011 39.8837891,49.4994011 Z M37.9685775,48.247504 L39.2714226,48.247504 L40.4547408,45.2777993 C40.5873072,44.94421 40.8730856,44.6953764 41.2208008,44.6095343 C41.2588321,44.5992115 41.2914305,44.5812824 41.326202,44.5666132 C41.6054607,44.4476294 41.9281838,44.4438262 42.2096158,44.56444 L45.135856,45.8200177 L46.0616477,44.8953127 L44.8022669,41.9419071 C44.6729604,41.6398296 44.684913,41.2953743 44.8337786,41.0025329 C44.9294003,40.6722035 45.1988795,40.3413308 45.5183428,40.2147408 L48.5,39.030336 L48.5,37.717168 L45.5183426,36.5327633 C45.1988793,36.4061733 44.9565653,36.1394105 44.8609437,35.8096245 C44.7109915,35.5156965 44.6729602,35.1093045 44.8022667,34.8061402 L46.0616475,31.8521913 L45.1358558,30.9274864 L42.2096155,32.1830641 C41.9292702,32.3036777 41.6130667,32.3031345 41.3327214,32.1836074 C41.2946901,32.1673083 41.2588319,32.1477492 41.2153675,32.1368832 C40.8698256,32.049411 40.5862204,31.8011207 40.4547406,31.4697047 L39.2714224,28.5 L37.9685773,28.5 L36.7841726,31.470248 C36.6526927,31.8005774 36.3712608,32.0477812 36.0257189,32.1357965 C35.9822545,32.1472059 35.9442232,32.1667648 35.9061918,32.1836074 C35.6258465,32.3031345 35.3107296,32.3031345 35.0303842,32.1836074 L32.0911046,30.9269431 L31.1674862,31.8505615 L32.4355601,34.8034237 C32.5637801,35.1033281 32.5550872,35.4445236 32.4094815,35.7373649 C32.405135,35.7476877 32.3345054,35.9204587 32.3301589,35.9307814 C32.212805,36.1986308 31.995483,36.4099764 31.7238306,36.5186374 L28.74,37.7144515 L28.74,39.0330525 L31.7238306,40.2288666 C31.995483,40.3375276 32.212805,40.5488732 32.3301589,40.8167225 L32.385576,40.9509189 C32.5290086,41.2426736 32.5637801,41.6458058 32.4355601,41.9446235 L31.1674865,44.8969425 L32.0911048,45.8205608 L35.0303845,44.5638966 C35.3107298,44.4443695 35.6258467,44.4443695 35.906192,44.5638966 C35.9431367,44.5796525 35.9789949,44.5992114 36.0213726,44.6100775 C36.3593083,44.701896 36.6548661,44.9523596 36.7841728,45.2772559 L37.9685775,48.247504 Z" id="Shape" fill="#000000" fill-rule="nonzero"></path>
                            <path d="M0.5,0.5005989 L0.5,48.5005989 L13.9400024,37.1506233 L29.25,37.1506233 L32.0499878,36.0306282 C32.0900269,35.9506111 32.1099854,35.8806038 32.1400147,35.8106575 L30.7399903,32.5306282 L32.5200196,30.7505989 L35.7899781,32.1406135 C35.8699952,32.1106452 35.9500123,32.0706062 36.0399781,32.0506477 L37.3599854,28.7505989 L39.8800049,28.7505989 L41.2000122,32.0506477 C41.289978,32.0706062 41.3699951,32.1106453 41.4500122,32.1406135 L44.7000122,30.7505989 L46.4899902,32.5306282 L45.0999756,35.8106575 C45.1300049,35.8806038 45.1699829,35.9606209 45.1900025,36.040638 L47.9899903,37.1506234 L48.5,37.1506234 L48.5,0.5005989 L0.5,0.5005989 Z M10.5499878,22.1306038 C8.7299805,22.1306038 7.25,20.6506233 7.25,18.830616 C7.25,17.0005989 8.7299805,15.5206184 10.5499878,15.5206184 C12.3699951,15.5206184 13.8499756,17.0005989 13.8499756,18.830616 C13.8499756,20.6506233 12.3699951,22.1306038 10.5499878,22.1306038 Z M24.5,22.1306038 C22.6799927,22.1306038 21.2000122,20.6506233 21.2000122,18.830616 C21.2000122,17.0005989 22.6799927,15.5206184 24.5,15.5206184 C26.3200073,15.5206184 27.7999878,17.0005989 27.7999878,18.830616 C27.7999878,20.6506233 26.3200073,22.1306038 24.5,22.1306038 Z M38.4500122,22.1306038 C36.6300049,22.1306038 35.1500244,20.6506233 35.1500244,18.830616 C35.1500244,17.0005989 36.6300049,15.5206184 38.4500122,15.5206184 C40.2700195,15.5206184 41.75,17.0005989 41.75,18.830616 C41.75,20.6506233 40.2700195,22.1306038 38.4500122,22.1306038 Z" id="Shape" stroke="#000000" stroke-width="1.5" stroke-linecap="round" stroke-linejoin="round"></path>
                            <path d="M38.4501953,23.1307487 C36.0791015,23.1307487 34.1503906,21.2015495 34.1503906,18.8304557 C34.1503906,16.4539909 36.0791015,14.5203971 38.4501953,14.5203971 C40.8212891,14.5203971 42.75,16.4539909 42.75,18.8304558 C42.75,21.2015495 40.8212891,23.1307487 38.4501953,23.1307487 Z M38.4501953,16.5203972 C37.1816406,16.5203972 36.1503906,17.55653 36.1503906,18.8304558 C36.1503906,20.0990105 37.1816406,21.1307488 38.4501953,21.1307488 C39.71875,21.1307488 40.75,20.0990105 40.75,18.8304558 C40.75,17.55653 39.71875,16.5203972 38.4501953,16.5203972 Z" id="Shape" fill="#000000" fill-rule="nonzero"></path>
                            <path d="M24.5,23.1307487 C22.1289062,23.1307487 20.2001953,21.2015495 20.2001953,18.8304557 C20.2001953,16.4539909 22.1289062,14.5203971 24.5,14.5203971 C26.8710938,14.5203971 28.7998047,16.4539909 28.7998047,18.8304557 C28.7998047,21.2015495 26.8710938,23.1307487 24.5,23.1307487 Z M24.5,16.5203972 C23.2314453,16.5203972 22.2001953,17.55653 22.2001953,18.8304558 C22.2001953,20.0990105 23.2314453,21.1307488 24.5,21.1307488 C25.7685547,21.1307488 26.7998047,20.0990105 26.7998047,18.8304558 C26.7998047,17.55653 25.7685547,16.5203972 24.5,16.5203972 Z" id="Shape" fill="#000000" fill-rule="nonzero"></path>
                            <path d="M10.5498047,23.1307487 C8.1787109,23.1307487 6.25,21.2015495 6.25,18.8304557 C6.25,16.4539909 8.1787109,14.5203971 10.5498047,14.5203971 C12.9208985,14.5203971 14.8496094,16.4539909 14.8496094,18.8304557 C14.8496094,21.2015495 12.9208984,23.1307487 10.5498047,23.1307487 Z M10.5498047,16.5203972 C9.28125,16.5203972 8.25,17.55653 8.25,18.8304558 C8.25,20.0990105 9.28125,21.1307488 10.5498047,21.1307488 C11.8183594,21.1307488 12.8496094,20.0990105 12.8496094,18.8304558 C12.8496094,17.55653 11.8183594,16.5203972 10.5498047,16.5203972 Z" id="Shape" fill="#000000" fill-rule="nonzero"></path>
                            <path d="M38.6191406,42.9803581 C36.2177734,42.9803581 34.2646484,41.0267448 34.2646484,38.6258659 C34.2646484,36.2244987 36.2177734,34.2708854 38.6191406,34.2708854 C41.0205078,34.2708854 42.9736328,36.2244987 42.9736328,38.6258659 C42.9736328,41.0267448 41.0205078,42.9803581 38.6191406,42.9803581 Z M38.6191406,36.2708855 C37.321289,36.2708855 36.2646484,37.3275261 36.2646484,38.625866 C36.2646484,39.9242059 37.321289,40.9803582 38.6191406,40.9803582 C39.9169922,40.9803582 40.9736328,39.9242059 40.9736328,38.625866 C40.9736328,37.3275261 39.9169922,36.2708855 38.6191406,36.2708855 Z" id="Shape" fill="#000000" fill-rule="nonzero"></path>
                        </g>
                    </g>
                </g>
            </g>
        </g>
    </g>
</svg>