<?xml version="1.0" encoding="UTF-8"?>
<svg width="92px" height="92px" viewBox="0 0 92 92" version="1.1" xmlns="http://www.w3.org/2000/svg" xmlns:xlink="http://www.w3.org/1999/xlink">
    <!-- Generator: Sketch 52.2 (67145) - http://www.bohemiancoding.com/sketch -->
    <title>liquid--icon--exclusive</title>
    <desc>Created with Sketch.</desc>
    <g id="Page-1" stroke="none" stroke-width="1" fill="none" fill-rule="evenodd">
        <g id="CaseStudy_Liquid" transform="translate(-399.000000, -4591.000000)">
            <g id="Values" transform="translate(60.000000, 4414.000000)">
                <g id="1" transform="translate(340.000000, 178.000000)">
                    <g id="liquid--icon--exclusive">
                        <circle id="Oval" stroke="#D8A564" stroke-width="2" cx="45" cy="45" r="45"></circle>
                        <path d="M74.9581514,35.466491 C74.9599342,35.4372278 74.9599342,35.4078832 74.9581514,35.3786199 C75.0139495,35.213986 75.0139495,35.0355542 74.9581514,34.8709202 L74.9581514,34.8123395 L74.9581514,34.7439953 L64.9994266,21.2216092 L64.9408459,21.1727919 C64.9120939,21.1337197 64.8793747,21.0977285 64.8432114,21.0653939 L64.7846306,21.0653939 L64.6674692,21.0068132 C64.6026964,20.9977289 64.5369728,20.9977289 64.4722,21.0068132 L64.4038559,21.0068132 L25.1352372,21.0068132 L25.066893,21.0068132 L24.9399681,21.0068132 C24.7801031,21.0458376 24.638667,21.1389785 24.5396664,21.2704265 L15.1179317,34.7342319 L15.0593509,34.8123395 C15.0257315,34.8896603 15.0059054,34.9722689 15.0007702,35.0564259 C15.0007702,35.0564259 15.0007702,35.0564259 15.0007702,35.0564259 C14.9953279,35.1742031 15.0187918,35.2915226 15.0691144,35.3981468 L15.1179317,35.4762545 L15.1179317,35.5348352 L44.0372873,69.6483493 C44.0861712,69.6984766 44.142082,69.7412319 44.2032661,69.7752742 L44.2716103,69.7752742 C44.3550188,69.8111951 44.4444517,69.8310691 44.5352236,69.833855 C44.6292942,69.8323138 44.7221581,69.8124144 44.8086003,69.7752742 L44.8769445,69.7752742 C44.9381286,69.7412319 44.9940394,69.6984766 45.0429233,69.6483493 L74.8507534,35.6519967 L74.8507534,35.5836525 L74.9093341,35.4957814 L74.9581514,35.466491 Z M44.6133312,66.5533339 L35.6895327,35.8863196 L53.5371297,35.8863196 L44.6133312,66.5533339 Z M46.0583227,22.3834604 L62.9588644,22.3834604 L54.5134753,33.9141016 L46.0583227,22.3834604 Z M53.0684838,34.4120378 L36.1581786,34.4120378 L44.6133312,22.8813967 L53.0684838,34.4120378 Z M34.8889294,33.6993056 L26.6192824,22.3834604 L43.2171571,22.3834604 L34.8889294,33.6993056 Z M64.4038559,22.9595043 L72.8590085,34.4901455 L55.9584667,34.4901455 L64.4038559,22.9595043 Z M25.1645275,22.9595043 L33.6196801,34.4901455 L17.1292035,34.4901455 L25.1645275,22.9595043 Z M34.1664337,35.9546638 L42.9535438,66.1627956 L17.3049457,35.8863196 L34.1664337,35.9546638 Z M46.2438283,66.2213764 L55.0309384,35.9546638 L72.6930297,35.9546638 L46.2438283,66.2213764 Z" id="Shape" fill="#203A4B" fill-rule="nonzero"></path>
                    </g>
                </g>
            </g>
        </g>
    </g>
</svg>