<?xml version="1.0" encoding="UTF-8"?>
<svg width="92px" height="92px" viewBox="0 0 92 92" version="1.1" xmlns="http://www.w3.org/2000/svg" xmlns:xlink="http://www.w3.org/1999/xlink">
    <!-- Generator: Sketch 52.2 (67145) - http://www.bohemiancoding.com/sketch -->
    <title>liquid--icon--ondemand</title>
    <desc>Created with Sketch.</desc>
    <g id="Page-1" stroke="none" stroke-width="1" fill="none" fill-rule="evenodd">
        <g id="CaseStudy_Liquid" transform="translate(-1091.000000, -4591.000000)">
            <g id="Values" transform="translate(60.000000, 4414.000000)">
                <g id="1" transform="translate(1032.000000, 178.000000)">
                    <g id="liquid--icon--ondemand">
                        <circle id="Oval" stroke="#D8A564" stroke-width="2" cx="45" cy="45" r="45"></circle>
                        <g id="Group" transform="translate(12.000000, 20.000000)" fill="#000000">
                            <path d="M11.7418605,37.0674419 L4.83488372,37.0674419 C4.06744186,37.0674419 3.45348837,37.6813953 3.45348837,38.4488372 C3.45348837,39.2162791 4.06744186,39.8302326 4.83488372,39.8302326 L11.7418605,39.8302326 C12.5093023,39.8302326 13.1232558,39.2162791 13.1232558,38.4488372 C13.1232558,37.6813953 12.5093023,37.0674419 11.7418605,37.0674419 Z" id="Path"></path>
                            <path d="M10.1302326,25.3255814 C10.1302326,24.5581395 9.51627907,23.944186 8.74883721,23.944186 L1.84186047,23.944186 C1.0744186,23.944186 0.460465116,24.5581395 0.460465116,25.3255814 C0.460465116,26.0930233 1.0744186,26.7069767 1.84186047,26.7069767 L8.74883721,26.7069767 C9.51627907,26.7069767 10.1302326,26.0930233 10.1302326,25.3255814 Z" id="Path"></path>
                            <path d="M11.7418605,10.8209302 L4.83488372,10.8209302 C4.06744186,10.8209302 3.45348837,11.4348837 3.45348837,12.2023256 C3.45348837,12.9697674 4.06744186,13.5837209 4.83488372,13.5837209 L11.7418605,13.5837209 C12.5093023,13.5837209 13.1232558,12.9697674 13.1232558,12.2023256 C13.2,11.4348837 12.5093023,10.8209302 11.7418605,10.8209302 Z" id="Path"></path>
                            <path d="M40.7511628,0.460465116 C27.0139535,0.460465116 15.8860465,11.5883721 15.8860465,25.3255814 C15.8860465,39.0627907 27.0139535,50.1906977 40.7511628,50.1906977 C54.4883721,50.1906977 65.6162791,39.0627907 65.6162791,25.3255814 C65.6162791,11.5883721 54.4883721,0.460465116 40.7511628,0.460465116 Z M63.78,23.8811498 L58.5652787,23.8811498 C57.7630139,23.8811498 57.1212021,24.5229617 57.1212021,25.3252265 C57.1212021,26.1274913 57.7630139,26.7693031 58.5652787,26.7693031 L63.78,26.7693031 C63.4590941,32.0642509 61.3732056,36.8778397 58.0036934,40.5682578 L54.3132753,36.8778397 C53.7516899,36.3162544 52.7889721,36.3162544 52.2273868,36.8778397 C51.6658014,37.4394251 51.6658014,38.4021429 52.2273868,38.9637282 L55.9178049,42.6541463 C52.1471603,45.9434321 47.3335714,48.0293206 42.1188502,48.3502265 L42.1188502,43.1355052 C42.1188502,42.3332404 41.4770383,41.6914286 40.6747735,41.6914286 C39.8725087,41.6914286 39.2306969,42.3332404 39.2306969,43.1355052 L39.2306969,48.3502265 C33.9357491,48.0293206 29.2023868,45.8632056 25.5119686,42.5739199 L29.2023868,38.8835017 C29.7639721,38.3219164 29.7639721,37.3591986 29.2023868,36.7976132 C28.6408014,36.2360279 27.6780836,36.2360279 27.1164983,36.7976132 L23.4260801,40.4880314 C20.1367944,36.7173868 18.1311324,31.9840244 17.8102265,26.6890767 L22.9447213,26.6890767 C23.7469861,26.6890767 24.3887979,26.0472648 24.3887979,25.245 C24.3887979,24.4427352 23.6667596,23.7206969 22.8644948,23.7206969 L17.73,23.7206969 C18.0509059,18.5059756 20.2170209,13.6923868 23.5063066,10.0019686 L27.1164983,13.6121603 C27.4374042,13.9330662 27.7583101,14.0132927 28.1594425,14.0132927 C28.5605749,14.0132927 28.8814808,13.8528397 29.2023868,13.6121603 C29.7639721,13.0505749 29.7639721,12.0878571 29.2023868,11.5262718 L25.5921951,7.91608014 C29.2826132,4.62679443 34.0962021,2.54090592 39.3109233,2.22 L39.3109233,7.35449477 C39.3109233,8.15675958 39.9527352,8.79857143 40.755,8.79857143 C41.5572648,8.79857143 42.1990767,8.15675958 42.1990767,7.35449477 L42.1990767,2.22 C53.7516899,3.02226481 62.9777352,12.3285366 63.78,23.8811498 Z" id="Shape" fill-rule="nonzero"></path>
                            <path d="M42.2860465,21.7953488 C40.827907,21.1046512 39.0627907,21.4116279 37.9116279,22.5627907 C36.3767442,24.0976744 36.3767442,26.5534884 37.9116279,28.0883721 C39.4465116,29.6232558 41.9023256,29.6232558 43.4372093,28.0883721 C44.5883721,26.9372093 44.8953488,25.2488372 44.2813953,23.7906977 L52.8767442,15.1953488 C53.4139535,14.6581395 53.4139535,13.7372093 52.8767442,13.2 C52.3395349,12.6627907 51.4186047,12.6627907 50.8813953,13.2 L42.2860465,21.7953488 Z" id="Path"></path>
                        </g>
                    </g>
                </g>
            </g>
        </g>
    </g>
</svg>