<?xml version="1.0" encoding="UTF-8"?>
<svg width="92px" height="92px" viewBox="0 0 92 92" version="1.1" xmlns="http://www.w3.org/2000/svg" xmlns:xlink="http://www.w3.org/1999/xlink">
    <!-- Generator: Sketch 52.2 (67145) - http://www.bohemiancoding.com/sketch -->
    <title>liquid--icon--convenient</title>
    <desc>Created with Sketch.</desc>
    <g id="Page-1" stroke="none" stroke-width="1" fill="none" fill-rule="evenodd">
        <g id="CaseStudy_Liquid" transform="translate(-59.000000, -4591.000000)">
            <g id="Values" transform="translate(60.000000, 4414.000000)">
                <g id="1" transform="translate(0.000000, 178.000000)">
                    <g id="liquid--icon--convenient">
                        <path d="M56.6116596,45.9389107 C58.6067028,45.9389107 60.0000001,47.4684485 60,49.6575076 L60,57.324418 C60,61.2159007 58.5331993,66.5608833 58.4710059,66.7865918 C57.1059766,73.2313099 52.3356514,72.9967992 52.2912258,72.9983996 L44.5622612,73 C38.929299,73 36.1733974,69.5703418 35.7646966,69.0156704 C30.805365,64.0580747 30.9927539,57.7406168 31.003254,57.4732884 C31.0016378,54.2429249 31.7907702,51.9770301 33.3464172,50.7692461 C34.2276272,50.0857141 35.166993,49.8968242 35.8559678,49.8712107 L35.8559678,33.7882321 C35.8559678,31.6992217 37.5715421,30 39.679662,30 C41.7877819,30 43.5025462,31.6992217 43.5025462,33.7882321 L43.5025462,40.870859 C44.0784443,40.5731134 44.7488414,40.4218401 45.4152008,40.4218401 C46.9522726,40.4218401 48.2696438,41.4167234 48.8043488,42.8206013 C49.4230526,42.3163568 50.2016837,42.0154129 51.0465481,42.0154129 C53.0545116,42.0154129 54.6885048,43.7154336 54.6885048,45.8044439 L54.6885048,46.4871758 C55.2369401,46.1374054 55.8936069,45.9389107 56.6116596,45.9389107 Z M58.3458118,57.324418 L58.3458118,49.6575077 C58.3458118,48.6986453 57.8918803,47.5781021 56.6116597,47.5781021 C55.5092381,47.5781021 54.7091523,48.4352676 54.691735,49.6193905 L54.691735,53.5249797 C54.691735,53.9779973 54.3218048,54.3445766 53.8646432,54.3445766 C53.4074792,54.3445766 53.037549,53.9779973 53.037549,53.5249797 L53.037549,49.6575077 L53.0343189,49.6575077 L53.0343189,45.804444 C53.0343189,44.6190705 52.1426088,43.6546043 51.0465483,43.6546043 C49.9496778,43.6546043 49.0579677,44.6190705 49.0579677,45.804444 L49.0563526,45.804444 L49.0563526,51.8281574 C49.0563526,52.2811773 48.6864224,52.6477542 48.2292584,52.6477542 C47.7720969,52.6477542 47.4021666,52.2811773 47.4021666,51.8281574 L47.4021666,45.5699309 C47.4021666,45.5671302 47.4037309,45.5647775 47.4037816,45.5619768 L47.4037816,44.2108736 C47.4037816,43.0255 46.5120715,42.0610338 45.415201,42.0610338 C45.2197358,42.0610338 43.5025464,42.1026537 43.5025464,43.5361485 L43.5025464,50.3786561 C43.5025464,50.831676 43.1326162,51.198253 42.6754546,51.198253 C42.2182906,51.198253 41.8483604,50.831676 41.8483604,50.3786561 L41.8483604,43.5361485 L41.8483604,33.7882321 C41.8483604,32.6028597 40.8758791,31.6391925 39.6796621,31.6391925 C38.4834452,31.6391925 37.5101564,32.6028597 37.5101564,33.7882321 L37.5101564,50.7300269 C37.5101564,50.7420322 37.5101564,50.7540376 37.5101564,50.7652428 L37.5101564,54.9296601 C37.5101564,55.3826776 37.1402261,55.7492546 36.6830622,55.7492546 C36.2258982,55.7492546 35.8559679,55.3826776 35.8559679,54.9296601 L35.8559679,51.5080038 C35.438382,51.5328147 34.8746015,51.658477 34.3463615,52.0754784 C33.2406071,52.9503008 32.6558263,54.828011 32.6566338,57.5053059 C32.6542101,57.594147 32.4991303,63.4617834 36.9835289,67.9055321 L37.0828778,68.0239902 C37.1757641,68.1576568 39.4720816,71.3608063 44.5622613,71.3608063 L52.3453441,71.3608063 C52.5295017,71.3752147 55.7918354,71.4560539 56.8636681,66.4008053 C56.890321,66.2999564 58.3458116,60.993393 58.3458116,57.324418 Z M44,28 C44,27.4472664 44.3777317,27 44.8445342,27 L51.1554633,27 C51.6222683,27 52,27.4472664 52,28 C52,28.5527336 51.6222683,29 51.1554633,29 L44.8445342,29 C44.3777317,29 44,28.5527336 44,28 Z M43.8237032,26 C43.6129503,26 43.4021999,25.91956 43.2413199,25.75868 C42.91956,25.4369213 42.91956,24.9156722 43.2413199,24.5939135 L47.5939135,20.2413195 C47.915671,19.9195602 48.4369225,19.9195602 48.7586801,20.2413195 C49.08044,20.5630782 49.08044,21.0843279 48.7586801,21.4060867 L44.4060865,25.7586801 C44.2452065,25.91956 44.034456,26 43.8237032,26 Z M40,25 C39.4472679,25 39,24.6222672 39,24.1554636 L39,17.8445361 C39,17.3777319 39.4472679,17 40,17 C40.552735,17 41,17.3777319 41,17.8445361 L41,24.1554635 C41,24.6222672 40.552735,25 40,25 Z M36.594102,25.75868 L32.2412867,21.4060863 C31.9195711,21.0843276 31.9195711,20.5630778 32.2412867,20.2413191 C32.5630024,19.9195603 33.0841816,19.9195603 33.4058984,20.2413191 L37.7587124,24.5939134 C38.0804292,24.9156722 38.0804292,25.4369213 37.7587124,25.75868 C37.597854,25.91956 37.3871318,26 37.1764072,26 C36.9656825,26 36.754958,25.91956 36.594102,25.75868 Z M37,27.9999993 C37,28.5527347 36.6222684,29 36.1554634,29 L29.8445366,29 C29.3777316,29 29,28.5527347 29,27.9999993 C29,27.4472653 29.3777316,27 29.8445366,27 L36.1554634,27 C36.6222684,27 37,27.4472653 37,27.9999993 Z" id="icon--convenient" fill="#203A4B" fill-rule="nonzero"></path>
                        <circle id="Oval" stroke="#D8A564" stroke-width="2" cx="45" cy="45" r="45"></circle>
                    </g>
                </g>
            </g>
        </g>
    </g>
</svg>