<svg width="162" height="25" viewBox="0 0 162 25" fill="none" xmlns="http://www.w3.org/2000/svg">
<path d="M162 14.1171C162 19.7994 157.397 24.402 151.724 24.402H150.048V0.406738H162V14.1171Z" fill="white"/>
<path d="M42.9937 1.60156L51.3599 24.4064H34.6982L42.9937 1.60156Z" fill="white"/>
<path d="M64.4049 24.4064H52.5896L43.7856 0.411133H55.6009L64.4049 24.4064Z" fill="white"/>
<path d="M126.28 0.411133L117.476 24.4064H105.011V0.411133H126.28Z" fill="white"/>
<path d="M123.556 11.2095L128.252 24.4064H118.723L123.556 11.2095Z" fill="white"/>
<path d="M136.871 0.411133H148.823V24.4064H147.147C141.469 24.4064 136.871 19.7994 136.871 14.117V0.411133V0.411133Z" fill="white"/>
<path d="M86.4696 24.4064H74.6543L83.4583 0.411133H95.2735L86.4696 24.4064Z" fill="white"/>
<path d="M76.4986 16.0067L70.5688 0.411133H82.2116L76.4986 16.0067Z" fill="white"/>
<path d="M23.9754 24.4069H0V0.411621L23.9754 24.4069Z" fill="white"/>
<path d="M23.9748 22.6052V0.411133L12.8096 11.5104L23.9748 22.6052Z" fill="white"/>
</svg>
