<?xml version="1.0" encoding="UTF-8"?>
<svg width="25px" height="18px" viewBox="0 0 25 18" version="1.1" xmlns="http://www.w3.org/2000/svg" xmlns:xlink="http://www.w3.org/1999/xlink">
    <!-- Generator: Sketch 49.3 (51167) - http://www.bohemiancoding.com/sketch -->
    <title>“</title>
    <desc>Created with Sketch.</desc>
    <defs></defs>
    <g id="Page-1" stroke="none" stroke-width="1" fill="none" fill-rule="evenodd">
        <g id="Home" transform="translate(-60.000000, -2741.000000)" fill="#D8A564">
            <g id="Quotes" transform="translate(60.000000, 2741.000000)">
                <g id="Quote1">
                    <path d="M24.264,2.448 C22.4399909,3.02400288 20.9880054,3.88799424 19.908,5.04 C18.8279946,6.19200576 18.4079988,7.67999088 18.648,9.504 C19.1760026,9.93600216 19.9199952,10.3799977 20.88,10.836 C21.8400048,11.2920023 22.6799964,11.6399988 23.4,11.88 C23.592001,12.6480038 23.592001,13.3919964 23.4,14.112 C23.207999,14.8320036 22.8960022,15.4679972 22.464,16.02 C22.0319978,16.5720028 21.5280029,17.0279982 20.952,17.388 C20.3759971,17.7480018 19.8480024,17.9519998 19.368,18 C17.6879916,17.8559993 16.2240062,17.2320055 14.976,16.128 C13.7279938,15.0239945 13.104,13.4400103 13.104,11.376 C13.104,10.175994 13.307998,8.976006 13.716,7.776 C14.124002,6.575994 14.7359959,5.46000516 15.552,4.428 C16.3680041,3.39599484 17.3999938,2.48400396 18.648,1.692 C19.8960062,0.89999604 21.3839914,0.33600168 23.112,0 L24.264,2.448 Z M11.16,2.448 C9.33599088,3.02400288 7.8840054,3.88799424 6.804,5.04 C5.7239946,6.19200576 5.3039988,7.67999088 5.544,9.504 C6.07200264,9.93600216 6.8159952,10.3799977 7.776,10.836 C8.7360048,11.2920023 9.5759964,11.6399988 10.296,11.88 C10.488001,12.6480038 10.488001,13.3919964 10.296,14.112 C10.103999,14.8320036 9.79200216,15.4679972 9.36,16.02 C8.92799784,16.5720028 8.42400288,17.0279982 7.848,17.388 C7.27199712,17.7480018 6.7440024,17.9519998 6.264,18 C4.5839916,17.8559993 3.12000624,17.2320055 1.872,16.128 C0.62399376,15.0239945 0,13.4400103 0,11.376 C0,10.175994 0.20399796,8.976006 0.612,7.776 C1.02000204,6.575994 1.63199592,5.46000516 2.448,4.428 C3.26400408,3.39599484 4.29599376,2.48400396 5.544,1.692 C6.79200624,0.89999604 8.27999136,0.33600168 10.008,0 L11.16,2.448 Z" id="“"></path>
                </g>
            </g>
        </g>
    </g>
</svg>