<svg width="96" height="28" viewBox="0 0 96 28" fill="none" xmlns="http://www.w3.org/2000/svg">
<g clip-path="url(#clip0_33_28)">
<path fill-rule="evenodd" clip-rule="evenodd" d="M40.5256 21.5172C40.5256 22.4402 40.3625 23.2494 40.0362 23.9449C39.7099 24.6404 39.2431 25.177 38.6356 25.5548C38.0281 25.9326 37.3316 26.1215 36.5459 26.1215C35.7689 26.1215 35.0756 25.9347 34.466 25.5612C33.8564 25.1878 33.3841 24.6543 33.0493 23.961C32.7144 23.2677 32.5448 22.4703 32.5405 21.5687V21.1051C32.5405 20.1821 32.7069 19.3696 33.0396 18.6677C33.3723 17.9658 33.8424 17.427 34.4499 17.0514C35.0573 16.6757 35.7517 16.4879 36.5331 16.4879C37.3144 16.4879 38.0088 16.6757 38.6163 17.0514C39.2237 17.427 39.6938 17.9658 40.0265 18.6677C40.3592 19.3696 40.5256 20.1799 40.5256 21.0986V21.5172ZM38.568 21.0922C38.568 20.1091 38.392 19.3621 38.0399 18.8512C37.6879 18.3404 37.1856 18.0849 36.5331 18.0849C35.8848 18.0849 35.3847 18.3371 35.0327 18.8416C34.6806 19.346 34.5025 20.0855 34.4982 21.06V21.5172C34.4982 22.4746 34.6742 23.2172 35.0262 23.7453C35.3782 24.2733 35.8848 24.5374 36.5459 24.5374C37.1942 24.5374 37.6922 24.283 38.0399 23.7743C38.3877 23.2655 38.5637 22.5239 38.568 21.5494V21.0922ZM42.0131 25.9927V20.3903H40.9763V19.0251H42.0131V18.4327C42.0131 17.6513 42.2374 17.0449 42.686 16.6135C43.1346 16.182 43.7625 15.9663 44.5696 15.9663C44.8272 15.9663 45.1427 16.0092 45.5162 16.0951L45.4969 17.5376C45.3423 17.4989 45.1534 17.4796 44.9302 17.4796C44.2304 17.4796 43.8806 17.808 43.8806 18.4649V19.0251H45.2651V20.3903H43.8806V25.9927H42.0131ZM46.705 25.9927V20.3903H45.6682V19.0251H46.705V18.4327C46.705 17.6513 46.9293 17.0449 47.3779 16.6135C47.8265 16.182 48.4544 15.9663 49.2615 15.9663C49.5191 15.9663 49.8346 16.0092 50.2081 16.0951L50.1888 17.5376C50.0342 17.4989 49.8453 17.4796 49.6221 17.4796C48.9223 17.4796 48.5725 17.808 48.5725 18.4649V19.0251H49.957V20.3903H48.5725V25.9927H46.705ZM52.5643 25.9927H50.6968V19.0251H52.5643V25.9927ZM51.6865 18.3135C51.1432 18.3135 50.7027 17.873 50.7027 17.3297C50.7027 16.7864 51.1432 16.3459 51.6865 16.3459C52.2298 16.3459 52.6703 16.7864 52.6703 17.3297C52.6703 17.873 52.2298 18.3135 51.6865 18.3135ZM56.6984 24.6211C57.0419 24.6211 57.3209 24.5266 57.5356 24.3377C57.7502 24.1488 57.8618 23.8977 57.8704 23.5843H59.6156C59.6113 24.0565 59.4825 24.4891 59.2292 24.8819C58.9759 25.2747 58.6292 25.5795 58.1892 25.7963C57.7492 26.0131 57.263 26.1215 56.7306 26.1215C55.7346 26.1215 54.949 25.8049 54.3738 25.1717C53.7985 24.5384 53.5109 23.6637 53.5109 22.5475V22.4252C53.5109 21.3519 53.7963 20.4955 54.3673 19.8558C54.9383 19.2161 55.7218 18.8963 56.7178 18.8963C57.5892 18.8963 58.2879 19.1442 58.8138 19.6401C59.3397 20.1359 59.607 20.796 59.6156 21.6202H57.8704C57.8618 21.2596 57.7502 20.9666 57.5356 20.7412C57.3209 20.5159 57.0376 20.4032 56.6856 20.4032C56.252 20.4032 55.9246 20.5609 55.7035 20.8765C55.4824 21.192 55.3719 21.704 55.3719 22.4123V22.6055C55.3719 23.3224 55.4814 23.8376 55.7003 24.151C55.9192 24.4644 56.252 24.6211 56.6984 24.6211ZM63.885 26.1215C62.8632 26.1215 62.0315 25.8081 61.3897 25.1813C60.7478 24.5545 60.4269 23.7195 60.4269 22.6763V22.496C60.4269 21.7963 60.5622 21.1705 60.8326 20.6189C61.1031 20.0672 61.4862 19.6422 61.9821 19.3439C62.4779 19.0455 63.0435 18.8963 63.6789 18.8963C64.632 18.8963 65.3822 19.1968 65.9295 19.7978C66.4769 20.3989 66.7506 21.251 66.7506 22.3543V23.1142H62.3137C62.3738 23.5693 62.5552 23.9342 62.8579 24.2089C63.1605 24.4837 63.5437 24.6211 64.0073 24.6211C64.7243 24.6211 65.2845 24.3613 65.6881 23.8419L66.6025 24.8658C66.3234 25.2607 65.9456 25.5688 65.4691 25.7899C64.9926 26.0109 64.4645 26.1215 63.885 26.1215ZM63.6725 20.4032C63.3033 20.4032 63.0038 20.5277 62.7742 20.7767C62.5445 21.0257 62.3974 21.382 62.333 21.8456H64.9217V21.6975C64.9132 21.2854 64.8015 20.9666 64.5869 20.7412C64.3722 20.5159 64.0674 20.4032 63.6725 20.4032ZM71.645 20.7702C71.3917 20.7359 71.1685 20.7187 70.9753 20.7187C70.2712 20.7187 69.8097 20.957 69.5908 21.4335V25.9927H67.7297V19.0251H69.4877L69.5392 19.8558C69.9127 19.2161 70.4301 18.8963 71.0912 18.8963C71.2972 18.8963 71.4904 18.9242 71.6707 18.98L71.645 20.7702Z" fill="black"/>
<path fill-rule="evenodd" clip-rule="evenodd" d="M35.7603 8.40072L34.7558 9.48257V12.1614H32.8239V2.78543H34.7558V7.03554L35.6058 5.86998L37.9948 2.78543H40.371L37.0418 6.95182L40.4676 12.1614H38.1687L35.7603 8.40072ZM42.7859 5.19382L42.8438 5.99877C43.3418 5.37627 44.0094 5.06503 44.8465 5.06503C45.5849 5.06503 46.1344 5.28183 46.4951 5.71543C46.8557 6.14903 47.0403 6.79727 47.0489 7.66017V12.1614H45.1878V7.70525C45.1878 7.31029 45.102 7.02373 44.9303 6.84557C44.7585 6.66741 44.473 6.57833 44.0738 6.57833C43.55 6.57833 43.1572 6.80156 42.8953 7.24804V12.1614H41.0343V5.19382H42.7859ZM47.8666 8.61323C47.8666 7.92204 47.9997 7.306 48.2659 6.76507C48.5321 6.22415 48.9152 5.80558 49.4154 5.50936C49.9155 5.21314 50.4961 5.06503 51.1573 5.06503C52.0974 5.06503 52.8648 5.35266 53.4594 5.92793C54.054 6.5032 54.3856 7.28453 54.4543 8.27193L54.4672 8.74846C54.4672 9.81743 54.1688 10.675 53.5721 11.3211C52.9754 11.9672 52.1747 12.2902 51.1701 12.2902C50.1656 12.2902 49.3638 11.9682 48.765 11.3243C48.1661 10.6803 47.8666 9.80455 47.8666 8.69694V8.61323ZM49.7277 8.74846C49.7277 9.40959 49.8522 9.91509 50.1012 10.265C50.3502 10.6149 50.7065 10.7898 51.1701 10.7898C51.6209 10.7898 51.9729 10.617 52.2262 10.2714C52.4795 9.92582 52.6062 9.3731 52.6062 8.61323C52.6062 7.96498 52.4795 7.46269 52.2262 7.10637C51.9729 6.75005 51.6166 6.57189 51.1573 6.57189C50.7022 6.57189 50.3502 6.74897 50.1012 7.10315C49.8522 7.45733 49.7277 8.00576 49.7277 8.74846ZM61.219 9.63068L62.1334 5.19382H63.9301L62.1527 12.1614H60.5944L59.2743 7.77608L57.9541 12.1614H56.4022L54.6249 5.19382H56.4215L57.3295 9.62424L58.6045 5.19382H59.9504L61.219 9.63068ZM66.815 12.1614H64.9475V2.27026H66.815V12.1614ZM71.4031 12.2902C70.3814 12.2902 69.5496 11.9768 68.9078 11.35C68.266 10.7233 67.9451 9.88826 67.9451 8.84505V8.66474C67.9451 7.96498 68.0803 7.33927 68.3508 6.78761C68.6213 6.23595 69.0044 5.81095 69.5003 5.51258C69.9961 5.21421 70.5617 5.06503 71.1971 5.06503C72.1501 5.06503 72.9003 5.36554 73.4477 5.96657C73.9951 6.5676 74.2687 7.41976 74.2687 8.52307V9.28294H69.8319C69.892 9.73801 70.0734 10.1029 70.376 10.3777C70.6787 10.6524 71.0618 10.7898 71.5255 10.7898C72.2424 10.7898 72.8027 10.5301 73.2062 10.0106L74.1206 11.0345C73.8416 11.4295 73.4638 11.7375 72.9873 11.9586C72.5107 12.1797 71.9827 12.2902 71.4031 12.2902ZM71.1906 6.57189C70.8214 6.57189 70.522 6.69638 70.2923 6.94538C70.0626 7.19438 69.9156 7.5507 69.8512 8.01435H72.4399V7.86624C72.4313 7.45411 72.3197 7.13535 72.1051 6.90996C71.8904 6.68458 71.5856 6.57189 71.1906 6.57189ZM75.0351 8.62611C75.0351 7.53996 75.2787 6.67492 75.7659 6.03096C76.2532 5.38701 76.9197 5.06503 77.7654 5.06503C78.4437 5.06503 79.004 5.31832 79.4461 5.8249V2.27026H81.3136V12.1614H79.6329L79.5427 11.4209C79.0791 12.0004 78.4824 12.2902 77.7525 12.2902C76.9326 12.2902 76.2747 11.9672 75.7788 11.3211C75.283 10.675 75.0351 9.77665 75.0351 8.62611ZM76.8961 8.76134C76.8961 9.41388 77.0098 9.91402 77.2374 10.2618C77.4649 10.6095 77.7955 10.7834 78.2291 10.7834C78.8043 10.7834 79.21 10.5408 79.4461 10.0557V7.306C79.2143 6.82088 78.8129 6.57833 78.2419 6.57833C77.3447 6.57833 76.8961 7.30599 76.8961 8.76134ZM82.3343 8.62611C82.3343 7.55713 82.5886 6.69639 83.0974 6.04384C83.6061 5.3913 84.2919 5.06503 85.1548 5.06503C85.919 5.06503 86.5135 5.3269 86.9386 5.85066L87.0158 5.19382H88.703V11.9296C88.703 12.5392 88.5645 13.0694 88.2876 13.5202C88.0107 13.9709 87.6211 14.3144 87.1189 14.5505C86.6166 14.7866 86.0284 14.9047 85.3544 14.9047C84.8435 14.9047 84.3456 14.8027 83.8604 14.5988C83.3753 14.3949 83.0083 14.1319 82.7593 13.8099L83.5835 12.6766C84.0472 13.196 84.6096 13.4558 85.2707 13.4558C85.7644 13.4558 86.1486 13.3238 86.4234 13.0597C86.6981 12.7957 86.8355 12.4212 86.8355 11.936V11.5625C86.4062 12.0477 85.8417 12.2902 85.1419 12.2902C84.3048 12.2902 83.6275 11.9629 83.1102 11.3082C82.5929 10.6535 82.3343 9.78523 82.3343 8.70338V8.62611ZM84.1953 8.76134C84.1953 9.39242 84.3219 9.88718 84.5752 10.2457C84.8285 10.6041 85.1763 10.7834 85.6184 10.7834C86.1851 10.7834 86.5908 10.5709 86.8355 10.1458V7.21584C86.5865 6.79083 86.1851 6.57833 85.6313 6.57833C85.1848 6.57833 84.8339 6.76078 84.5785 7.12569C84.323 7.4906 84.1953 8.03581 84.1953 8.76134ZM93.0368 12.2902C92.015 12.2902 91.1833 11.9768 90.5414 11.35C89.8996 10.7233 89.5787 9.88826 89.5787 8.84505V8.66474C89.5787 7.96498 89.714 7.33927 89.9844 6.78761C90.2549 6.23595 90.638 5.81095 91.1339 5.51258C91.6297 5.21421 92.1953 5.06503 92.8307 5.06503C93.7838 5.06503 94.534 5.36554 95.0813 5.96657C95.6287 6.5676 95.9024 7.41976 95.9024 8.52307V9.28294H91.4655C91.5256 9.73801 91.707 10.1029 92.0097 10.3777C92.3123 10.6524 92.6955 10.7898 93.1591 10.7898C93.8761 10.7898 94.4363 10.5301 94.8398 10.0106L95.7543 11.0345C95.4752 11.4295 95.0974 11.7375 94.6209 11.9586C94.1444 12.1797 93.6163 12.2902 93.0368 12.2902ZM92.8243 6.57189C92.4551 6.57189 92.1556 6.69638 91.9259 6.94538C91.6963 7.19438 91.5492 7.5507 91.4848 8.01435H94.0735V7.86624C94.065 7.45411 93.9533 7.13535 93.7387 6.90996C93.524 6.68458 93.2192 6.57189 92.8243 6.57189Z" fill="black"/>
<path fill-rule="evenodd" clip-rule="evenodd" d="M17.6081 24.2162H17.5699L10.8973 17.5483V21.875C9.3991 21.2316 8.24466 20.4032 7.26486 18.9722V5.942C4.95442 7.87155 3.45472 10.7773 3.45472 14.0003C3.45472 19.8382 8.21203 24.5426 13.9888 24.5426C14.3286 24.5426 14.6118 24.4859 14.8383 24.4859L17.5568 27.4899C16.4241 27.83 15.1781 28 13.9321 28C6.22982 28 0 21.7653 0 14.057C0 7.42556 4.72411 1.71968 10.8973 0.302703V3.63243V10.3297V10.3676C10.8973 10.3676 14.0035 7.21769 15.5062 5.6793C17.1892 6.02531 17.9818 6.3693 19.062 7.19109C16.8954 9.38055 12.4371 13.958 12.4371 13.958L20.7131 22.228C23.0903 20.2996 24.6033 17.3361 24.6033 14.0289C24.6033 8.17878 19.8478 3.46462 14.0734 3.46462C13.7337 3.46462 13.4506 3.52142 13.1676 3.52142V0.0567971C13.4506 0 13.7903 0 14.0734 0C21.7726 0 28 6.24768 28 13.9721C28 19.5382 24.7165 24.3092 20.0743 26.6378L17.6081 24.2162Z" fill="black"/>
</g>
<defs>
<clipPath id="clip0_33_28">
<rect width="95.9568" height="28" fill="white"/>
</clipPath>
</defs>
</svg>
