<svg width="57" height="20" viewBox="0 0 57 20" fill="none" xmlns="http://www.w3.org/2000/svg">
<path fill-rule="evenodd" clip-rule="evenodd" d="M44.5764 10.86L45.6506 3.25571C45.8934 1.53714 44.552 0.00142857 42.8055 0.00142857H40.4172C40.2017 0.00142857 40.0208 0.158571 39.9906 0.37L38.5085 10.86C38.2672 12.5729 36.6687 13.9657 34.9481 13.9657C33.2276 13.9657 32.0226 12.5729 32.2653 10.86L33.4545 2.44143C33.6369 1.15143 32.6301 0 31.3217 0H28.1061C27.8907 0 27.7097 0.157143 27.6796 0.368571L26.1974 10.8586C25.9561 12.5714 24.3577 13.9643 22.6371 13.9643C20.9165 13.9643 19.7116 12.5714 19.9543 10.8586L21.2584 1.62714C21.3804 0.767143 20.7083 0 19.8365 0H15.7951C15.5796 0 15.3987 0.157143 15.3685 0.368571L13.8864 10.8586C13.174 15.8986 16.7171 20 21.784 20C24.1494 20 26.4358 19.1057 28.2741 17.64C29.6974 19.1057 31.7311 20 34.0965 20C39.1634 20 43.8655 15.9 44.5778 10.8586L44.5764 10.86ZM56.2742 19.63L56.998 14.5057C56.998 14.5057 57.0555 14.0129 56.5514 13.94C55.0635 13.73 54.0754 12.43 54.2965 10.8643L55.3708 3.26001C55.615 1.53858 54.2721 0.00429688 52.5272 0.00429688H50.1388C49.9233 0.00429688 49.7424 0.16144 49.7122 0.372868L48.2301 10.8629C47.5321 15.8043 50.9244 19.8443 55.8333 19.9986C56.053 20.0057 56.244 19.8457 56.2756 19.6286L56.2742 19.63ZM11.2596 5.55295L11.9748 0.495806L11.9734 0.494378C12.0136 0.214378 11.814 -0.00705084 11.5296 0.00580631C6.62644 0.225806 2.16132 4.23723 1.46908 9.13866L0.00416035 19.5087C-0.0317445 19.7672 0.169322 19.9972 0.430709 19.9972H5.62829C5.84228 19.9972 6.02468 19.8401 6.05484 19.6287L7.53699 9.13866C7.75816 7.57295 9.11106 6.27438 10.6564 6.06295C11.2366 5.96866 11.2596 5.55295 11.2596 5.55295Z" fill="#131313"/>
</svg>
