<?xml version="1.0" encoding="UTF-8"?>
<svg width="1200px" height="533px" viewBox="0 0 1200 533" version="1.1" xmlns="http://www.w3.org/2000/svg" xmlns:xlink="http://www.w3.org/1999/xlink">
    <!-- Generator: Sketch 42 (36781) - http://www.bohemiancoding.com/sketch -->
    <title>Group</title>
    <desc>Created with Sketch.</desc>
    <defs>
        <polygon id="path-1" points="936 79.7471417 936 156.94 628.948 156.94 628.948 2.55428333 936 2.55428333 936 79.7471417"></polygon>
    </defs>
    <g id="Page-1" stroke="none" stroke-width="1" fill="none" fill-rule="evenodd">
        <g id="Group">
            <g id="Tranz" transform="translate(0.000000, 200.000000)">
                <path d="M46.001,1.03 C69.434,0.951 92.867,0.903 116.299,0.751 C118.842,0.734 119.451,1.812 119.288,4.04 C119.119,6.354 119.111,8.679 119.032,10.999 C100.572,10.999 82.111,10.935 63.651,11.042 C58.524,11.072 53.389,11.295 50.555,16.968 C48.044,21.993 45.07,26.736 41.698,31.308 C39.742,33.96 36.841,36.992 37.948,41.133 C25.301,40.524 12.65,40.778 0,41 L0,12 C1.985,11.944 3.983,12.018 5.951,11.811 C17.716,10.577 29.454,9.033 41.241,8.089 C48.755,7.487 48.837,7.796 46.001,1.03" id="Fill-7" fill="#3C629F"></path>
                <path d="M46.001,1.03 C48.837,7.796 48.755,7.487 41.241,8.089 C29.454,9.033 17.716,10.577 5.951,11.811 C3.983,12.018 1.985,11.944 0,12 L0,1 C15.334,0.598 30.668,0.546 46.001,1.03" id="Fill-8" fill="#3B629F"></path>
                <path d="M600.944,33.981 C600.95,61.654 600.957,89.327 600.964,117 C592.138,116.486 584.653,111.819 576.606,108.959 C563.835,104.419 551.307,99.2 538.62,94.417 C535.839,93.368 533.645,93.742 532.796,97.552 C532.062,100.841 531.582,104.463 528.901,107.05 C521.077,95.28 513.253,83.51 505.43,71.74 C504.952,71.853 504.475,71.967 503.998,72.08 L503.998,138.989 C496.208,140.138 489.821,144.699 482.879,147.866 C481.091,148.682 477.991,148.69 477.986,151.941 C472.53,152.22 465.625,154.226 462.037,151.328 C458.542,148.505 460.98,141.356 460.963,136.124 C460.856,102.244 460.906,68.363 460.918,34.482 C460.918,32.661 461.045,30.84 461.113,29.018 C464.2,29.29 466.959,28.189 469.779,27.129 C478.788,23.744 487.811,20.391 496.902,17.238 C499.263,16.419 501.943,15.43 503.97,18.453 C510.609,28.358 518.755,37.159 525.145,47.256 C530.564,55.82 532.35,56.779 539.018,54.977 C544.89,63.768 550.762,72.56 556.634,81.351 C557.123,81.264 557.612,81.177 558.101,81.091 L558.101,47.989 C564.347,45.859 570.52,43.479 576.856,41.662 C584.966,39.337 592.537,35.345 600.944,33.981" id="Fill-13" fill="#2FB4DC"></path>
                <path d="M691.994,1.003 C710.978,0.928 729.962,0.883 748.946,0.741 C751.293,0.724 752.147,1.454 752.124,3.865 C752.026,14.526 752.003,25.189 752.14,35.849 C752.175,38.591 750.47,40.064 748.956,41.772 C728.516,64.832 708.062,87.88 687.622,110.939 C686.77,111.899 686.015,112.946 685.196,113.978 C686.645,115.441 688.22,114.778 689.6,114.782 C708.924,114.834 728.249,114.914 747.571,114.733 C751.252,114.698 752.446,115.595 752.328,119.41 C752.042,128.73 752.083,138.069 752.306,147.392 C752.391,150.925 751.705,152.268 747.739,152.252 C708.592,152.091 669.444,152.12 630.296,152.217 C627.112,152.225 625.941,151.485 626.014,148.092 C626.227,138.101 626.167,128.102 626.028,118.109 C625.992,115.549 626.904,113.765 628.547,111.926 C648.525,89.57 668.439,67.157 688.365,44.755 C689.987,42.932 691.576,41.08 693.18,39.241 C691.583,37.572 690.002,38.224 688.623,38.22 C669.465,38.169 650.306,38.051 631.152,38.291 C626.887,38.344 625.543,37.066 626.031,32.976 C626.384,30.016 626.233,26.997 626.306,24.004 C627.743,23.659 629.221,23.432 630.611,22.951 C644.174,18.256 657.795,13.713 671.245,8.712 C678.159,6.141 685.462,4.595 691.994,1.003" id="Fill-11" fill="#32B5DD"></path>
                <path d="M140.293,143.996 C140.217,135.366 140.082,126.736 140.075,118.106 C140.05,84.058 140.06,50.01 140.074,15.962 C140.075,13.976 140.224,11.99 140.303,10.004 C160.495,9.455 180.724,11.158 200.888,9.001 C203.508,17.822 208.158,25.925 210.074,34.995 C202.432,35.063 194.789,35.237 187.149,35.142 C184.42,35.109 183.327,35.787 183.384,38.73 C183.553,47.537 183.559,56.352 183.38,65.159 C183.319,68.185 184.162,69.183 187.289,69.099 C195.429,68.881 203.58,68.926 211.723,69.067 C215.98,69.14 219.986,68.489 223.744,66.468 C227.563,81.159 234.331,94.78 239.208,109.087 C240.693,115.671 239.65,122.367 240.087,128.998 C232.163,129.27 224.596,131.589 216.878,133.047 C211.5,124.703 205.915,116.482 200.835,107.96 C198.553,104.131 196.101,102.396 191.455,102.642 C183.203,103.079 183.217,102.764 183.178,111.149 C183.136,120.1 183.028,129.05 182.949,138.001 C168.731,139.999 154.512,141.997 140.293,143.996" id="Fill-15" fill="#3B629F"></path>
                <path d="M406.108,49.956 C413.368,69.964 420.656,89.961 427.878,109.983 C432.341,122.353 436.505,134.836 441.213,147.112 C442.981,151.72 441.65,152.321 437.395,152.236 C426.066,152.009 414.728,152.027 403.399,152.24 C400.034,152.304 398.312,151.465 397.37,148.038 C395.696,141.947 393.382,136.035 391.561,129.981 C390.806,127.469 389.533,126.666 386.938,126.688 C373.106,126.808 359.272,126.827 345.441,126.677 C342.54,126.645 341.349,127.751 340.533,130.363 C338.599,136.557 336.383,142.664 334.283,148.808 C333.756,150.351 333.595,152.155 331.274,152.151 C317.335,152.13 303.395,152.141 288.878,152.141 C294.887,135.37 300.629,119.245 306.447,103.148 C309.156,95.654 312.013,88.214 314.802,80.749 C315.866,82.308 317.288,82.112 318.785,81.568 C324.986,79.319 331.174,77.034 337.393,74.835 C344.862,72.193 352.123,68.951 359.831,66.991 C357.781,74.331 355.91,81.727 353.603,88.986 C352.499,92.462 352.862,93.779 356.847,93.614 C362.983,93.359 369.142,93.396 375.281,93.606 C378.758,93.724 379.59,92.848 378.522,89.359 C375.758,80.328 373.364,71.183 370.822,62.084 C383.037,59.361 394.334,53.965 406.108,49.956" id="Fill-16" fill="#2FB4DC"></path>
                <path d="M37.948,41.133 C36.841,36.992 39.742,33.96 41.698,31.308 C45.07,26.736 48.044,21.993 50.555,16.968 C53.389,11.295 58.524,11.072 63.651,11.042 C82.111,10.935 100.572,10.999 119.032,10.999 C119.12,19.816 119.094,28.637 119.358,37.449 C119.453,40.61 117.95,40.896 115.424,40.87 C105.933,40.772 96.434,41.041 86.952,40.736 C82.589,40.595 81.054,41.523 81.088,46.344 C81.328,79.981 81.154,113.62 81.299,147.258 C81.316,151.075 80.481,152.372 76.427,152.268 C64.944,151.975 53.447,152.046 41.96,152.239 C38.653,152.295 37.807,151.275 37.818,148.041 C37.947,112.406 37.928,76.769 37.948,41.133" id="Fill-18" fill="#3B629F"></path>
                <path d="M239.208,109.087 C234.331,94.78 227.563,81.159 223.745,66.468 C231.564,60.574 231.229,50.549 228.799,44.221 C225.841,36.517 219.018,34.948 211.552,35.177 C211.062,35.192 210.567,35.059 210.074,34.995 C208.158,25.925 203.508,17.822 200.89,9.001 C201.901,6.342 202.91,3.684 203.92,1.026 C215.559,0.874 227.261,-0.311 238.795,1.96 C259.574,6.051 273.614,22.865 273.999,43.956 C274.124,50.779 274.405,57.688 273.545,64.422 C271.243,82.461 260.978,93.983 242.223,100.579 C242.316,103.053 244.745,104.441 245.154,106.762 C243.698,108.881 241.465,109.016 239.208,109.087" id="Fill-22" fill="#418FC1"></path>
                <path d="M406.108,49.956 C394.334,53.965 383.037,59.361 370.822,62.083 C368.526,58.065 368.86,52.992 365.65,48.54 C363.565,55.152 361.698,61.071 359.831,66.991 C352.123,68.951 344.862,72.193 337.393,74.835 C331.174,77.034 324.986,79.319 318.785,81.568 C317.288,82.112 315.866,82.308 314.802,80.749 C321.366,62.115 327.918,43.476 334.5,24.848 C336.935,17.956 339.589,11.137 341.844,4.188 C342.734,1.447 344.117,0.681 346.875,0.71 C359.68,0.845 372.488,0.775 385.295,0.765 C387.133,0.763 388.875,0.56 389.695,2.936 C395.116,18.627 400.626,34.286 406.108,49.956" id="Fill-23" fill="#418FC1"></path>
                <path d="M528.901,107.05 C531.582,104.463 532.062,100.841 532.796,97.552 C533.645,93.742 535.839,93.368 538.62,94.417 C551.307,99.2 563.835,104.419 576.606,108.959 C584.653,111.819 592.138,116.486 600.964,117 C601.034,127.637 601.03,138.276 601.226,148.91 C601.277,151.658 600.163,152.221 597.699,152.203 C585.394,152.111 573.088,152.147 560.782,152.18 C559.036,152.184 557.642,151.968 556.561,150.267 C547.387,135.832 538.132,121.449 528.901,107.05" id="Fill-28" fill="#32BBDC"></path>
                <path d="M600.944,33.981 C592.537,35.345 584.966,39.337 576.856,41.662 C570.52,43.479 564.347,45.859 558.101,47.989 C558.035,33.356 558.026,18.722 557.854,4.091 C557.822,1.423 558.752,0.708 561.3,0.73 C573.442,0.834 585.586,0.829 597.728,0.732 C600.23,0.712 601.279,1.348 601.224,4.06 C601.021,14.031 601.02,24.007 600.944,33.981" id="Fill-33" fill="#418FC1"></path>
                <path d="M539.018,54.977 C532.35,56.779 530.564,55.82 525.145,47.256 C518.755,37.159 510.609,28.358 503.97,18.453 C501.943,15.43 499.263,16.419 496.902,17.238 C487.811,20.391 478.788,23.744 469.779,27.129 C466.959,28.189 464.2,29.29 461.113,29.018 C461.044,20.712 461.06,12.404 460.857,4.101 C460.791,1.438 461.76,0.706 464.308,0.727 C476.774,0.827 489.242,0.803 501.708,0.74 C503.581,0.731 504.777,1.362 505.778,2.935 C516.831,20.3 527.931,37.635 539.018,54.977" id="Fill-34" fill="#418FC1"></path>
                <path d="M239.208,109.087 C241.465,109.016 243.698,108.881 245.154,106.762 C254.534,121.528 263.914,136.294 273.85,151.936 L245.953,151.936 C244.312,144.21 243.022,136.393 240.087,128.998 C239.65,122.367 240.693,115.671 239.208,109.087" id="Fill-37" fill="#2FB4DC"></path>
                <path d="M203.92,1.026 C202.91,3.684 201.901,6.342 200.89,9.001 C180.724,11.158 160.495,9.455 140.303,10.004 C139.669,0.791 139.669,0.768 148.559,0.798 C167.012,0.86 185.466,0.948 203.92,1.026" id="Fill-43" fill="#3C629F"></path>
                <path d="M140.293,143.996 C154.512,141.997 168.731,139.999 182.949,138.001 C183.949,152.15 183.949,152.15 169.842,152.149 C161.737,152.149 153.614,151.822 145.534,152.274 C140.714,152.543 139.404,150.751 140.073,146.457 C140.199,145.645 140.222,144.817 140.293,143.996" id="Fill-45" fill="#3C629F"></path>
                <path d="M240.087,128.998 C243.022,136.393 244.312,144.21 245.953,151.936 C245.791,151.967 245.63,152.018 245.466,152.026 C227.699,152.953 226.657,152.261 216.878,133.047 C224.596,131.589 232.163,129.27 240.087,128.998" id="Fill-46" fill="#3C629F"></path>
                <path d="M477.986,151.941 C477.991,148.69 481.091,148.682 482.879,147.866 C489.821,144.699 496.208,140.138 503.998,138.989 C505.011,152.157 505.011,152.176 491.862,152.148 C487.237,152.138 482.611,152.014 477.986,151.941" id="Fill-51" fill="#45BCD3"></path>
                <path d="M691.994,1.003 C685.462,4.595 678.159,6.141 671.245,8.712 C657.795,13.713 644.174,18.256 630.611,22.951 C629.221,23.432 627.743,23.659 626.306,24.004 C626.233,17.352 626.216,10.697 626.057,4.047 C626.003,1.805 626.587,0.724 629.088,0.741 C650.056,0.881 671.025,0.928 691.994,1.003" id="Fill-38" fill="#418FC1"></path>
            </g>
            <g id="Mission" transform="translate(264.000000, 376.000000)">
                <mask id="mask-2" fill="white">
                    <use xlink:href="#path-1"></use>
                </mask>
                <g id="Clip-4"></g>
                <path d="M936,73 C925.23,67.049 914.45,61.112 903.68,55.138 C900.09,53.141 896.54,51.048 892.98,48.999 C892.9,34.52 892.85,20.041 892.73,5.562 C892.71,3.492 893.37,2.544 895.59,2.59 C909.06,2.868 922.54,2.117 936,3 L936,73" id="Fill-3" fill="#57BFC9" mask="url(#mask-2)"></path>
                <path d="M685,157 C683.259,155.084 680.752,155.511 678.586,155.002 C658.825,150.353 642.948,140.15 632.102,122.709 C630.8,120.616 629.38,118.537 628.948,116.015 C635.658,113 642.367,109.985 649.077,106.969 C661.707,112.758 673.64,119.873 685.937,126.292 C701.325,134.326 715.877,143.933 731.93,150.706 C725.368,154.185 717.861,154.517 711,157 L685,157" id="Fill-5" fill="#6DC2BC" mask="url(#mask-2)"></path>
                <path d="M936,154 C923.17,154.014 910.34,153.893 897.52,154.13 C893.93,154.196 891.88,153.109 889.91,150.044 C874.46,125.929 858.81,101.945 843.21,77.925 C842.23,76.41 841.19,74.933 840.14,73.387 C838.16,74.551 839.07,76.216 839.07,77.504 C839,101.495 838.93,125.487 839.11,149.477 C839.14,153.29 838.06,154.21 834.36,154.133 C822.71,153.889 811.04,154.004 799.38,154.064 C797.13,154.076 795.62,153.946 795.66,150.98 C795.85,136.326 795.86,121.669 795.94,107.013 C796.29,106.665 796.74,106.375 796.97,105.962 C809.92,82.455 822.92,58.974 835.71,35.379 C837.33,32.39 839.88,29.724 840.05,26.022 C844.39,25.116 848.61,22.789 853.2,24.954 C864.38,42.076 875.55,59.202 886.73,76.319 C888.25,78.639 889.82,80.923 891.36,83.224 C891.9,83.132 892.44,83.04 892.98,82.949 L892.98,48.999 C896.54,51.048 900.09,53.141 903.68,55.138 C914.45,61.112 925.23,67.049 936,73 L936,154" id="Fill-2" fill="#33B7C2" mask="url(#mask-2)"></path>
                <path d="M666.892,78.01 C666.892,80.84 666.849,83.67 666.899,86.498 C667.191,103.164 680.163,116.907 696.488,117.872 C713.646,118.887 728.002,106.954 730.227,89.888 C731.114,83.085 731.054,76.234 730.552,69.458 C729.398,53.879 718.189,41.269 704.14,39.098 C688.951,36.752 675.163,44.56 669.121,58.834 C666.498,65.031 666.844,71.527 666.892,78.01 Z M731.93,150.706 C715.877,143.933 701.325,134.326 685.937,126.292 C673.64,119.873 661.707,112.758 649.076,106.97 C649.301,95.552 646.666,84.402 645.91,73.076 C648.101,62.416 650.377,51.774 652.457,41.093 C654.538,30.412 657.763,19.969 659.058,9.128 C676.915,-0.959 696.205,-2.364 715.756,1.212 C740.34,5.707 758.9,18.968 769.53,42.152 C772.4,48.409 774.01,55.094 774.41,61.94 C775.24,75.905 776.2,89.954 772.96,103.733 C767.6,126.547 753.18,141.665 731.93,150.706 L731.93,150.706 Z" id="Fill-12" fill="#56BBB3" mask="url(#mask-2)"></path>
                <path d="M73.16,40.93 C78.016,51.712 82.873,62.494 88.213,74.35 C96.383,56.167 104.076,39.046 111.769,21.925 C120.867,19.403 128.916,14.441 137.39,10.529 C142.347,8.24 147.993,6.941 152.066,2.856 C164.477,2.969 164.138,-0.924 165.209,14.186 C167.971,53.152 170.553,92.131 173.186,131.106 C173.499,135.742 173.682,140.387 173.925,145.028 C168.197,145.194 162.838,143.298 157.41,141.933 C148.444,139.678 139.492,137.4 130.343,135.995 C128.93,116.769 127.518,97.544 126.105,78.318 C125.757,78.212 125.409,78.105 125.062,77.999 C117.05,95.007 109.039,112.015 101.027,129.023 C99.263,128.633 97.145,129.902 95.892,127.24 C94.351,123.963 92.311,120.913 90.401,117.818 C82.76,105.434 75.02,93.11 67.444,80.687 C61.855,71.523 56.463,62.239 50.983,53.009 C51.035,51.368 52.299,50.868 53.509,50.293 C60.062,47.178 66.61,44.052 73.16,40.93" id="Fill-14" fill="#45BCD3"></path>
                <path d="M279.039,12.13 C287.877,5.113 298.432,2.839 309.228,1.607 C334.76,-1.306 358.947,2.773 381.39,15.867 C384.622,17.752 385.088,19.028 382.941,22.176 C378.162,29.185 373.625,36.378 369.38,43.722 C367.456,47.052 365.95,47.574 362.505,45.624 C350.696,38.936 337.967,35.428 324.286,36.022 C319.783,36.217 315.316,36.789 311.23,38.907 C308.288,40.432 305.987,42.508 305.898,46.138 C305.81,49.713 308.31,51.518 311.002,52.912 C319.11,57.109 328.068,58.357 336.892,59.976 C346.236,61.689 355.5,63.723 364.41,67.037 C386.411,75.217 397.934,99.109 390.098,120.04 C377.407,118.194 364.704,116.424 352.04,114.409 C350.37,114.144 348.267,114.696 346.953,112.947 C347.904,105.305 346.323,102.661 338.777,100.008 C330.142,96.972 321.016,96.026 312.146,93.98 C309.74,93.425 307.381,92.667 305,92.002 C303.095,80.052 298.037,69.045 294.521,57.583 C289.829,42.288 284.242,27.268 279.039,12.13" id="Fill-17" fill="#32BBDC"></path>
                <path d="M240.238,78.181 C240.238,101.846 240.147,125.512 240.327,149.175 C240.357,153.084 239.351,154.24 235.377,154.14 C224.219,153.861 213.045,153.903 201.884,154.129 C198.15,154.205 196.788,153.47 196.803,149.307 C196.967,101.977 196.947,54.647 196.83,7.317 C196.821,3.666 197.655,2.423 201.503,2.514 C212.663,2.777 223.837,2.787 234.996,2.514 C239.062,2.414 240.375,3.427 240.337,7.687 C240.129,31.183 240.238,54.683 240.238,78.181" id="Fill-19" fill="#45BCD3"></path>
                <path d="M50.983,53.009 C56.463,62.239 61.855,71.523 67.444,80.687 C75.02,93.11 82.76,105.434 90.401,117.818 C92.311,120.913 94.351,123.963 95.892,127.24 C97.145,129.902 99.263,128.633 101.027,129.023 C100.978,129.351 101.026,129.738 100.866,129.997 C99.075,132.901 99.113,137.844 95.755,138.617 C91.013,139.709 85.825,139.049 80.842,138.826 C78.871,138.738 78.717,136.468 78.043,135.038 C69.744,117.429 61.499,99.795 53.227,82.173 C52.569,80.769 51.817,79.409 50.197,78.281 L47.032,115.802 C46.052,127.413 44.956,139.017 44.174,150.642 C43.972,153.636 42.759,154.113 40.165,154.089 C28.341,153.983 16.514,153.927 4.692,154.115 C1.33,154.169 0.501,153.169 0.75,149.875 C2.744,123.481 4.568,97.073 6.456,70.67 C7.275,59.213 8.097,47.756 8.974,36.303 C9.163,33.836 8.82,31.294 9.839,28.92 C23.66,36.768 37.683,44.271 50.983,53.009" id="Fill-20" fill="#219CC6"></path>
                <path d="M437.02,113.92 C449.608,118.732 462.596,121.016 476.096,120.202 C480.301,119.948 484.392,119.321 488.007,117.019 C494.397,112.949 494.268,105.404 487.668,101.757 C481.295,98.236 474.096,97.452 467.117,95.972 C459.004,94.25 450.74,93.119 443.001,89.909 C445.327,79.636 447.628,69.357 449.997,59.093 C450.632,56.345 451.447,53.628 454.055,51.969 C463.91,57.308 474.896,58.577 485.638,60.681 C492.339,61.994 498.946,63.619 505.461,65.661 C522.85,71.113 534.286,82.134 536.85,100.622 C539.591,120.387 531.312,135.283 514.869,145.831 C508.245,150.081 500.897,152.785 492.96,153.571 C478.059,146.707 462.608,141.201 447.324,135.294 C443.997,134.008 440.983,131.443 437.041,131.979 C437.071,129.681 434.724,128.839 433.995,127.006 C433.826,122.372 437.093,118.532 437.02,113.92" id="Fill-21" fill="#41B6DD"></path>
                <path d="M346.953,112.947 C348.267,114.696 350.37,114.144 352.04,114.409 C364.704,116.424 377.407,118.194 390.098,120.04 C385.805,134.967 375.443,144.357 361.573,149.865 C342.918,157.272 323.536,156.92 304.109,153.494 C292.783,151.497 281.796,148.371 271.878,142.259 C277.602,137.165 283.433,132.183 289.011,126.934 C292.506,123.646 297.781,122.058 299.11,116.642 C309.871,119.524 320.796,120.923 331.941,120.125 C337.859,119.702 343.372,118.315 346.953,112.947" id="Fill-25" fill="#57BFC9"></path>
                <path d="M454.055,51.969 C451.447,53.628 450.632,56.345 449.997,59.093 C447.628,69.357 445.327,79.636 443.001,89.909 C426.399,85.494 412.907,77.518 408.066,59.551 C401.772,36.197 412.228,15.04 434.734,6.201 C444.089,2.527 453.912,0.887 464,1.075 C462.65,6.613 461.145,12.118 459.99,17.696 C458.539,24.707 455.806,31.484 455.998,38.806 C449.773,43.925 449.396,46.48 454.055,51.969" id="Fill-27" fill="#32BBDC"></path>
                <path d="M840.05,26.022 C839.88,29.724 837.33,32.39 835.71,35.379 C822.92,58.974 809.92,82.455 796.97,105.962 C796.74,106.375 796.29,106.665 795.94,107.013 C795.87,81.926 795.8,56.838 795.74,31.751 C795.72,23.441 795.86,15.129 795.67,6.824 C795.59,3.537 796.67,2.458 799.93,2.599 C805.9,2.857 811.88,2.762 817.86,2.815 C817.98,5.049 819.73,6.207 821.11,7.561 C827.4,13.737 833.73,19.872 840.05,26.022" id="Fill-29" fill="#56BBB3"></path>
                <path d="M455.998,38.806 C455.806,31.484 458.539,24.707 459.99,17.696 C461.145,12.118 462.65,6.613 464,1.075 C486.628,-0.473 507.571,4.901 527.114,16.254 C529.683,17.747 530.244,18.808 528.431,21.513 C523.519,28.841 518.807,36.318 514.374,43.944 C512.526,47.123 511.094,47.517 507.831,45.725 C493.929,38.089 479.18,34.095 463.18,36.812 C460.743,37.226 458.39,38.129 455.998,38.806" id="Fill-30" fill="#41B6DD"></path>
                <path d="M50.983,53.009 C37.683,44.271 23.66,36.768 9.839,28.92 C10.263,21.14 10.752,13.363 11.073,5.579 C11.174,3.105 12.389,2.573 14.553,2.582 C27.664,2.631 40.776,2.645 53.887,2.565 C56.02,2.552 57.229,3.259 58.056,5.234 C63.044,17.152 68.116,29.035 73.16,40.93 C66.61,44.052 60.062,47.178 53.509,50.293 C52.299,50.868 51.035,51.368 50.983,53.009" id="Fill-31" fill="#2FB4DC"></path>
                <path d="M279.039,12.13 C284.242,27.268 289.829,42.288 294.521,57.583 C298.037,69.045 303.095,80.052 305,92.002 C296.163,90.204 287.706,87.172 279.992,82.609 C255.29,67.996 254.843,28.193 279.039,12.13" id="Fill-32" fill="#45BCD3"></path>
                <path d="M659.058,9.128 C657.763,19.969 654.538,30.412 652.457,41.093 C650.377,51.774 648.101,62.416 645.911,73.075 C644.68,73.003 643.91,72.078 642.926,71.533 C636.22,67.822 631.129,61.675 623.812,58.906 C626.671,36.019 639.068,19.885 659.058,9.128" id="Fill-35" fill="#64C4D7"></path>
                <path d="M623.812,58.906 C631.129,61.675 636.22,67.822 642.926,71.533 C643.91,72.078 644.68,73.003 645.911,73.075 C646.666,84.402 649.301,95.552 649.076,106.97 C642.367,109.985 635.658,113 628.948,116.015 C625.344,109.688 623.718,102.681 623.295,95.599 C622.566,83.382 621.899,71.11 623.812,58.906" id="Fill-36" fill="#41B6DD"></path>
                <path d="M130.343,135.995 C139.492,137.4 148.444,139.678 157.41,141.933 C162.838,143.298 168.197,145.194 173.925,145.028 C175.185,154.042 175.185,154.042 166.273,154.042 C155.971,154.043 145.665,153.892 135.368,154.129 C131.991,154.207 131.066,153.025 131.041,149.905 C131.004,145.267 130.594,140.631 130.343,135.995" id="Fill-42" fill="#33B7C2"></path>
                <path d="M299.11,116.642 C297.781,122.058 292.506,123.646 289.011,126.934 C283.433,132.183 277.602,137.165 271.878,142.259 C262.085,137.63 262.091,137.635 268.215,129.169 C272.491,123.258 276.819,117.381 280.97,111.382 C282.355,109.381 283.347,108.943 285.69,110.265 C289.993,112.692 294.618,114.548 299.11,116.642" id="Fill-44" fill="#45BCD3"></path>
                <path d="M437.041,131.979 C436.37,137.887 433.819,143.233 432.012,148.801 C424.201,146.837 417.308,142.951 410.596,138.653 C408.463,137.287 408.141,135.989 409.838,133.954 C412.268,131.04 414.462,127.929 416.757,124.902 C422.624,124.613 428.206,126.656 433.995,127.006 C434.724,128.839 437.071,129.681 437.041,131.979" id="Fill-47" fill="#57BFC9"></path>
                <path d="M840.05,26.022 C833.73,19.872 827.4,13.737 821.11,7.561 C819.73,6.207 817.98,5.049 817.86,2.815 C824.02,2.748 830.17,2.715 836.33,2.594 C838.15,2.558 839.44,3.037 840.46,4.697 C844.64,11.49 848.95,18.208 853.2,24.953 C848.61,22.789 844.39,25.116 840.05,26.022" id="Fill-48" fill="#57BFC9"></path>
                <path d="M152.066,2.856 C147.993,6.941 142.347,8.24 137.39,10.529 C128.916,14.441 120.867,19.403 111.769,21.925 C114.166,16.272 116.582,10.627 118.946,4.96 C119.569,3.467 120.341,2.379 122.184,2.432 C132.142,2.719 142.116,1.913 152.066,2.856" id="Fill-49" fill="#2FB4DC"></path>
                <path d="M433.995,127.006 C428.206,126.656 422.624,124.613 416.757,124.902 C420.142,120.045 423.566,115.213 426.891,110.315 C427.954,108.749 428.905,109.182 430.173,109.972 C432.409,111.363 434.733,112.612 437.02,113.92 C437.093,118.532 433.826,122.372 433.995,127.006" id="Fill-50" fill="#32BBDC"></path>
                <path d="M437.041,131.979 C440.983,131.443 443.997,134.008 447.324,135.294 C462.608,141.201 478.059,146.707 492.96,153.571 C472.204,157.604 451.921,155.592 432.012,148.801 C433.819,143.233 436.37,137.887 437.041,131.979" id="Fill-40" fill="#56BBB3"></path>
            </g>
            <g id="I" transform="translate(789.000000, 180.000000)" fill="#55BCBB">
                <path d="M33.245,226.717 C33.245,187.893 33.169,149.069 33.354,110.247 C33.374,106.064 32.264,103.86 28.515,101.768 C6.949,89.735 -3.557,64.783 2.612,41.17 C8.856,17.272 29.956,0.578 54.389,0.207 C79.094,-0.168 101.193,16.612 107.624,40.629 C114.047,64.617 103.337,90.06 81.403,101.994 C77.75,103.98 76.761,106.15 76.766,110.054 C76.872,188.201 76.798,266.348 76.962,344.494 C76.972,349.233 75.576,350.269 71.139,350.144 C60.151,349.836 49.143,349.868 38.153,350.137 C34.226,350.233 33.14,349.154 33.155,345.186 C33.303,305.697 33.245,266.207 33.245,226.717" id="Fill-9"></path>
            </g>
            <g id="Circle1" transform="translate(626.000000, 0.000000)" fill="#64C4D7">
                <path d="M239,0 C245.668,2.652 252.854,2.569 259.78,3.811 C348.862,19.78 422.5,93.477 437.69,182.623 C444.09,220.124 437.73,256.208 423.49,291.104 C417.64,305.435 410.84,319.311 402.22,332.226 C401.93,331.991 401.63,331.756 401.33,331.521 C410.61,312.048 417.94,291.936 421.17,270.505 C430.16,210.939 414.47,157.884 376.22,112.216 C332.218,59.691 274.645,33.863 206.376,38.649 C121.426,44.604 61.592,88.818 27.296,166.895 C24.888,172.378 22.474,174.763 16.56,173.998 C12.628,173.488 8.553,173.633 4.584,173.976 C0.574,174.322 0.319,172.682 1.18,169.451 C17.568,108.01 52.976,60.986 108.034,29.073 C135.493,13.156 165.251,4.048 196.846,0.961 C197.938,0.854 199.238,1.257 200,0 L239,0" id="Fill-1"></path>
            </g>
            <g id="Circle2" transform="translate(699.000000, 75.000000)" fill="#3C629F">
                <path d="M266.182,256.199 C265.634,254.424 267.003,253.409 267.699,252.203 C317.89,165.22 265.524,54.882 166.252,40.457 C112.181,32.601 67.383,51.405 32.987,94.072 C30.233,97.488 27.673,99.26 23.152,99 C16.011,98.59 8.83,98.888 1.666,98.876 C1.339,98.875 1.012,98.773 0,98.603 C8.071,78.261 19.946,60.705 35.433,45.59 C60.307,21.316 89.998,6.435 124.489,2.163 C197.261,-6.85 264.703,33.152 291.063,100.134 C315.13,161.276 295.443,224.92 266.182,256.199" id="Fill-10"></path>
            </g>
        </g>
    </g>
</svg>