<?xml version="1.0" encoding="UTF-8"?>
<svg width="2058px" height="913px" viewBox="0 0 2058 913" version="1.1" xmlns="http://www.w3.org/2000/svg" xmlns:xlink="http://www.w3.org/1999/xlink">
    <!-- Generator: Sketch 42 (36781) - http://www.bohemiancoding.com/sketch -->
    <title>Untitled</title>
    <desc>Created with Sketch.</desc>
    <defs></defs>
    <g id="Page-1" stroke="none" stroke-width="1" fill="none" fill-rule="evenodd">
        <g id="Logo" fill-rule="nonzero" fill="#FFFFFF">
            <g id="Page-1">
                <g id="circle2" transform="translate(1198.000000, 129.000000)">
                    <path d="M412.9935,128.904 C320.2075,44.481 178.4525,44.481 85.6765,128.904 C72.3075,141.059 60.6445,154.422 50.6005,168.641 L0.1785,168.641 C13.5595,135.489 33.7835,104.489 60.8495,77.848 C165.4785,-25.001 333.1915,-25.001 437.7525,77.848 C542.3235,180.71 545.0475,348.49 443.8975,454.693 C519.1385,354.378 505.7795,213.269 412.9935,128.904 Z" id="Fill-1"></path>
                </g>
                <g id="circle1" transform="translate(1073.000000, 0.000000)">
                    <path d="M744.0781,282.4174 C698.6061,115.6554 547.1771,0.0004 374.3301,0.0004 C201.5531,0.0004 50.0531,115.6554 4.5801,282.4174 C3.2001,287.4844 1.9311,292.5594 0.7641,297.6414 L42.0781,297.6414 C92.5201,158.5654 225.0141,64.8604 374.3301,64.8604 C530.4511,64.8604 668.0171,167.2054 712.8571,316.7354 C742.6581,415.9664 722.9131,514.3254 670.8621,598.4254 C735.1971,507.1394 774.8901,395.3884 744.0781,282.4174" id="Fill-3"></path>
                </g>
                <g id="I" transform="translate(1354.000000, 308.000000)">
                    <path d="M186.3379,93.7664 C186.3379,42.4134 144.6729,0.7584 93.3299,0.7584 C41.9859,0.7584 0.3319,42.4134 0.3319,93.7664 C0.3319,131.7874 23.2659,164.4214 55.9559,178.8704 L55.9559,599.6024 L130.2859,599.6024 L130.2859,179.0594 C163.2569,164.7084 186.3379,131.9544 186.3379,93.7664" id="Fill-21"></path>
                </g>
                <g id="Mission" transform="translate(453.000000, 643.000000)">
                    <polygon id="Fill-15" points="281.7128 5.2242 205.4238 5.2242 151.8278 126.8932 149.8718 126.8932 97.0578 5.2242 19.2048 5.2242 0.4268 264.6032 74.7578 264.6032 85.7128 133.5452 87.2778 133.5452 136.5708 238.7812 165.5208 238.7812 214.0318 133.5452 215.9878 133.5452 224.9858 264.6032 299.3178 264.6032"></polygon>
                    <polygon id="Fill-17" points="337.269 264.603 411.602 264.603 411.602 5.224 337.269 5.224"></polygon>
                    <path d="M447.5931,80.338 C447.5931,112.811 464.0251,135.893 485.9341,145.673 C496.8881,150.758 508.6241,155.062 521.5341,158.583 C558.3091,168.363 595.4751,168.363 595.4751,187.141 C595.4751,200.443 583.3461,207.094 559.4811,207.094 C530.5311,207.094 505.4931,200.443 484.7591,187.141 L450.3321,234.869 C464.0251,245.433 480.8471,253.258 500.8001,259.126 C520.7511,264.603 540.7031,267.34 560.6561,267.34 C597.4311,267.34 625.2061,259.126 643.9841,243.085 C662.7621,227.045 672.1531,207.484 672.1531,184.794 C672.1531,147.238 649.0711,123.373 619.7301,113.984 C605.2551,109.288 590.3881,105.768 575.9141,103.42 C547.3551,98.335 523.8821,92.466 523.8821,80.338 C523.8821,68.993 537.5741,62.343 560.6561,62.343 C582.9551,62.343 605.2551,68.993 628.3371,82.686 L660.0251,32.218 C628.7271,12.267 594.3001,2.095 556.7441,2.095 C519.1861,2.095 491.4111,9.528 473.8061,24.394 C456.2011,38.87 447.5931,57.648 447.5931,80.338" id="Fill-19"></path>
                    <path d="M696.406,80.338 C696.406,112.811 712.836,135.893 734.745,145.673 C745.699,150.758 757.435,155.062 770.345,158.583 C807.12,168.363 844.286,168.363 844.286,187.141 C844.286,200.443 832.157,207.094 808.294,207.094 C779.344,207.094 754.306,200.443 733.57,187.141 L699.143,234.869 C712.836,245.433 729.658,253.258 749.611,259.126 C769.564,264.603 789.515,267.34 809.467,267.34 C846.242,267.34 874.017,259.126 892.797,243.085 C911.575,227.045 920.964,207.484 920.964,184.794 C920.964,147.238 897.882,123.373 868.541,113.984 C854.066,109.288 839.201,105.768 824.725,103.42 C796.166,98.335 772.693,92.466 772.693,80.338 C772.693,68.993 786.385,62.343 809.467,62.343 C831.766,62.343 854.066,68.993 877.148,82.686 L908.836,32.218 C877.54,12.267 843.113,2.095 805.555,2.095 C767.999,2.095 740.222,9.528 722.617,24.394 C705.012,38.87 696.406,57.648 696.406,80.338" id="Fill-20"></path>
                    <path d="M1252.3257,146.846 C1252.3257,162.495 1246.8467,175.796 1236.2847,186.75 C1225.7217,197.314 1212.8117,202.79 1197.5547,202.79 C1182.2967,202.79 1169.3877,197.314 1158.8237,186.75 C1148.2617,175.796 1142.7837,162.495 1142.7837,146.846 L1142.7837,122.981 C1142.7837,107.724 1148.2617,94.422 1158.8237,83.469 C1169.3877,72.513 1182.2967,67.037 1197.5547,67.037 C1212.8117,67.037 1225.7217,72.513 1236.2847,83.469 C1246.8467,94.422 1252.3257,107.724 1252.3257,122.981 L1252.3257,146.846 Z M1290.6647,33.785 C1265.6267,11.484 1234.7207,0.139 1197.5547,0.139 C1160.3877,0.139 1129.0917,11.484 1104.4437,33.785 C1079.7977,56.083 1067.2797,85.425 1067.2797,122.2 L1067.2797,148.019 C1067.2797,184.794 1079.7977,214.135 1104.4437,236.434 C1129.4817,258.734 1160.3877,269.688 1197.5547,269.688 C1234.7207,269.688 1265.6267,258.734 1290.6647,236.434 C1315.7027,214.135 1328.2207,184.402 1328.2207,148.019 L1328.2207,122.2 C1328.2207,85.425 1315.7027,56.083 1290.6647,33.785 L1290.6647,33.785 Z" id="Fill-22"></path>
                    <polygon id="Fill-23" points="1530.0925 143.717 1527.7445 143.717 1438.1565 5.224 1363.8265 5.224 1363.8265 264.603 1438.1565 264.603 1438.1565 126.112 1440.1125 126.112 1530.0925 264.603 1604.4255 264.603 1604.4255 5.224 1530.0925 5.224"></polygon>
                </g>
                <g id="Tranz" transform="translate(0.000000, 343.000000)">
                    <polygon id="Fill-5" points="0 69.1846 64.942 69.1846 64.942 260.1006 139.274 260.1006 139.274 69.1846 204.608 69.1846 204.608 0.7216 0 0.7216"></polygon>
                    <path d="M394.3525,93.4404 C394.3525,105.5684 383.7895,117.6954 367.7485,117.6954 L314.5425,117.6954 L314.5425,59.7954 L367.7485,59.7954 C383.7895,59.7954 394.3525,70.7494 394.3525,84.4424 L394.3525,93.4404 Z M453.4265,147.0374 C464.3805,133.3444 469.8575,116.9134 469.8575,97.3524 L469.8575,77.0094 C469.8575,55.4924 462.4245,37.1044 447.5575,22.6294 C432.6915,8.1544 413.1305,0.7214 388.8745,0.7214 L240.2105,0.7214 L240.2105,260.1004 L314.1525,260.1004 L314.1525,175.2054 L338.4075,175.2054 L392.0045,260.1004 L469.4665,260.1004 L414.6955,172.4664 L415.0865,170.9014 C429.9535,168.5544 442.8635,160.7304 453.4265,147.0374 L453.4265,147.0374 Z" id="Fill-7"></path>
                    <path d="M604.0479,159.5562 L626.3479,83.2682 L628.6939,83.2682 L650.9939,159.5562 L604.0479,159.5562 Z M666.6439,0.7212 L588.3999,0.7212 L495.2889,260.1002 L571.1859,260.1002 L586.0519,216.2842 L669.3819,216.2842 L683.8569,260.1002 L759.3619,260.1002 L666.6439,0.7212 Z" id="Fill-9"></path>
                    <polygon id="Fill-11" points="956.5361 139.2124 954.1881 139.2124 864.5991 0.7214 790.2671 0.7214 790.2671 260.1004 864.5991 260.1004 864.5991 121.6084 866.5561 121.6084 956.5361 260.1004 1030.8681 260.1004 1030.8681 0.7214 956.5361 0.7214"></polygon>
                    <polygon id="Fill-13" points="1289.4678 0.7212 1073.5138 0.7212 1073.5138 64.8812 1188.5318 64.8812 1188.5318 66.8372 1073.5138 195.9402 1073.5138 260.1002 1289.8588 260.1002 1289.8588 195.9402 1174.4478 195.9402 1174.4478 194.3742 1289.4678 64.8812"></polygon>
                </g>
            </g>
        </g>
    </g>
</svg>